M48
; DRILL file KiCad 10.0.3 date 2026-07-27T21:36:35
; FORMAT={-:-/ absolute / metric / decimal}
; #@! TF.CreationDate,2026-07-27T21:36:35+09:30
; #@! TF.GenerationSoftware,Kicad,Pcbnew,10.0.3
; #@! TF.FileFunction,MixedPlating,1,2
FMAT,2
METRIC
; #@! TA.AperFunction,Plated,PTH,ViaDrill
T1C0.300
; #@! TA.AperFunction,Plated,PTH,ComponentDrill
T2C0.300
; #@! TA.AperFunction,Plated,PTH,ViaDrill
T3C0.400
; #@! TA.AperFunction,Plated,PTH,ComponentDrill
T4C0.400
; #@! TA.AperFunction,Plated,PTH,ComponentDrill
T5C1.000
; #@! TA.AperFunction,Plated,PTH,ComponentDrill
T6C1.613
; #@! TA.AperFunction,Plated,PTH,ComponentDrill
T7C3.200
%
G90
G05
T1
X24.9Y-40.3
X25.5Y-52.1
X31.5Y-46.9
X31.6Y-49.2
X31.73Y-43.8
X32.1Y-52.8
X32.949Y-48.373
X34.29Y-52.65
X35.0Y-45.4
X36.0Y-72.8
X36.5Y-57.4
X36.815Y-50.989
X38.602Y-46.972
X38.944Y-48.319
X39.385Y-47.534
X39.55Y-40.25
X39.6Y-49.0
X40.1Y-43.4
X41.4Y-51.2
X41.925Y-57.4
X42.0Y-49.0
X43.007Y-47.45
X43.2Y-43.4
X44.0Y-47.0
X44.475Y-48.2
T2
X36.05Y-48.2
T3
X25.8Y-29.1
X26.1Y-37.5
X26.725Y-52.1
X26.725Y-59.9
X26.725Y-61.025
X28.85Y-53.695
X30.0Y-55.3
X30.1Y-50.8
X30.3Y-25.9
X30.3Y-33.0
X30.4Y-41.5
X34.4Y-53.7
X37.266Y-52.75
X37.395Y-44.795
X37.5Y-41.2
X38.2Y-54.4
X39.3Y-51.75
X40.0Y-54.6
X40.55Y-49.808
X40.6Y-44.2
X41.0Y-53.2
X42.3Y-37.6
T4
X17.0Y-59.1
X17.0Y-63.1
X17.0Y-67.1
X17.0Y-71.1
X17.0Y-77.0
X17.0Y-81.0
X17.0Y-85.0
X17.0Y-89.0
X17.0Y-93.0
X20.0Y-96.8
X24.1Y-52.5
X24.4Y-39.0
X24.7Y-26.5
X24.7Y-96.8
X25.0Y-59.1
X25.0Y-63.1
X25.0Y-67.1
X25.0Y-71.1
X25.0Y-77.0
X25.0Y-81.0
X25.0Y-85.0
X25.0Y-89.0
X25.0Y-93.0
X25.5Y-43.0
X27.9Y-43.0
X31.1Y-48.0
X31.3Y-54.8
X31.6Y-26.1
X33.2Y-50.1
X34.0Y-96.8
X34.14Y-26.1
X34.8Y-41.2
X34.8Y-44.3
X34.9Y-63.1
X35.0Y-59.1
X35.0Y-67.1
X35.0Y-71.1
X35.3Y-54.9
X36.5Y-77.0
X36.5Y-81.0
X36.5Y-85.0
X36.5Y-89.0
X36.68Y-26.1
X37.5Y-96.8
X39.22Y-26.1
X40.55Y-40.9
X40.7Y-96.8
X42.0Y-58.6
X42.5Y-39.5
X42.9Y-64.9
X42.9Y-68.8
X43.7Y-26.2
X43.7Y-28.74
X43.7Y-31.28
X43.7Y-33.82
X43.7Y-36.36
X43.9Y-96.8
X44.1Y-71.5
X44.1Y-77.0
X44.1Y-81.0
X44.1Y-85.0
X44.1Y-89.0
X44.2Y-41.4
X44.3Y-46.0
T5
X25.5Y-45.32
X25.5Y-47.86
X25.5Y-50.4
X27.8Y-27.46
X27.8Y-30.0
X27.8Y-36.0
X27.8Y-38.54
X28.04Y-45.32
X28.04Y-47.86
X28.04Y-50.4
X30.34Y-27.46
X30.34Y-30.0
X30.34Y-36.0
X30.34Y-38.54
X32.88Y-27.46
X32.88Y-30.0
X32.88Y-36.0
X32.88Y-38.54
X35.42Y-27.46
X35.42Y-30.0
X35.42Y-36.0
X35.42Y-38.54
X37.96Y-27.46
X37.96Y-30.0
X37.96Y-36.0
X37.96Y-38.54
X40.5Y-27.46
X40.5Y-30.0
X40.5Y-36.0
X40.5Y-38.54
T6
X22.5Y-61.37
X22.5Y-65.37
X22.5Y-69.37
X22.5Y-73.37
X22.5Y-79.87
X22.5Y-83.87
X22.5Y-87.87
X39.0Y-61.37
X39.0Y-65.37
X39.0Y-69.37
X39.0Y-73.37
X39.0Y-79.87
X39.0Y-83.87
X39.0Y-87.87
T7
X30.5Y-94.5
M30
