G04 #@! TF.GenerationSoftware,KiCad,Pcbnew,10.0.3*
G04 #@! TF.CreationDate,2026-07-27T21:36:47+09:30*
G04 #@! TF.ProjectId,GamepadPMOD,47616d65-7061-4645-904d-4f442e6b6963,1.4*
G04 #@! TF.SameCoordinates,Original*
G04 #@! TF.FileFunction,Copper,L1,Top*
G04 #@! TF.FilePolarity,Positive*
%FSLAX46Y46*%
G04 Gerber Fmt 4.6, Leading zero omitted, Abs format (unit mm)*
G04 Created by KiCad (PCBNEW 10.0.3) date 2026-07-27 21:36:47*
%MOMM*%
%LPD*%
G01*
G04 APERTURE LIST*
G04 Aperture macros list*
%AMRoundRect*
0 Rectangle with rounded corners*
0 $1 Rounding radius*
0 $2 $3 $4 $5 $6 $7 $8 $9 X,Y pos of 4 corners*
0 Add a 4 corners polygon primitive as box body*
4,1,4,$2,$3,$4,$5,$6,$7,$8,$9,$2,$3,0*
0 Add four circle primitives for the rounded corners*
1,1,$1+$1,$2,$3*
1,1,$1+$1,$4,$5*
1,1,$1+$1,$6,$7*
1,1,$1+$1,$8,$9*
0 Add four rect primitives between the rounded corners*
20,1,$1+$1,$2,$3,$4,$5,0*
20,1,$1+$1,$4,$5,$6,$7,0*
20,1,$1+$1,$6,$7,$8,$9,0*
20,1,$1+$1,$8,$9,$2,$3,0*%
G04 Aperture macros list end*
G04 #@! TA.AperFunction,ComponentPad*
%ADD10C,0.820000*%
G04 #@! TD*
G04 #@! TA.AperFunction,SMDPad,CuDef*
%ADD11RoundRect,0.225000X0.250000X-0.225000X0.250000X0.225000X-0.250000X0.225000X-0.250000X-0.225000X0*%
G04 #@! TD*
G04 #@! TA.AperFunction,SMDPad,CuDef*
%ADD12RoundRect,0.135000X-0.185000X0.135000X-0.185000X-0.135000X0.185000X-0.135000X0.185000X0.135000X0*%
G04 #@! TD*
G04 #@! TA.AperFunction,SMDPad,CuDef*
%ADD13C,1.000000*%
G04 #@! TD*
G04 #@! TA.AperFunction,SMDPad,CuDef*
%ADD14RoundRect,0.250000X-0.475000X0.250000X-0.475000X-0.250000X0.475000X-0.250000X0.475000X0.250000X0*%
G04 #@! TD*
G04 #@! TA.AperFunction,SMDPad,CuDef*
%ADD15RoundRect,0.250000X-0.250000X-0.475000X0.250000X-0.475000X0.250000X0.475000X-0.250000X0.475000X0*%
G04 #@! TD*
G04 #@! TA.AperFunction,ComponentPad*
%ADD16C,0.620000*%
G04 #@! TD*
G04 #@! TA.AperFunction,ComponentPad*
%ADD17R,1.700000X1.700000*%
G04 #@! TD*
G04 #@! TA.AperFunction,ComponentPad*
%ADD18O,1.700000X1.700000*%
G04 #@! TD*
G04 #@! TA.AperFunction,ComponentPad*
%ADD19C,1.700000*%
G04 #@! TD*
G04 #@! TA.AperFunction,ComponentPad*
%ADD20C,5.700000*%
G04 #@! TD*
G04 #@! TA.AperFunction,SMDPad,CuDef*
%ADD21R,1.500000X1.400000*%
G04 #@! TD*
G04 #@! TA.AperFunction,SMDPad,CuDef*
%ADD22RoundRect,0.225000X-0.250000X0.225000X-0.250000X-0.225000X0.250000X-0.225000X0.250000X0.225000X0*%
G04 #@! TD*
G04 #@! TA.AperFunction,SMDPad,CuDef*
%ADD23RoundRect,0.140000X0.140000X0.170000X-0.140000X0.170000X-0.140000X-0.170000X0.140000X-0.170000X0*%
G04 #@! TD*
G04 #@! TA.AperFunction,SMDPad,CuDef*
%ADD24RoundRect,0.250000X0.475000X-0.250000X0.475000X0.250000X-0.475000X0.250000X-0.475000X-0.250000X0*%
G04 #@! TD*
G04 #@! TA.AperFunction,SMDPad,CuDef*
%ADD25RoundRect,0.140000X-0.140000X-0.170000X0.140000X-0.170000X0.140000X0.170000X-0.140000X0.170000X0*%
G04 #@! TD*
G04 #@! TA.AperFunction,ComponentPad*
%ADD26C,2.800000*%
G04 #@! TD*
G04 #@! TA.AperFunction,SMDPad,CuDef*
%ADD27RoundRect,0.218750X-0.218750X-0.256250X0.218750X-0.256250X0.218750X0.256250X-0.218750X0.256250X0*%
G04 #@! TD*
G04 #@! TA.AperFunction,SMDPad,CuDef*
%ADD28RoundRect,0.050000X0.050000X-0.375000X0.050000X0.375000X-0.050000X0.375000X-0.050000X-0.375000X0*%
G04 #@! TD*
G04 #@! TA.AperFunction,SMDPad,CuDef*
%ADD29RoundRect,0.050000X0.375000X-0.050000X0.375000X0.050000X-0.375000X0.050000X-0.375000X-0.050000X0*%
G04 #@! TD*
G04 #@! TA.AperFunction,HeatsinkPad*
%ADD30R,1.650000X1.650000*%
G04 #@! TD*
G04 #@! TA.AperFunction,SMDPad,CuDef*
%ADD31RoundRect,0.135000X0.135000X0.185000X-0.135000X0.185000X-0.135000X-0.185000X0.135000X-0.185000X0*%
G04 #@! TD*
G04 #@! TA.AperFunction,ViaPad*
%ADD32C,0.800000*%
G04 #@! TD*
G04 #@! TA.AperFunction,ViaPad*
%ADD33C,0.600000*%
G04 #@! TD*
G04 #@! TA.AperFunction,ViaPad*
%ADD34C,0.650000*%
G04 #@! TD*
G04 #@! TA.AperFunction,Conductor*
%ADD35C,0.200000*%
G04 #@! TD*
G04 #@! TA.AperFunction,Conductor*
%ADD36C,0.300000*%
G04 #@! TD*
G04 #@! TA.AperFunction,Conductor*
%ADD37C,0.250000*%
G04 #@! TD*
G04 #@! TA.AperFunction,Conductor*
%ADD38C,0.350000*%
G04 #@! TD*
G04 APERTURE END LIST*
D10*
G04 #@! TO.P,STITCH17,1*
G04 #@! TO.N,GND*
X35000000Y-67100000D03*
G04 #@! TD*
D11*
G04 #@! TO.P,C7,1*
G04 #@! TO.N,+3V3*
X24400000Y-30575000D03*
G04 #@! TO.P,C7,2*
G04 #@! TO.N,GND*
X24400000Y-29025000D03*
G04 #@! TD*
D10*
G04 #@! TO.P,STITCH15,1*
G04 #@! TO.N,GND*
X44300000Y-46000000D03*
G04 #@! TD*
G04 #@! TO.P,STITCH12,1*
G04 #@! TO.N,GND*
X17000000Y-77000000D03*
G04 #@! TD*
D12*
G04 #@! TO.P,R1,1*
G04 #@! TO.N,+3V3*
X43700000Y-37690000D03*
G04 #@! TO.P,R1,2*
G04 #@! TO.N,Net-(R1-Pad2)*
X43700000Y-38710000D03*
G04 #@! TD*
D10*
G04 #@! TO.P,STITCH6,1*
G04 #@! TO.N,GND*
X43700000Y-36360000D03*
G04 #@! TD*
G04 #@! TO.P,STITCH27,1*
G04 #@! TO.N,GND*
X43900000Y-96800000D03*
G04 #@! TD*
G04 #@! TO.P,STITCH12,1*
G04 #@! TO.N,GND*
X25000000Y-71100000D03*
G04 #@! TD*
G04 #@! TO.P,STITCH10,1*
G04 #@! TO.N,GND*
X34800000Y-44300000D03*
G04 #@! TD*
G04 #@! TO.P,STITCH21,1*
G04 #@! TO.N,GND*
X44100000Y-89000000D03*
G04 #@! TD*
G04 #@! TO.P,STITCH13,1*
G04 #@! TO.N,GND*
X17000000Y-67100000D03*
G04 #@! TD*
D13*
G04 #@! TO.P,FID3,*
G04 #@! TO.N,*
X24500000Y-33000000D03*
G04 #@! TD*
D10*
G04 #@! TO.P,STITCH11,1*
G04 #@! TO.N,GND*
X17000000Y-81000000D03*
G04 #@! TD*
D14*
G04 #@! TO.P,C6,1*
G04 #@! TO.N,+3V3*
X24400000Y-35450000D03*
G04 #@! TO.P,C6,2*
G04 #@! TO.N,GND*
X24400000Y-37350000D03*
G04 #@! TD*
D15*
G04 #@! TO.P,C4,1*
G04 #@! TO.N,+3V3*
X28050000Y-53400000D03*
G04 #@! TO.P,C4,2*
G04 #@! TO.N,GND*
X29950000Y-53400000D03*
G04 #@! TD*
D10*
G04 #@! TO.P,STITCH6,1*
G04 #@! TO.N,GND*
X31600000Y-26100000D03*
G04 #@! TD*
G04 #@! TO.P,STITCH10,1*
G04 #@! TO.N,GND*
X34800000Y-41200000D03*
G04 #@! TD*
G04 #@! TO.P,STITCH13,1*
G04 #@! TO.N,GND*
X25000000Y-67100000D03*
G04 #@! TD*
G04 #@! TO.P,STITCH14,1*
G04 #@! TO.N,GND*
X25000000Y-63100000D03*
G04 #@! TD*
G04 #@! TO.P,STITCH10,1*
G04 #@! TO.N,GND*
X33200000Y-50100000D03*
G04 #@! TD*
G04 #@! TO.P,STITCH10,1*
G04 #@! TO.N,GND*
X31300000Y-54800000D03*
G04 #@! TD*
D16*
G04 #@! TO.P,STITCH1,1*
G04 #@! TO.N,GND*
X36050000Y-48200000D03*
G04 #@! TD*
D10*
G04 #@! TO.P,STITCH2,1*
G04 #@! TO.N,GND*
X43700000Y-26200000D03*
G04 #@! TD*
D17*
G04 #@! TO.P,J4,1,IO1*
G04 #@! TO.N,/PMOD1*
X40500000Y-36000000D03*
D18*
G04 #@! TO.P,J4,2,IO2*
G04 #@! TO.N,/PMOD2*
X37960000Y-36000000D03*
G04 #@! TO.P,J4,3,IO3*
G04 #@! TO.N,/PMOD3*
X35420000Y-36000000D03*
G04 #@! TO.P,J4,4,IO4*
G04 #@! TO.N,/PMOD4*
X32880000Y-36000000D03*
G04 #@! TO.P,J4,5,GND*
G04 #@! TO.N,GND*
X30340000Y-36000000D03*
D19*
G04 #@! TO.P,J4,6,VCC*
G04 #@! TO.N,+3V3*
X27800000Y-36000000D03*
D18*
G04 #@! TO.P,J4,7,IO5*
G04 #@! TO.N,/PMOD5*
X40500000Y-38540000D03*
G04 #@! TO.P,J4,8,IO6*
G04 #@! TO.N,/PMOD6*
X37960000Y-38540000D03*
G04 #@! TO.P,J4,9,IO7*
G04 #@! TO.N,/PMOD7*
X35420000Y-38540000D03*
G04 #@! TO.P,J4,10,IO8*
G04 #@! TO.N,/PMOD8*
X32880000Y-38540000D03*
G04 #@! TO.P,J4,11,GND*
G04 #@! TO.N,GND*
X30340000Y-38540000D03*
G04 #@! TO.P,J4,12,VCC*
G04 #@! TO.N,+3V3*
X27800000Y-38540000D03*
G04 #@! TD*
D20*
G04 #@! TO.P,H1,1,1*
G04 #@! TO.N,GND*
X30500000Y-94500000D03*
G04 #@! TD*
D10*
G04 #@! TO.P,STITCH15,1*
G04 #@! TO.N,GND*
X25000000Y-59100000D03*
G04 #@! TD*
G04 #@! TO.P,STITCH10,1*
G04 #@! TO.N,GND*
X25500000Y-43000000D03*
G04 #@! TD*
G04 #@! TO.P,STITCH5,1*
G04 #@! TO.N,GND*
X43700000Y-33820000D03*
G04 #@! TD*
G04 #@! TO.P,STITCH12,1*
G04 #@! TO.N,GND*
X42900000Y-64900000D03*
G04 #@! TD*
G04 #@! TO.P,STITCH20,1*
G04 #@! TO.N,GND*
X44100000Y-85000000D03*
G04 #@! TD*
G04 #@! TO.P,STITCH8,1*
G04 #@! TO.N,GND*
X36680000Y-26100000D03*
G04 #@! TD*
G04 #@! TO.P,STITCH15,1*
G04 #@! TO.N,GND*
X42000000Y-58600000D03*
G04 #@! TD*
D21*
G04 #@! TO.P,SW1,1*
G04 #@! TO.N,GND*
X37550000Y-43200000D03*
G04 #@! TO.P,SW1,2*
G04 #@! TO.N,Net-(R1-Pad2)*
X44050000Y-43200000D03*
G04 #@! TD*
D10*
G04 #@! TO.P,STITCH24,1*
G04 #@! TO.N,GND*
X25000000Y-89000000D03*
G04 #@! TD*
G04 #@! TO.P,STITCH7,1*
G04 #@! TO.N,GND*
X34140000Y-26100000D03*
G04 #@! TD*
G04 #@! TO.P,STITCH15,1*
G04 #@! TO.N,GND*
X17000000Y-59100000D03*
G04 #@! TD*
G04 #@! TO.P,STITCH21,1*
G04 #@! TO.N,GND*
X24700000Y-96800000D03*
G04 #@! TD*
G04 #@! TO.P,STITCH12,1*
G04 #@! TO.N,GND*
X42900000Y-68800000D03*
G04 #@! TD*
G04 #@! TO.P,STITCH10,1*
G04 #@! TO.N,GND*
X27900000Y-43000000D03*
G04 #@! TD*
D22*
G04 #@! TO.P,C2,1*
G04 #@! TO.N,+3V3*
X40000000Y-51625000D03*
G04 #@! TO.P,C2,2*
G04 #@! TO.N,GND*
X40000000Y-53175000D03*
G04 #@! TD*
D10*
G04 #@! TO.P,STITCH19,1*
G04 #@! TO.N,GND*
X44100000Y-81000000D03*
G04 #@! TD*
G04 #@! TO.P,STITCH10,1*
G04 #@! TO.N,GND*
X25000000Y-85000000D03*
G04 #@! TD*
D17*
G04 #@! TO.P,J5,1,Pin_1*
G04 #@! TO.N,GND*
X28040000Y-50400000D03*
D18*
G04 #@! TO.P,J5,2,Pin_2*
G04 #@! TO.N,/RX*
X25500000Y-50400000D03*
G04 #@! TO.P,J5,3,Pin_3*
G04 #@! TO.N,+3V3*
X28040000Y-47860000D03*
G04 #@! TO.P,J5,4,Pin_4*
G04 #@! TO.N,/TX*
X25500000Y-47860000D03*
G04 #@! TO.P,J5,5,Pin_5*
G04 #@! TO.N,/SWDIO*
X28040000Y-45320000D03*
G04 #@! TO.P,J5,6,Pin_6*
G04 #@! TO.N,/PMOD4*
X25500000Y-45320000D03*
G04 #@! TD*
D10*
G04 #@! TO.P,STITCH4,1*
G04 #@! TO.N,GND*
X43700000Y-31280000D03*
G04 #@! TD*
G04 #@! TO.P,STITCH22,1*
G04 #@! TO.N,GND*
X20000000Y-96800000D03*
G04 #@! TD*
G04 #@! TO.P,STITCH12,1*
G04 #@! TO.N,GND*
X25000000Y-77000000D03*
G04 #@! TD*
G04 #@! TO.P,STITCH28,1*
G04 #@! TO.N,GND*
X17000000Y-93000000D03*
G04 #@! TD*
G04 #@! TO.P,STITCH11,1*
G04 #@! TO.N,GND*
X25000000Y-81000000D03*
G04 #@! TD*
D23*
G04 #@! TO.P,C8,1*
G04 #@! TO.N,/~{RESET}*
X32080000Y-50800000D03*
G04 #@! TO.P,C8,2*
G04 #@! TO.N,GND*
X31120000Y-50800000D03*
G04 #@! TD*
D10*
G04 #@! TO.P,STITCH16,1*
G04 #@! TO.N,GND*
X34900000Y-63100000D03*
G04 #@! TD*
D24*
G04 #@! TO.P,C5,1*
G04 #@! TO.N,+3V3*
X35400000Y-53350000D03*
G04 #@! TO.P,C5,2*
G04 #@! TO.N,GND*
X35400000Y-51450000D03*
G04 #@! TD*
D10*
G04 #@! TO.P,STITCH21,1*
G04 #@! TO.N,GND*
X36500000Y-89000000D03*
G04 #@! TD*
G04 #@! TO.P,STITCH10,1*
G04 #@! TO.N,GND*
X35300000Y-54900000D03*
G04 #@! TD*
G04 #@! TO.P,STITCH12,1*
G04 #@! TO.N,GND*
X17000000Y-71100000D03*
G04 #@! TD*
G04 #@! TO.P,STITCH3,1*
G04 #@! TO.N,GND*
X43700000Y-28740000D03*
G04 #@! TD*
G04 #@! TO.P,STITCH9,1*
G04 #@! TO.N,GND*
X39220000Y-26100000D03*
G04 #@! TD*
G04 #@! TO.P,STITCH12,1*
G04 #@! TO.N,GND*
X44100000Y-71500000D03*
G04 #@! TD*
G04 #@! TO.P,STITCH10,1*
G04 #@! TO.N,GND*
X31100000Y-48000000D03*
G04 #@! TD*
G04 #@! TO.P,STITCH28,1*
G04 #@! TO.N,GND*
X25000000Y-93000000D03*
G04 #@! TD*
G04 #@! TO.P,STITCH26,1*
G04 #@! TO.N,GND*
X40700000Y-96800000D03*
G04 #@! TD*
G04 #@! TO.P,STITCH10,1*
G04 #@! TO.N,GND*
X24100000Y-52500000D03*
G04 #@! TD*
D13*
G04 #@! TO.P,FID2,*
G04 #@! TO.N,*
X43500000Y-74500000D03*
G04 #@! TD*
D10*
G04 #@! TO.P,STITCH15,1*
G04 #@! TO.N,GND*
X42500000Y-39500000D03*
G04 #@! TD*
G04 #@! TO.P,STITCH20,1*
G04 #@! TO.N,GND*
X36500000Y-85000000D03*
G04 #@! TD*
G04 #@! TO.P,STITCH22,1*
G04 #@! TO.N,GND*
X34000000Y-96800000D03*
G04 #@! TD*
D25*
G04 #@! TO.P,C3,1*
G04 #@! TO.N,+3V3*
X39120000Y-49800000D03*
G04 #@! TO.P,C3,2*
G04 #@! TO.N,GND*
X40080000Y-49800000D03*
G04 #@! TD*
D10*
G04 #@! TO.P,STITCH12,1*
G04 #@! TO.N,GND*
X36500000Y-77000000D03*
G04 #@! TD*
D17*
G04 #@! TO.P,J3,1,IO1*
G04 #@! TO.N,/PMOD1*
X40500000Y-30000000D03*
D18*
G04 #@! TO.P,J3,2,IO2*
G04 #@! TO.N,/PMOD2*
X37960000Y-30000000D03*
G04 #@! TO.P,J3,3,IO3*
G04 #@! TO.N,/PMOD3*
X35420000Y-30000000D03*
G04 #@! TO.P,J3,4,IO4*
G04 #@! TO.N,/PMOD4*
X32880000Y-30000000D03*
G04 #@! TO.P,J3,5,GND*
G04 #@! TO.N,GND*
X30340000Y-30000000D03*
D19*
G04 #@! TO.P,J3,6,VCC*
G04 #@! TO.N,+3V3*
X27800000Y-30000000D03*
D18*
G04 #@! TO.P,J3,7,IO5*
G04 #@! TO.N,/PMOD5*
X40500000Y-27460000D03*
G04 #@! TO.P,J3,8,IO6*
G04 #@! TO.N,/PMOD6*
X37960000Y-27460000D03*
G04 #@! TO.P,J3,9,IO7*
G04 #@! TO.N,/PMOD7*
X35420000Y-27460000D03*
G04 #@! TO.P,J3,10,IO8*
G04 #@! TO.N,/PMOD8*
X32880000Y-27460000D03*
G04 #@! TO.P,J3,11,GND*
G04 #@! TO.N,GND*
X30340000Y-27460000D03*
G04 #@! TO.P,J3,12,VCC*
G04 #@! TO.N,+3V3*
X27800000Y-27460000D03*
G04 #@! TD*
D10*
G04 #@! TO.P,STITCH12,1*
G04 #@! TO.N,GND*
X44100000Y-77000000D03*
G04 #@! TD*
G04 #@! TO.P,STITCH10,1*
G04 #@! TO.N,GND*
X17000000Y-85000000D03*
G04 #@! TD*
G04 #@! TO.P,STITCH15,1*
G04 #@! TO.N,GND*
X44200000Y-41400000D03*
G04 #@! TD*
G04 #@! TO.P,STITCH15,1*
G04 #@! TO.N,GND*
X40550000Y-40900000D03*
G04 #@! TD*
D26*
G04 #@! TO.P,J1,1,VIN*
G04 #@! TO.N,+3V3*
X22500000Y-61370000D03*
G04 #@! TO.P,J1,2,CLK*
G04 #@! TO.N,/CTRL_CLK*
X22500000Y-65370000D03*
G04 #@! TO.P,J1,3,LATCH*
G04 #@! TO.N,/CTRL_LATCH*
X22500000Y-69370000D03*
G04 #@! TO.P,J1,4,DATA*
G04 #@! TO.N,/CTRL_DAT1*
X22500000Y-73370000D03*
G04 #@! TO.P,J1,5*
G04 #@! TO.N,N/C*
X22500000Y-79870000D03*
G04 #@! TO.P,J1,6*
X22500000Y-83870000D03*
G04 #@! TO.P,J1,7,GND*
G04 #@! TO.N,GND*
X22500000Y-87870000D03*
G04 #@! TD*
D10*
G04 #@! TO.P,STITCH15,1*
G04 #@! TO.N,GND*
X35000000Y-59100000D03*
G04 #@! TD*
D27*
G04 #@! TO.P,D1,1,K*
G04 #@! TO.N,GND*
X29212500Y-42700000D03*
G04 #@! TO.P,D1,2,A*
G04 #@! TO.N,Net-(D1-A)*
X30787500Y-42700000D03*
G04 #@! TD*
D10*
G04 #@! TO.P,STITCH19,1*
G04 #@! TO.N,GND*
X36500000Y-81000000D03*
G04 #@! TD*
D12*
G04 #@! TO.P,R3,1*
G04 #@! TO.N,Net-(D1-A)*
X31100000Y-45690000D03*
G04 #@! TO.P,R3,2*
G04 #@! TO.N,/TX*
X31100000Y-46710000D03*
G04 #@! TD*
D10*
G04 #@! TO.P,STITCH18,1*
G04 #@! TO.N,GND*
X35000000Y-71100000D03*
G04 #@! TD*
D28*
G04 #@! TO.P,U1,1,PD7/~{RST}*
G04 #@! TO.N,/~{RESET}*
X35250000Y-49650000D03*
G04 #@! TO.P,U1,2,PA1/OSCI*
G04 #@! TO.N,unconnected-(U1-PA1{slash}OSCI-Pad2)*
X35650000Y-49650000D03*
G04 #@! TO.P,U1,3,PA2/OSCO*
G04 #@! TO.N,unconnected-(U1-PA2{slash}OSCO-Pad3)*
X36050000Y-49650000D03*
G04 #@! TO.P,U1,4,VSS*
G04 #@! TO.N,GND*
X36450000Y-49650000D03*
G04 #@! TO.P,U1,5,PD0*
G04 #@! TO.N,/PMOD5*
X36850000Y-49650000D03*
D29*
G04 #@! TO.P,U1,6,VDD*
G04 #@! TO.N,+3V3*
X37500000Y-49000000D03*
G04 #@! TO.P,U1,7,PC0*
G04 #@! TO.N,/CTRL_DAT1*
X37500000Y-48600000D03*
G04 #@! TO.P,U1,8,PC1/SDA*
G04 #@! TO.N,/CTRL_DAT2*
X37500000Y-48200000D03*
G04 #@! TO.P,U1,9,PC2/SCL*
G04 #@! TO.N,/CTRL_CLK*
X37500000Y-47800000D03*
G04 #@! TO.P,U1,10,PC3*
G04 #@! TO.N,/CTRL_LATCH*
X37500000Y-47400000D03*
D28*
G04 #@! TO.P,U1,11,PC4/MCO*
G04 #@! TO.N,/PMOD1*
X36850000Y-46750000D03*
G04 #@! TO.P,U1,12,PC5/SCK*
G04 #@! TO.N,/PMOD6*
X36450000Y-46750000D03*
G04 #@! TO.P,U1,13,PC6/MOSI*
G04 #@! TO.N,/PMOD2*
X36050000Y-46750000D03*
G04 #@! TO.P,U1,14,PC7/MISO*
G04 #@! TO.N,/PMOD7*
X35650000Y-46750000D03*
G04 #@! TO.P,U1,15,PD1/SWIO*
G04 #@! TO.N,/SWDIO*
X35250000Y-46750000D03*
D29*
G04 #@! TO.P,U1,16,PD2/A3*
G04 #@! TO.N,/PMOD3*
X34600000Y-47400000D03*
G04 #@! TO.P,U1,17,PD3/A4*
G04 #@! TO.N,/PMOD8*
X34600000Y-47800000D03*
G04 #@! TO.P,U1,18,PD4/A7*
G04 #@! TO.N,/PMOD4*
X34600000Y-48200000D03*
G04 #@! TO.P,U1,19,PD5/UTX*
G04 #@! TO.N,/TX*
X34600000Y-48600000D03*
G04 #@! TO.P,U1,20,PD6/URX*
G04 #@! TO.N,/RX*
X34600000Y-49000000D03*
D30*
G04 #@! TO.P,U1,21,VSS*
G04 #@! TO.N,GND*
X36050000Y-48200000D03*
G04 #@! TD*
D10*
G04 #@! TO.P,STITCH6,1*
G04 #@! TO.N,GND*
X24700000Y-26500000D03*
G04 #@! TD*
D13*
G04 #@! TO.P,FID1,*
G04 #@! TO.N,*
X18000000Y-96000000D03*
G04 #@! TD*
D14*
G04 #@! TO.P,C1,1*
G04 #@! TO.N,+3V3*
X38200000Y-51250000D03*
G04 #@! TO.P,C1,2*
G04 #@! TO.N,GND*
X38200000Y-53150000D03*
G04 #@! TD*
D10*
G04 #@! TO.P,STITCH10,1*
G04 #@! TO.N,GND*
X24400000Y-39000000D03*
G04 #@! TD*
D31*
G04 #@! TO.P,R2,1*
G04 #@! TO.N,Net-(R1-Pad2)*
X40310000Y-46400000D03*
G04 #@! TO.P,R2,2*
G04 #@! TO.N,/~{RESET}*
X39290000Y-46400000D03*
G04 #@! TD*
D10*
G04 #@! TO.P,STITCH25,1*
G04 #@! TO.N,GND*
X37500000Y-96800000D03*
G04 #@! TD*
G04 #@! TO.P,STITCH14,1*
G04 #@! TO.N,GND*
X17000000Y-63100000D03*
G04 #@! TD*
D26*
G04 #@! TO.P,J2,1,VIN*
G04 #@! TO.N,+3V3*
X39000000Y-61370000D03*
G04 #@! TO.P,J2,2,CLK*
G04 #@! TO.N,/CTRL_CLK*
X39000000Y-65370000D03*
G04 #@! TO.P,J2,3,LATCH*
G04 #@! TO.N,/CTRL_LATCH*
X39000000Y-69370000D03*
G04 #@! TO.P,J2,4,DATA*
G04 #@! TO.N,/CTRL_DAT2*
X39000000Y-73370000D03*
G04 #@! TO.P,J2,5*
G04 #@! TO.N,N/C*
X39000000Y-79870000D03*
G04 #@! TO.P,J2,6*
X39000000Y-83870000D03*
G04 #@! TO.P,J2,7,GND*
G04 #@! TO.N,GND*
X39000000Y-87870000D03*
G04 #@! TD*
D10*
G04 #@! TO.P,STITCH24,1*
G04 #@! TO.N,GND*
X17000000Y-89000000D03*
G04 #@! TD*
D32*
G04 #@! TO.N,GND*
X30300000Y-25900000D03*
X38200000Y-54400000D03*
X26100000Y-37500000D03*
X30000000Y-55300000D03*
X37500000Y-41200000D03*
X30400000Y-41500000D03*
X40600000Y-44200000D03*
X30300000Y-33000000D03*
X40550001Y-49807589D03*
X37394669Y-44794669D03*
X41000000Y-53200000D03*
X30100000Y-50800000D03*
X25800000Y-29100000D03*
X40000000Y-54600000D03*
X37266100Y-52750000D03*
G04 #@! TO.N,+3V3*
X26725000Y-61025000D03*
X28850000Y-53694919D03*
X26724996Y-52100000D03*
X39300000Y-51750000D03*
X42300000Y-37600000D03*
X34400000Y-53700000D03*
X26725000Y-59900000D03*
D33*
G04 #@! TO.N,/~{RESET}*
X39549998Y-40250000D03*
X24900000Y-40300000D03*
X32100000Y-52800000D03*
X25500000Y-52100000D03*
X34289999Y-52650000D03*
D34*
G04 #@! TO.N,/CTRL_LATCH*
X44000000Y-47000000D03*
X38601870Y-46972060D03*
G04 #@! TO.N,/CTRL_DAT1*
X42000004Y-49000002D03*
X36000000Y-72800000D03*
X41925000Y-57400000D03*
X36500000Y-57400000D03*
X39600000Y-49000000D03*
G04 #@! TO.N,/CTRL_CLK*
X39385113Y-47534390D03*
X43007496Y-47450000D03*
G04 #@! TO.N,/CTRL_DAT2*
X44475000Y-48200000D03*
X38944425Y-48319118D03*
G04 #@! TO.N,/PMOD4*
X31730000Y-43800000D03*
G04 #@! TO.N,/PMOD5*
X41400000Y-51200000D03*
X36815310Y-50989286D03*
G04 #@! TO.N,/TX*
X31500000Y-46900000D03*
X32949311Y-48373278D03*
G04 #@! TO.N,/SWDIO*
X35000000Y-45400000D03*
G04 #@! TO.N,/RX*
X31600010Y-49200000D03*
D33*
G04 #@! TO.N,Net-(R1-Pad2)*
X40100000Y-43400000D03*
X43200000Y-43400000D03*
G04 #@! TD*
G04 #@! TO.N,GND*
D35*
X38200000Y-53150000D02*
X38200000Y-54400000D01*
X25725000Y-29025000D02*
X25800000Y-29100000D01*
X29950000Y-53400000D02*
X31100000Y-53400000D01*
X37550000Y-44639338D02*
X37394669Y-44794669D01*
X35400000Y-51450000D02*
X35966100Y-51450000D01*
D36*
X44250000Y-46050000D02*
X44300000Y-46000000D01*
X40550000Y-40900000D02*
X40800000Y-41150000D01*
X30000000Y-53350000D02*
X29950000Y-53400000D01*
D35*
X37550000Y-41250000D02*
X37500000Y-41200000D01*
D36*
X42150000Y-46050000D02*
X44250000Y-46050000D01*
D35*
X30300000Y-33000000D02*
X30300000Y-30040000D01*
D36*
X42700000Y-48550000D02*
X42150000Y-48000000D01*
D35*
X40000000Y-53175000D02*
X40000000Y-54600000D01*
X41000000Y-53200000D02*
X40775000Y-52975000D01*
X29950000Y-55250000D02*
X30000000Y-55300000D01*
X30340000Y-36000000D02*
X30340000Y-33040000D01*
X31100000Y-53400000D02*
X31300000Y-53600000D01*
D36*
X28040000Y-50400000D02*
X28040000Y-52000000D01*
D35*
X40775000Y-52975000D02*
X40775000Y-50032588D01*
D36*
X28040000Y-50400000D02*
X29700000Y-50400000D01*
D35*
X31300000Y-53600000D02*
X31300000Y-54800000D01*
X25950000Y-37350000D02*
X26100000Y-37500000D01*
X36450000Y-50400000D02*
X35400000Y-51450000D01*
D36*
X42150000Y-48000000D02*
X42150000Y-46050000D01*
D35*
X36450000Y-48600000D02*
X36050000Y-48200000D01*
X29950000Y-53400000D02*
X29950000Y-55250000D01*
X35966100Y-51450000D02*
X37266100Y-52750000D01*
D36*
X42000000Y-58600000D02*
X42700000Y-57900000D01*
D35*
X30340000Y-25940000D02*
X30300000Y-25900000D01*
X40542412Y-49800000D02*
X40550001Y-49807589D01*
X40775000Y-50032588D02*
X40550001Y-49807589D01*
X31120000Y-50800000D02*
X30100000Y-50800000D01*
D36*
X28040000Y-52000000D02*
X30000000Y-52000000D01*
D35*
X40000000Y-53175000D02*
X40975000Y-53175000D01*
D36*
X42700000Y-57900000D02*
X42700000Y-48550000D01*
D35*
X24400000Y-29025000D02*
X25725000Y-29025000D01*
X37550000Y-43200000D02*
X37550000Y-41250000D01*
X24400000Y-37350000D02*
X25950000Y-37350000D01*
X30340000Y-38540000D02*
X30340000Y-41440000D01*
X36450000Y-49650000D02*
X36450000Y-50400000D01*
D37*
X40800000Y-44000000D02*
X40600000Y-44200000D01*
D35*
X30340000Y-33040000D02*
X30300000Y-33000000D01*
D37*
X40800000Y-41150000D02*
X40800000Y-44000000D01*
D35*
X37550000Y-43200000D02*
X37550000Y-44639338D01*
X40975000Y-53175000D02*
X41000000Y-53200000D01*
X30300000Y-30040000D02*
X30340000Y-30000000D01*
D36*
X29700000Y-50400000D02*
X30100000Y-50800000D01*
D35*
X30340000Y-27460000D02*
X30340000Y-25940000D01*
X30340000Y-41440000D02*
X30400000Y-41500000D01*
X40080000Y-49800000D02*
X40542412Y-49800000D01*
X36450000Y-49650000D02*
X36450000Y-48600000D01*
D36*
X30000000Y-52000000D02*
X30000000Y-53350000D01*
G04 #@! TO.N,+3V3*
D35*
X38700000Y-51750000D02*
X39300000Y-51750000D01*
D38*
X27800000Y-38540000D02*
X26725000Y-39615000D01*
D37*
X24400000Y-30575000D02*
X27225000Y-30575000D01*
D35*
X28555081Y-53400000D02*
X28850000Y-53694919D01*
X40000000Y-51625000D02*
X39425000Y-51625000D01*
X42390000Y-37690000D02*
X42300000Y-37600000D01*
D38*
X26725000Y-39615000D02*
X26725000Y-49000000D01*
D35*
X38700000Y-49800000D02*
X39120000Y-49800000D01*
X27225000Y-30575000D02*
X27800000Y-30000000D01*
X28050000Y-53400000D02*
X26750000Y-52100000D01*
X28050000Y-53400000D02*
X28555081Y-53400000D01*
D38*
X26725000Y-61025000D02*
X26800000Y-61100000D01*
X27800000Y-27460000D02*
X27800000Y-38540000D01*
X26725000Y-53400000D02*
X26725000Y-61025000D01*
D35*
X39120000Y-50330000D02*
X39120000Y-49800000D01*
X35050000Y-53700000D02*
X35400000Y-53350000D01*
X26750000Y-52100000D02*
X26724996Y-52100000D01*
D38*
X28040000Y-47860000D02*
X26900000Y-49000000D01*
D35*
X28050000Y-53400000D02*
X26725000Y-53400000D01*
D38*
X26900000Y-49000000D02*
X26725000Y-49000000D01*
D35*
X38200000Y-51250000D02*
X38700000Y-51750000D01*
D38*
X26725000Y-49000000D02*
X26725000Y-53400000D01*
D35*
X34400000Y-53700000D02*
X35050000Y-53700000D01*
X39425000Y-51625000D02*
X39300000Y-51750000D01*
X37900000Y-49000000D02*
X38700000Y-49800000D01*
D37*
X24400000Y-35450000D02*
X27250000Y-35450000D01*
D35*
X38200000Y-51250000D02*
X39120000Y-50330000D01*
X37500000Y-49000000D02*
X37900000Y-49000000D01*
X43700000Y-37690000D02*
X42390000Y-37690000D01*
X27250000Y-35450000D02*
X27800000Y-36000000D01*
G04 #@! TO.N,/~{RESET}*
X32080000Y-50800000D02*
X32080000Y-52780000D01*
X39400000Y-46290000D02*
X39400000Y-40399998D01*
X24200000Y-41000000D02*
X24200000Y-50800000D01*
X24200000Y-50800000D02*
X25500000Y-52100000D01*
X35250000Y-50050000D02*
X34289999Y-51010001D01*
X39400000Y-40399998D02*
X39549998Y-40250000D01*
X35250000Y-49650000D02*
X35250000Y-50050000D01*
X24900000Y-40300000D02*
X24200000Y-41000000D01*
X32080000Y-52780000D02*
X32100000Y-52800000D01*
X34289999Y-51010001D02*
X34289999Y-52650000D01*
X39290000Y-46400000D02*
X39400000Y-46290000D01*
G04 #@! TO.N,/CTRL_LATCH*
D36*
X39240000Y-69130000D02*
X40400000Y-69130000D01*
X43750000Y-47250000D02*
X44000000Y-47000000D01*
X39000000Y-69370000D02*
X39240000Y-69130000D01*
D35*
X38173930Y-47400000D02*
X38601870Y-46972060D01*
X37500000Y-47400000D02*
X38173930Y-47400000D01*
D36*
X40400000Y-69130000D02*
X43750000Y-65780000D01*
X43750000Y-65780000D02*
X43750000Y-47250000D01*
G04 #@! TO.N,/CTRL_DAT1*
X36000000Y-57900000D02*
X36500000Y-57400000D01*
D35*
X38670712Y-49000000D02*
X39600000Y-49000000D01*
D36*
X36000000Y-72800000D02*
X36000000Y-57900000D01*
X42150000Y-49149998D02*
X42150000Y-57175000D01*
X42150000Y-57175000D02*
X41925000Y-57400000D01*
X42000004Y-49000002D02*
X42150000Y-49149998D01*
D35*
X38270712Y-48600000D02*
X38670712Y-49000000D01*
X37500000Y-48600000D02*
X38270712Y-48600000D01*
G04 #@! TO.N,/CTRL_CLK*
D36*
X40470000Y-65230000D02*
X43200000Y-62500000D01*
X43200000Y-47642504D02*
X43007496Y-47450000D01*
D35*
X39355882Y-47644118D02*
X39385113Y-47614887D01*
X38664830Y-47644118D02*
X39355882Y-47644118D01*
D36*
X39000000Y-65230000D02*
X40470000Y-65230000D01*
D35*
X38508948Y-47800000D02*
X38664830Y-47644118D01*
D36*
X43200000Y-62500000D02*
X43200000Y-47642504D01*
D35*
X39385113Y-47614887D02*
X39385113Y-47534390D01*
X37500000Y-47800000D02*
X38508948Y-47800000D01*
G04 #@! TO.N,/CTRL_DAT2*
D36*
X39420000Y-72950000D02*
X39000000Y-73370000D01*
D35*
X38825307Y-48200000D02*
X38944425Y-48319118D01*
D36*
X41000000Y-72950000D02*
X39420000Y-72950000D01*
X44650000Y-69300000D02*
X41000000Y-72950000D01*
D35*
X37500000Y-48200000D02*
X38825307Y-48200000D01*
D36*
X44475000Y-48200000D02*
X44650000Y-48375000D01*
X44650000Y-48375000D02*
X44650000Y-69300000D01*
G04 #@! TO.N,/PMOD8*
D35*
X32880000Y-46601360D02*
X32880000Y-38540000D01*
X34150000Y-36596346D02*
X34150000Y-28730000D01*
X34600000Y-47800000D02*
X34078640Y-47800000D01*
X32880000Y-37866346D02*
X34150000Y-36596346D01*
X34078640Y-47800000D02*
X32880000Y-46601360D01*
X34150000Y-28730000D02*
X32880000Y-27460000D01*
X32880000Y-38540000D02*
X32880000Y-37866346D01*
G04 #@! TO.N,/PMOD4*
X31730000Y-44200000D02*
X31730000Y-43800000D01*
D37*
X32880000Y-36000000D02*
X32880000Y-30000000D01*
D35*
X31730000Y-43800000D02*
X31650000Y-43720000D01*
X31650000Y-37230000D02*
X32880000Y-36000000D01*
X33912954Y-48200000D02*
X31730000Y-46017046D01*
X31730000Y-46017046D02*
X31730000Y-44200000D01*
X34600000Y-48200000D02*
X33912954Y-48200000D01*
X31650000Y-43720000D02*
X31650000Y-37230000D01*
G04 #@! TO.N,/PMOD7*
X35420000Y-37866346D02*
X36700000Y-36586346D01*
X35650000Y-38770000D02*
X35420000Y-38540000D01*
X35650000Y-46750000D02*
X35650000Y-38770000D01*
X35420000Y-38540000D02*
X35420000Y-37866346D01*
X36700000Y-36586346D02*
X36700000Y-28740000D01*
X36700000Y-28740000D02*
X35420000Y-27460000D01*
G04 #@! TO.N,/PMOD2*
X36050000Y-46750000D02*
X36050000Y-40150000D01*
X36700000Y-37260000D02*
X37960000Y-36000000D01*
D37*
X37960000Y-36000000D02*
X37960000Y-30000000D01*
D35*
X36700000Y-39500000D02*
X36700000Y-37260000D01*
X36050000Y-40150000D02*
X36700000Y-39500000D01*
G04 #@! TO.N,/PMOD3*
X34090000Y-47190000D02*
X34090000Y-37330000D01*
X34600000Y-47400000D02*
X34300000Y-47400000D01*
X34090000Y-37330000D02*
X35420000Y-36000000D01*
D37*
X35420000Y-36000000D02*
X35420000Y-30000000D01*
D35*
X34300000Y-47400000D02*
X34090000Y-47190000D01*
G04 #@! TO.N,/PMOD5*
X41650000Y-37150000D02*
X41650000Y-28610000D01*
X40500000Y-38300000D02*
X41650000Y-37150000D01*
X36850000Y-50954596D02*
X36815310Y-50989286D01*
X36850000Y-49650000D02*
X36850000Y-50954596D01*
X40500000Y-38540000D02*
X40500000Y-38300000D01*
X41350000Y-51150000D02*
X41400000Y-51200000D01*
X41650000Y-28610000D02*
X40500000Y-27460000D01*
X41350000Y-39390000D02*
X41350000Y-51150000D01*
X40500000Y-38540000D02*
X41350000Y-39390000D01*
G04 #@! TO.N,/PMOD1*
X36850000Y-46400000D02*
X38750000Y-44500000D01*
D37*
X40500000Y-36000000D02*
X40500000Y-30000000D01*
D35*
X39200000Y-39380761D02*
X39200000Y-37300000D01*
X38750000Y-39830761D02*
X39200000Y-39380761D01*
X39200000Y-37300000D02*
X40500000Y-36000000D01*
X36850000Y-46750000D02*
X36850000Y-46400000D01*
X38750000Y-44500000D02*
X38750000Y-39830761D01*
G04 #@! TO.N,/PMOD6*
X36450000Y-40950000D02*
X37960000Y-39440000D01*
X37960000Y-37626346D02*
X39250000Y-36336346D01*
X39250000Y-36336346D02*
X39250000Y-28750000D01*
X37960000Y-39440000D02*
X37960000Y-38540000D01*
X39250000Y-28750000D02*
X37960000Y-27460000D01*
X37960000Y-38540000D02*
X37960000Y-37626346D01*
X36450000Y-46750000D02*
X36450000Y-40950000D01*
G04 #@! TO.N,/TX*
X34600000Y-48600000D02*
X33176033Y-48600000D01*
D37*
X31310000Y-46710000D02*
X31500000Y-46900000D01*
X31100000Y-46710000D02*
X31310000Y-46710000D01*
D35*
X33176033Y-48600000D02*
X32949311Y-48373278D01*
G04 #@! TO.N,/SWDIO*
X35250000Y-45650000D02*
X35250000Y-46725000D01*
X35225000Y-45625000D02*
X35250000Y-45650000D01*
D37*
X35000000Y-45400000D02*
X35225000Y-45625000D01*
G04 #@! TO.N,/RX*
D35*
X31800010Y-49000000D02*
X31600010Y-49200000D01*
X34600000Y-49000000D02*
X31800010Y-49000000D01*
G04 #@! TO.N,Net-(R1-Pad2)*
X43850000Y-43400000D02*
X44050000Y-43200000D01*
X43100000Y-43400000D02*
X43850000Y-43400000D01*
X39850000Y-45940000D02*
X40310000Y-46400000D01*
X43400000Y-43100000D02*
X43100000Y-43400000D01*
X39850000Y-43650000D02*
X39850000Y-45940000D01*
X43700000Y-38710000D02*
X43400000Y-39010000D01*
X40100000Y-43400000D02*
X39850000Y-43650000D01*
X43400000Y-39010000D02*
X43400000Y-43100000D01*
G04 #@! TO.N,Net-(D1-A)*
X31100000Y-45690000D02*
X30787500Y-45377500D01*
X30787500Y-45377500D02*
X30787500Y-42700000D01*
G04 #@! TD*
G04 #@! TA.AperFunction,Conductor*
G04 #@! TO.N,GND*
G36*
X26542539Y-35945185D02*
G01*
X26588294Y-35997989D01*
X26599500Y-36049500D01*
X26599500Y-36094486D01*
X26629059Y-36281118D01*
X26687454Y-36460836D01*
X26773240Y-36629199D01*
X26884310Y-36782073D01*
X27017927Y-36915690D01*
X27170801Y-37026760D01*
X27206794Y-37045099D01*
X27217858Y-37055548D01*
X27231703Y-37061871D01*
X27242743Y-37079050D01*
X27257590Y-37093072D01*
X27261831Y-37108752D01*
X27269477Y-37120649D01*
X27274500Y-37155584D01*
X27274500Y-37384415D01*
X27254815Y-37451454D01*
X27206795Y-37494899D01*
X27170805Y-37513236D01*
X27100713Y-37564162D01*
X27017927Y-37624310D01*
X27017925Y-37624312D01*
X27017924Y-37624312D01*
X26884312Y-37757924D01*
X26884312Y-37757925D01*
X26884310Y-37757927D01*
X26836610Y-37823579D01*
X26773240Y-37910800D01*
X26687454Y-38079163D01*
X26629059Y-38258881D01*
X26599500Y-38445513D01*
X26599500Y-38634486D01*
X26629059Y-38821117D01*
X26641543Y-38859539D01*
X26643537Y-38929380D01*
X26611292Y-38985536D01*
X26402337Y-39194493D01*
X26304496Y-39292333D01*
X26304492Y-39292338D01*
X26235311Y-39412163D01*
X26235312Y-39412163D01*
X26235312Y-39412164D01*
X26235312Y-39412165D01*
X26204287Y-39527951D01*
X26199499Y-39545818D01*
X26199499Y-39694172D01*
X26199500Y-39694185D01*
X26199500Y-44126710D01*
X26179815Y-44193749D01*
X26127011Y-44239504D01*
X26057853Y-44249448D01*
X26019206Y-44237195D01*
X25960839Y-44207455D01*
X25781118Y-44149059D01*
X25594486Y-44119500D01*
X25594481Y-44119500D01*
X25405519Y-44119500D01*
X25405514Y-44119500D01*
X25218881Y-44149059D01*
X25039163Y-44207454D01*
X24870797Y-44293242D01*
X24847385Y-44310252D01*
X24781579Y-44333732D01*
X24713525Y-44317906D01*
X24664830Y-44267801D01*
X24650500Y-44209934D01*
X24650500Y-41237965D01*
X24659144Y-41208524D01*
X24665668Y-41178538D01*
X24669422Y-41173522D01*
X24670185Y-41170926D01*
X24686819Y-41150284D01*
X24850284Y-40986819D01*
X24911607Y-40953334D01*
X24937965Y-40950500D01*
X24964071Y-40950500D01*
X25048615Y-40933682D01*
X25089744Y-40925501D01*
X25208127Y-40876465D01*
X25314669Y-40805276D01*
X25405276Y-40714669D01*
X25476465Y-40608127D01*
X25525501Y-40489744D01*
X25550500Y-40364069D01*
X25550500Y-40235931D01*
X25550500Y-40235928D01*
X25525502Y-40110261D01*
X25525501Y-40110260D01*
X25525501Y-40110256D01*
X25476465Y-39991873D01*
X25476464Y-39991872D01*
X25476461Y-39991866D01*
X25405276Y-39885331D01*
X25405273Y-39885327D01*
X25314672Y-39794726D01*
X25314668Y-39794723D01*
X25208133Y-39723538D01*
X25208124Y-39723533D01*
X25089744Y-39674499D01*
X25089738Y-39674497D01*
X24964071Y-39649500D01*
X24964069Y-39649500D01*
X24835931Y-39649500D01*
X24835929Y-39649500D01*
X24710261Y-39674497D01*
X24710255Y-39674499D01*
X24591875Y-39723533D01*
X24591866Y-39723538D01*
X24485331Y-39794723D01*
X24485327Y-39794726D01*
X24394726Y-39885327D01*
X24394723Y-39885331D01*
X24323538Y-39991866D01*
X24323533Y-39991875D01*
X24274499Y-40110255D01*
X24274497Y-40110261D01*
X24249500Y-40235928D01*
X24249500Y-40262035D01*
X24229815Y-40329074D01*
X24213181Y-40349716D01*
X23839513Y-40723383D01*
X23839509Y-40723389D01*
X23780201Y-40826112D01*
X23780201Y-40826113D01*
X23780201Y-40826114D01*
X23749500Y-40940691D01*
X23749500Y-50859309D01*
X23764159Y-50914015D01*
X23766672Y-50923394D01*
X23766672Y-50923395D01*
X23780199Y-50973885D01*
X23805038Y-51016906D01*
X23839511Y-51076614D01*
X23839513Y-51076616D01*
X24813181Y-52050284D01*
X24846666Y-52111607D01*
X24849500Y-52137965D01*
X24849500Y-52164069D01*
X24849500Y-52164071D01*
X24849499Y-52164071D01*
X24874497Y-52289738D01*
X24874499Y-52289744D01*
X24923533Y-52408124D01*
X24923538Y-52408133D01*
X24994723Y-52514668D01*
X24994726Y-52514672D01*
X25085327Y-52605273D01*
X25085331Y-52605276D01*
X25191866Y-52676461D01*
X25191872Y-52676464D01*
X25191873Y-52676465D01*
X25310256Y-52725501D01*
X25310260Y-52725501D01*
X25310261Y-52725502D01*
X25435928Y-52750500D01*
X25435931Y-52750500D01*
X25564071Y-52750500D01*
X25648615Y-52733682D01*
X25689744Y-52725501D01*
X25808127Y-52676465D01*
X25914669Y-52605276D01*
X25954919Y-52565026D01*
X25964180Y-52559968D01*
X25970708Y-52551674D01*
X25994319Y-52543510D01*
X26016242Y-52531540D01*
X26026767Y-52532292D01*
X26036743Y-52528844D01*
X26061019Y-52534742D01*
X26085933Y-52536524D01*
X26096179Y-52543284D01*
X26104638Y-52545340D01*
X26123305Y-52561183D01*
X26132373Y-52567167D01*
X26139588Y-52574739D01*
X26142045Y-52578416D01*
X26164241Y-52600612D01*
X26165272Y-52601694D01*
X26180604Y-52631459D01*
X26196666Y-52660873D01*
X26196906Y-52663106D01*
X26197267Y-52663807D01*
X26197132Y-52665211D01*
X26199500Y-52687233D01*
X26199500Y-59312770D01*
X26179815Y-59379809D01*
X26163181Y-59400451D01*
X26142051Y-59421580D01*
X26142048Y-59421584D01*
X26059919Y-59544498D01*
X26059912Y-59544511D01*
X26003343Y-59681082D01*
X26003340Y-59681092D01*
X25974500Y-59826079D01*
X25974500Y-59826082D01*
X25974500Y-59973918D01*
X25974500Y-59973920D01*
X25974499Y-59973920D01*
X26003340Y-60118907D01*
X26003343Y-60118917D01*
X26059912Y-60255488D01*
X26059919Y-60255501D01*
X26142048Y-60378415D01*
X26145914Y-60383126D01*
X26143892Y-60384784D01*
X26171936Y-60436142D01*
X26166952Y-60505834D01*
X26144523Y-60540732D01*
X26145914Y-60541874D01*
X26142048Y-60546584D01*
X26059919Y-60669498D01*
X26059912Y-60669511D01*
X26003343Y-60806082D01*
X26003340Y-60806092D01*
X25974500Y-60951079D01*
X25974500Y-60951082D01*
X25974500Y-61098918D01*
X25974500Y-61098920D01*
X25974499Y-61098920D01*
X26003340Y-61243907D01*
X26003343Y-61243917D01*
X26059912Y-61380488D01*
X26059919Y-61380501D01*
X26142048Y-61503415D01*
X26142051Y-61503419D01*
X26246580Y-61607948D01*
X26246584Y-61607951D01*
X26369498Y-61690080D01*
X26369511Y-61690087D01*
X26422994Y-61712240D01*
X26506087Y-61746658D01*
X26506091Y-61746658D01*
X26506092Y-61746659D01*
X26651079Y-61775500D01*
X26651082Y-61775500D01*
X26798920Y-61775500D01*
X26896462Y-61756096D01*
X26943913Y-61746658D01*
X27080495Y-61690084D01*
X27203416Y-61607951D01*
X27307951Y-61503416D01*
X27390084Y-61380495D01*
X27446658Y-61243913D01*
X27475500Y-61098918D01*
X27475500Y-60951082D01*
X27475500Y-60951079D01*
X27446659Y-60806092D01*
X27446658Y-60806091D01*
X27446658Y-60806087D01*
X27446656Y-60806082D01*
X27390087Y-60669511D01*
X27390080Y-60669498D01*
X27307951Y-60546584D01*
X27304086Y-60541874D01*
X27306119Y-60540205D01*
X27278081Y-60488943D01*
X27283017Y-60419248D01*
X27305490Y-60384278D01*
X27304086Y-60383126D01*
X27307946Y-60378420D01*
X27307951Y-60378416D01*
X27390084Y-60255495D01*
X27446658Y-60118913D01*
X27475500Y-59973918D01*
X27475500Y-59826082D01*
X27475500Y-59826079D01*
X27446659Y-59681092D01*
X27446658Y-59681091D01*
X27446658Y-59681087D01*
X27433555Y-59649453D01*
X27390087Y-59544511D01*
X27390080Y-59544498D01*
X27307951Y-59421584D01*
X27307948Y-59421580D01*
X27286819Y-59400451D01*
X27253334Y-59339128D01*
X27250500Y-59312770D01*
X27250500Y-54461715D01*
X27270185Y-54394676D01*
X27322989Y-54348921D01*
X27392147Y-54338977D01*
X27449984Y-54363338D01*
X27497159Y-54399536D01*
X27643238Y-54460044D01*
X27760639Y-54475500D01*
X28339360Y-54475499D01*
X28339363Y-54475499D01*
X28456753Y-54460046D01*
X28456756Y-54460044D01*
X28456762Y-54460044D01*
X28550044Y-54421404D01*
X28619509Y-54413936D01*
X28627537Y-54415871D01*
X28776079Y-54445419D01*
X28776082Y-54445419D01*
X28923920Y-54445419D01*
X29021462Y-54426015D01*
X29068913Y-54416577D01*
X29071552Y-54415483D01*
X29073045Y-54415323D01*
X29074740Y-54414809D01*
X29074837Y-54415130D01*
X29141018Y-54408007D01*
X29203501Y-54439274D01*
X29206697Y-54442358D01*
X29231654Y-54467315D01*
X29380875Y-54559356D01*
X29380880Y-54559358D01*
X29547302Y-54614505D01*
X29547309Y-54614506D01*
X29650019Y-54624999D01*
X30200000Y-54624999D01*
X30249972Y-54624999D01*
X30249986Y-54624998D01*
X30352697Y-54614505D01*
X30519119Y-54559358D01*
X30519124Y-54559356D01*
X30668345Y-54467315D01*
X30792315Y-54343345D01*
X30884356Y-54194124D01*
X30884358Y-54194119D01*
X30939505Y-54027697D01*
X30939506Y-54027690D01*
X30949999Y-53924986D01*
X30950000Y-53924973D01*
X30950000Y-53650000D01*
X30200000Y-53650000D01*
X30200000Y-54624999D01*
X29650019Y-54624999D01*
X29699999Y-54624998D01*
X29700000Y-54624998D01*
X29700000Y-53150000D01*
X30200000Y-53150000D01*
X30949999Y-53150000D01*
X30949999Y-52875028D01*
X30949998Y-52875013D01*
X30939505Y-52772302D01*
X30884358Y-52605880D01*
X30884356Y-52605875D01*
X30792315Y-52456654D01*
X30668345Y-52332684D01*
X30519124Y-52240643D01*
X30519119Y-52240641D01*
X30352697Y-52185494D01*
X30352690Y-52185493D01*
X30249986Y-52175000D01*
X30200000Y-52175000D01*
X30200000Y-53150000D01*
X29700000Y-53150000D01*
X29700000Y-52175000D01*
X29699999Y-52174999D01*
X29650029Y-52175000D01*
X29650011Y-52175001D01*
X29547302Y-52185494D01*
X29380880Y-52240641D01*
X29380875Y-52240643D01*
X29231654Y-52332684D01*
X29107683Y-52456655D01*
X29107680Y-52456659D01*
X29019334Y-52599890D01*
X28967386Y-52646615D01*
X28898424Y-52657836D01*
X28834342Y-52629993D01*
X28815420Y-52610279D01*
X28815402Y-52610256D01*
X28752372Y-52528113D01*
X28728283Y-52496719D01*
X28721968Y-52491873D01*
X28602841Y-52400464D01*
X28520195Y-52366231D01*
X28456762Y-52339956D01*
X28456760Y-52339955D01*
X28339361Y-52324500D01*
X27760636Y-52324500D01*
X27689567Y-52333856D01*
X27685801Y-52333268D01*
X27682230Y-52334601D01*
X27651546Y-52327926D01*
X27620532Y-52323089D01*
X27616599Y-52320323D01*
X27613957Y-52319749D01*
X27585703Y-52298598D01*
X27511815Y-52224710D01*
X27478330Y-52163387D01*
X27475496Y-52137029D01*
X27475496Y-52026079D01*
X27450057Y-51898192D01*
X27456284Y-51828600D01*
X27499147Y-51773423D01*
X27565036Y-51750178D01*
X27571674Y-51750000D01*
X27790000Y-51750000D01*
X27790000Y-50833012D01*
X27847007Y-50865925D01*
X27974174Y-50900000D01*
X28105826Y-50900000D01*
X28232993Y-50865925D01*
X28290000Y-50833012D01*
X28290000Y-51750000D01*
X28937828Y-51750000D01*
X28937844Y-51749999D01*
X28997372Y-51743598D01*
X28997379Y-51743596D01*
X29132086Y-51693354D01*
X29132093Y-51693350D01*
X29247187Y-51607190D01*
X29247190Y-51607187D01*
X29333350Y-51492093D01*
X29333354Y-51492086D01*
X29383596Y-51357379D01*
X29383598Y-51357372D01*
X29389999Y-51297844D01*
X29390000Y-51297827D01*
X29390000Y-51050000D01*
X30341210Y-51050000D01*
X30342854Y-51070910D01*
X30387968Y-51226195D01*
X30470278Y-51365374D01*
X30470285Y-51365383D01*
X30584616Y-51479714D01*
X30584625Y-51479721D01*
X30723804Y-51562031D01*
X30870000Y-51604504D01*
X30870000Y-51050000D01*
X30341210Y-51050000D01*
X29390000Y-51050000D01*
X29390000Y-50650000D01*
X28473012Y-50650000D01*
X28505925Y-50592993D01*
X28517445Y-50549999D01*
X30341209Y-50549999D01*
X30341210Y-50550000D01*
X30870000Y-50550000D01*
X30870000Y-49995494D01*
X30869998Y-49995493D01*
X30723809Y-50037965D01*
X30723806Y-50037967D01*
X30584625Y-50120278D01*
X30584616Y-50120285D01*
X30470285Y-50234616D01*
X30470278Y-50234625D01*
X30387968Y-50373804D01*
X30387966Y-50373809D01*
X30342855Y-50529081D01*
X30342854Y-50529087D01*
X30341209Y-50549999D01*
X28517445Y-50549999D01*
X28540000Y-50465826D01*
X28540000Y-50334174D01*
X28505925Y-50207007D01*
X28473012Y-50150000D01*
X29390000Y-50150000D01*
X29390000Y-49502172D01*
X29389999Y-49502155D01*
X29383598Y-49442627D01*
X29383596Y-49442620D01*
X29333354Y-49307913D01*
X29333350Y-49307906D01*
X29247190Y-49192812D01*
X29247187Y-49192809D01*
X29132093Y-49106649D01*
X29132086Y-49106645D01*
X28997379Y-49056403D01*
X28997372Y-49056401D01*
X28937844Y-49050000D01*
X28826151Y-49050000D01*
X28759112Y-49030315D01*
X28713357Y-48977511D01*
X28703413Y-48908353D01*
X28732438Y-48844797D01*
X28753265Y-48825682D01*
X28754622Y-48824696D01*
X28822073Y-48775690D01*
X28955690Y-48642073D01*
X29066760Y-48489199D01*
X29152547Y-48320832D01*
X29210940Y-48141118D01*
X29214526Y-48118476D01*
X29240500Y-47954486D01*
X29240500Y-47765513D01*
X29210940Y-47578881D01*
X29152545Y-47399163D01*
X29107290Y-47310347D01*
X29066760Y-47230801D01*
X28955690Y-47077927D01*
X28822073Y-46944310D01*
X28669199Y-46833240D01*
X28662779Y-46829969D01*
X28500836Y-46747454D01*
X28426472Y-46723291D01*
X28379195Y-46707930D01*
X28321521Y-46668493D01*
X28294323Y-46604134D01*
X28306238Y-46535288D01*
X28353482Y-46483812D01*
X28379194Y-46472069D01*
X28500832Y-46432547D01*
X28669199Y-46346760D01*
X28822073Y-46235690D01*
X28955690Y-46102073D01*
X29066760Y-45949199D01*
X29149396Y-45787014D01*
X29152545Y-45780836D01*
X29152545Y-45780835D01*
X29152547Y-45780832D01*
X29210940Y-45601118D01*
X29230739Y-45476113D01*
X29240500Y-45414486D01*
X29240500Y-45225513D01*
X29210940Y-45038881D01*
X29178032Y-44937603D01*
X29152547Y-44859168D01*
X29152545Y-44859165D01*
X29152545Y-44859163D01*
X29066759Y-44690800D01*
X28955690Y-44537927D01*
X28822073Y-44404310D01*
X28669199Y-44293240D01*
X28623951Y-44270185D01*
X28500836Y-44207454D01*
X28321118Y-44149059D01*
X28134486Y-44119500D01*
X28134481Y-44119500D01*
X27945519Y-44119500D01*
X27945514Y-44119500D01*
X27758881Y-44149059D01*
X27579160Y-44207455D01*
X27430794Y-44283052D01*
X27362125Y-44295948D01*
X27297385Y-44269671D01*
X27257128Y-44212565D01*
X27250500Y-44172567D01*
X27250500Y-43004152D01*
X28275001Y-43004152D01*
X28285056Y-43102583D01*
X28337906Y-43262072D01*
X28337908Y-43262077D01*
X28426114Y-43405080D01*
X28544919Y-43523885D01*
X28687922Y-43612091D01*
X28687927Y-43612093D01*
X28847416Y-43664942D01*
X28945856Y-43674999D01*
X28962500Y-43674998D01*
X28962500Y-42950000D01*
X28275001Y-42950000D01*
X28275001Y-43004152D01*
X27250500Y-43004152D01*
X27250500Y-42395849D01*
X28275000Y-42395849D01*
X28275000Y-42450000D01*
X28962500Y-42450000D01*
X28962500Y-41724999D01*
X28945856Y-41725000D01*
X28847415Y-41735057D01*
X28687927Y-41787906D01*
X28687922Y-41787908D01*
X28544919Y-41876114D01*
X28426114Y-41994919D01*
X28337908Y-42137922D01*
X28337906Y-42137927D01*
X28285057Y-42297416D01*
X28275000Y-42395849D01*
X27250500Y-42395849D01*
X27250500Y-39884031D01*
X27259143Y-39854594D01*
X27265667Y-39824605D01*
X27269422Y-39819587D01*
X27270185Y-39816992D01*
X27286813Y-39796355D01*
X27354465Y-39728703D01*
X27415784Y-39695221D01*
X27480460Y-39698455D01*
X27518882Y-39710940D01*
X27571009Y-39719196D01*
X27705514Y-39740500D01*
X27705519Y-39740500D01*
X27894486Y-39740500D01*
X28081118Y-39710940D01*
X28086879Y-39709068D01*
X28260832Y-39652547D01*
X28429199Y-39566760D01*
X28582073Y-39455690D01*
X28715690Y-39322073D01*
X28826760Y-39169199D01*
X28875621Y-39073302D01*
X28923595Y-39022507D01*
X28991416Y-39005712D01*
X29057551Y-39028249D01*
X29096591Y-39073303D01*
X29185379Y-39247557D01*
X29310272Y-39419459D01*
X29310276Y-39419464D01*
X29460535Y-39569723D01*
X29460540Y-39569727D01*
X29632442Y-39694620D01*
X29821782Y-39791095D01*
X30023871Y-39856757D01*
X30090000Y-39867231D01*
X30090000Y-38973012D01*
X30147007Y-39005925D01*
X30274174Y-39040000D01*
X30405826Y-39040000D01*
X30532993Y-39005925D01*
X30590000Y-38973012D01*
X30590000Y-39867230D01*
X30656126Y-39856757D01*
X30656129Y-39856757D01*
X30858220Y-39791094D01*
X30858224Y-39791092D01*
X31019205Y-39709068D01*
X31087874Y-39696171D01*
X31152614Y-39722447D01*
X31192872Y-39779553D01*
X31199500Y-39819552D01*
X31199500Y-41753634D01*
X31179815Y-41820673D01*
X31127011Y-41866428D01*
X31059320Y-41876574D01*
X31043561Y-41874500D01*
X30531437Y-41874500D01*
X30420153Y-41889150D01*
X30420145Y-41889152D01*
X30281667Y-41946511D01*
X30178401Y-42025751D01*
X30113232Y-42050945D01*
X30044787Y-42036907D01*
X30004814Y-41999443D01*
X30003368Y-42000588D01*
X29998886Y-41994920D01*
X29880080Y-41876114D01*
X29737077Y-41787908D01*
X29737072Y-41787906D01*
X29577583Y-41735057D01*
X29479150Y-41725000D01*
X29462500Y-41725000D01*
X29462500Y-43674999D01*
X29479136Y-43674999D01*
X29479152Y-43674998D01*
X29577583Y-43664943D01*
X29737072Y-43612093D01*
X29737077Y-43612091D01*
X29880080Y-43523885D01*
X29998886Y-43405079D01*
X30003368Y-43399412D01*
X30004982Y-43400689D01*
X30008754Y-43397296D01*
X30016248Y-43383940D01*
X30034198Y-43374404D01*
X30049312Y-43360808D01*
X30064429Y-43358346D01*
X30077953Y-43351163D01*
X30098209Y-43352845D01*
X30118273Y-43349579D01*
X30133363Y-43355766D01*
X30147582Y-43356948D01*
X30178305Y-43374194D01*
X30178359Y-43374216D01*
X30281669Y-43453489D01*
X30281855Y-43453566D01*
X30288447Y-43458620D01*
X30304468Y-43480543D01*
X30323211Y-43500196D01*
X30325388Y-43509168D01*
X30329673Y-43515032D01*
X30330612Y-43530700D01*
X30337000Y-43557026D01*
X30337000Y-45436811D01*
X30345294Y-45467763D01*
X30345295Y-45467766D01*
X30347532Y-45476113D01*
X30367701Y-45551387D01*
X30416699Y-45636253D01*
X30419671Y-45643266D01*
X30422055Y-45663867D01*
X30429500Y-45691650D01*
X30429500Y-45871438D01*
X30429501Y-45871448D01*
X30435715Y-45929262D01*
X30435716Y-45929265D01*
X30484505Y-46060070D01*
X30533628Y-46125691D01*
X30558044Y-46191155D01*
X30543192Y-46259428D01*
X30533628Y-46274309D01*
X30484507Y-46339928D01*
X30484506Y-46339930D01*
X30484505Y-46339932D01*
X30444434Y-46447365D01*
X30435715Y-46470741D01*
X30429500Y-46528540D01*
X30429500Y-46891438D01*
X30429501Y-46891448D01*
X30435715Y-46949262D01*
X30435716Y-46949265D01*
X30484505Y-47080070D01*
X30484506Y-47080071D01*
X30568168Y-47191831D01*
X30679927Y-47275492D01*
X30679928Y-47275492D01*
X30679932Y-47275495D01*
X30810738Y-47324284D01*
X30868557Y-47330500D01*
X30923835Y-47330499D01*
X30990874Y-47350182D01*
X31011512Y-47366813D01*
X31043862Y-47399163D01*
X31069396Y-47424697D01*
X31069398Y-47424698D01*
X31180020Y-47498613D01*
X31180023Y-47498614D01*
X31180031Y-47498620D01*
X31180037Y-47498622D01*
X31180038Y-47498623D01*
X31223272Y-47516531D01*
X31302964Y-47549540D01*
X31302968Y-47549540D01*
X31302969Y-47549541D01*
X31433466Y-47575500D01*
X31433469Y-47575500D01*
X31566533Y-47575500D01*
X31654325Y-47558035D01*
X31697036Y-47549540D01*
X31819969Y-47498620D01*
X31930606Y-47424695D01*
X32024695Y-47330606D01*
X32093664Y-47227386D01*
X32147275Y-47182581D01*
X32216600Y-47173874D01*
X32279628Y-47204028D01*
X32284447Y-47208596D01*
X32655246Y-47579395D01*
X32688731Y-47640718D01*
X32683747Y-47710410D01*
X32641875Y-47766343D01*
X32634324Y-47771149D01*
X32634407Y-47771273D01*
X32518709Y-47848579D01*
X32518701Y-47848585D01*
X32424618Y-47942668D01*
X32424612Y-47942676D01*
X32350697Y-48053298D01*
X32350687Y-48053316D01*
X32299772Y-48176237D01*
X32299769Y-48176247D01*
X32273811Y-48306744D01*
X32273811Y-48425500D01*
X32254126Y-48492539D01*
X32201322Y-48538294D01*
X32149811Y-48549500D01*
X31804432Y-48549500D01*
X31780241Y-48547117D01*
X31706834Y-48532515D01*
X31666542Y-48524500D01*
X31666541Y-48524500D01*
X31533479Y-48524500D01*
X31533477Y-48524500D01*
X31402979Y-48550458D01*
X31402969Y-48550461D01*
X31280048Y-48601376D01*
X31280030Y-48601386D01*
X31169408Y-48675301D01*
X31169400Y-48675307D01*
X31075317Y-48769390D01*
X31075311Y-48769398D01*
X31001396Y-48880020D01*
X31001386Y-48880038D01*
X30950471Y-49002959D01*
X30950468Y-49002969D01*
X30924510Y-49133466D01*
X30924510Y-49133469D01*
X30924510Y-49266531D01*
X30924510Y-49266533D01*
X30924509Y-49266533D01*
X30950468Y-49397030D01*
X30950471Y-49397040D01*
X31001386Y-49519961D01*
X31001396Y-49519979D01*
X31075311Y-49630601D01*
X31075317Y-49630609D01*
X31169400Y-49724692D01*
X31169408Y-49724698D01*
X31280030Y-49798613D01*
X31280034Y-49798615D01*
X31280041Y-49798620D01*
X31306155Y-49809436D01*
X31360557Y-49853275D01*
X31382623Y-49919569D01*
X31370000Y-49969029D01*
X31370000Y-51604503D01*
X31470905Y-51575189D01*
X31540774Y-51575388D01*
X31599444Y-51613330D01*
X31628288Y-51676969D01*
X31629500Y-51694265D01*
X31629500Y-52299192D01*
X31609815Y-52366231D01*
X31598366Y-52380438D01*
X31598589Y-52380621D01*
X31594723Y-52385331D01*
X31523538Y-52491866D01*
X31523533Y-52491875D01*
X31474499Y-52610255D01*
X31474497Y-52610261D01*
X31449500Y-52735928D01*
X31449500Y-52735931D01*
X31449500Y-52864069D01*
X31449500Y-52864071D01*
X31449499Y-52864071D01*
X31474497Y-52989738D01*
X31474499Y-52989744D01*
X31523533Y-53108124D01*
X31523538Y-53108133D01*
X31594723Y-53214668D01*
X31594726Y-53214672D01*
X31685327Y-53305273D01*
X31685331Y-53305276D01*
X31791866Y-53376461D01*
X31791872Y-53376464D01*
X31791873Y-53376465D01*
X31910256Y-53425501D01*
X31910260Y-53425501D01*
X31910261Y-53425502D01*
X32035928Y-53450500D01*
X32035931Y-53450500D01*
X32164071Y-53450500D01*
X32248615Y-53433682D01*
X32289744Y-53425501D01*
X32408127Y-53376465D01*
X32514669Y-53305276D01*
X32605276Y-53214669D01*
X32676465Y-53108127D01*
X32725501Y-52989744D01*
X32750500Y-52864069D01*
X32750500Y-52735931D01*
X32750500Y-52735928D01*
X32725502Y-52610261D01*
X32725501Y-52610260D01*
X32725501Y-52610256D01*
X32685907Y-52514668D01*
X32676466Y-52491875D01*
X32676461Y-52491866D01*
X32605276Y-52385331D01*
X32605273Y-52385327D01*
X32566819Y-52346873D01*
X32533334Y-52285550D01*
X32530500Y-52259192D01*
X32530500Y-51411668D01*
X32550185Y-51344629D01*
X32566819Y-51323987D01*
X32570399Y-51320405D01*
X32570403Y-51320403D01*
X32654929Y-51207489D01*
X32704219Y-51075335D01*
X32710500Y-51016915D01*
X32710499Y-50583086D01*
X32704219Y-50524665D01*
X32703742Y-50523387D01*
X32654930Y-50392514D01*
X32654929Y-50392511D01*
X32570403Y-50279597D01*
X32485398Y-50215963D01*
X32457492Y-50195073D01*
X32457490Y-50195072D01*
X32457489Y-50195071D01*
X32457487Y-50195070D01*
X32457485Y-50195069D01*
X32325338Y-50145782D01*
X32325337Y-50145781D01*
X32325335Y-50145781D01*
X32266915Y-50139500D01*
X32266905Y-50139500D01*
X31893088Y-50139500D01*
X31893081Y-50139501D01*
X31834666Y-50145780D01*
X31797318Y-50159710D01*
X31727626Y-50164693D01*
X31680647Y-50143513D01*
X31617379Y-50097106D01*
X31599742Y-50074018D01*
X31579915Y-50052784D01*
X31578787Y-50046587D01*
X31574965Y-50041583D01*
X31572610Y-50012624D01*
X31567411Y-49984042D01*
X31569812Y-49978220D01*
X31569302Y-49971944D01*
X31582975Y-49946311D01*
X31594056Y-49919452D01*
X31599224Y-49915852D01*
X31602188Y-49910297D01*
X31627549Y-49896126D01*
X31651391Y-49879522D01*
X31662584Y-49876549D01*
X31663182Y-49876216D01*
X31663717Y-49876249D01*
X31666527Y-49875503D01*
X31735234Y-49861835D01*
X31797046Y-49849540D01*
X31919979Y-49798620D01*
X32030616Y-49724695D01*
X32124705Y-49630606D01*
X32198630Y-49519969D01*
X32198634Y-49519958D01*
X32200728Y-49516044D01*
X32249691Y-49466201D01*
X32310085Y-49450500D01*
X34673743Y-49450500D01*
X34673751Y-49450499D01*
X34675500Y-49450499D01*
X34742539Y-49470184D01*
X34788294Y-49522988D01*
X34799500Y-49574499D01*
X34799500Y-49812035D01*
X34779815Y-49879074D01*
X34763181Y-49899716D01*
X33929512Y-50733384D01*
X33929508Y-50733390D01*
X33870200Y-50836112D01*
X33869343Y-50839313D01*
X33839499Y-50950692D01*
X33839499Y-50950694D01*
X33839499Y-52129192D01*
X33819814Y-52196231D01*
X33803180Y-52216873D01*
X33784725Y-52235327D01*
X33784722Y-52235331D01*
X33713537Y-52341866D01*
X33713532Y-52341875D01*
X33664498Y-52460255D01*
X33664496Y-52460261D01*
X33639499Y-52585928D01*
X33639499Y-52585931D01*
X33639499Y-52714069D01*
X33639499Y-52714071D01*
X33639498Y-52714071D01*
X33664496Y-52839738D01*
X33664498Y-52839744D01*
X33713532Y-52958124D01*
X33713537Y-52958133D01*
X33784722Y-53064668D01*
X33784725Y-53064672D01*
X33794993Y-53074940D01*
X33828478Y-53136263D01*
X33823494Y-53205955D01*
X33810415Y-53231511D01*
X33734918Y-53344500D01*
X33734912Y-53344511D01*
X33678343Y-53481082D01*
X33678340Y-53481092D01*
X33649500Y-53626079D01*
X33649500Y-53626082D01*
X33649500Y-53773918D01*
X33649500Y-53773920D01*
X33649499Y-53773920D01*
X33678340Y-53918907D01*
X33678343Y-53918917D01*
X33734912Y-54055488D01*
X33734919Y-54055501D01*
X33817048Y-54178415D01*
X33817051Y-54178419D01*
X33921580Y-54282948D01*
X33921584Y-54282951D01*
X34044498Y-54365080D01*
X34044511Y-54365087D01*
X34167116Y-54415871D01*
X34181087Y-54421658D01*
X34181091Y-54421658D01*
X34181092Y-54421659D01*
X34326079Y-54450500D01*
X34326082Y-54450500D01*
X34473920Y-54450500D01*
X34571462Y-54431096D01*
X34618913Y-54421658D01*
X34755495Y-54365084D01*
X34878416Y-54282951D01*
X34917512Y-54243855D01*
X34924549Y-54236818D01*
X34985872Y-54203333D01*
X35012230Y-54200499D01*
X35914363Y-54200499D01*
X36031753Y-54185046D01*
X36031757Y-54185044D01*
X36031762Y-54185044D01*
X36177841Y-54124536D01*
X36303282Y-54028282D01*
X36399536Y-53902841D01*
X36460044Y-53756762D01*
X36475500Y-53639361D01*
X36475500Y-53449986D01*
X36975001Y-53449986D01*
X36985494Y-53552697D01*
X37040641Y-53719119D01*
X37040643Y-53719124D01*
X37132684Y-53868345D01*
X37256654Y-53992315D01*
X37405875Y-54084356D01*
X37405880Y-54084358D01*
X37572302Y-54139505D01*
X37572309Y-54139506D01*
X37675019Y-54149999D01*
X37949999Y-54149999D01*
X38450000Y-54149999D01*
X38724972Y-54149999D01*
X38724986Y-54149998D01*
X38827697Y-54139505D01*
X38994119Y-54084358D01*
X38994124Y-54084356D01*
X39143340Y-53992318D01*
X39144940Y-53990719D01*
X39146313Y-53989969D01*
X39149007Y-53987839D01*
X39149370Y-53988299D01*
X39206261Y-53957230D01*
X39275953Y-53962209D01*
X39297725Y-53972855D01*
X39441513Y-54061545D01*
X39441518Y-54061547D01*
X39602393Y-54114855D01*
X39701683Y-54124999D01*
X40250000Y-54124999D01*
X40298308Y-54124999D01*
X40298322Y-54124998D01*
X40397607Y-54114855D01*
X40558481Y-54061547D01*
X40558492Y-54061542D01*
X40702728Y-53972575D01*
X40702732Y-53972572D01*
X40822572Y-53852732D01*
X40822575Y-53852728D01*
X40911542Y-53708492D01*
X40911547Y-53708481D01*
X40964855Y-53547606D01*
X40974999Y-53448322D01*
X40975000Y-53448309D01*
X40975000Y-53425000D01*
X40250000Y-53425000D01*
X40250000Y-54124999D01*
X39701683Y-54124999D01*
X39749999Y-54124998D01*
X39750000Y-54124998D01*
X39750000Y-53425000D01*
X38971362Y-53425000D01*
X38904323Y-53405315D01*
X38897727Y-53400000D01*
X38450000Y-53400000D01*
X38450000Y-54149999D01*
X37949999Y-54149999D01*
X37950000Y-54149998D01*
X37950000Y-53400000D01*
X36975001Y-53400000D01*
X36975001Y-53449986D01*
X36475500Y-53449986D01*
X36475499Y-53060640D01*
X36475499Y-53060636D01*
X36460046Y-52943246D01*
X36460044Y-52943241D01*
X36460044Y-52943238D01*
X36399536Y-52797159D01*
X36303282Y-52671718D01*
X36303280Y-52671717D01*
X36303280Y-52671716D01*
X36189720Y-52584579D01*
X36148517Y-52528151D01*
X36144362Y-52458405D01*
X36178574Y-52397485D01*
X36200110Y-52380664D01*
X36343342Y-52292317D01*
X36343344Y-52292316D01*
X36467315Y-52168345D01*
X36559356Y-52019124D01*
X36559358Y-52019119D01*
X36614505Y-51852697D01*
X36614506Y-51852690D01*
X36622323Y-51776183D01*
X36648719Y-51711492D01*
X36705900Y-51671340D01*
X36745681Y-51664786D01*
X36881843Y-51664786D01*
X37018321Y-51637638D01*
X37018593Y-51639006D01*
X37081402Y-51638431D01*
X37140524Y-51675665D01*
X37162120Y-51710270D01*
X37198715Y-51798620D01*
X37200464Y-51802841D01*
X37265594Y-51887720D01*
X37296719Y-51928283D01*
X37410279Y-52015420D01*
X37451482Y-52071848D01*
X37455637Y-52141594D01*
X37421425Y-52202514D01*
X37399890Y-52219334D01*
X37256659Y-52307680D01*
X37256655Y-52307683D01*
X37132684Y-52431654D01*
X37040643Y-52580875D01*
X37040641Y-52580880D01*
X36985494Y-52747302D01*
X36985493Y-52747309D01*
X36975000Y-52850013D01*
X36975000Y-52900000D01*
X39478638Y-52900000D01*
X39545677Y-52919685D01*
X39552273Y-52925000D01*
X40974999Y-52925000D01*
X40974999Y-52901692D01*
X40974998Y-52901677D01*
X40964855Y-52802392D01*
X40911547Y-52641518D01*
X40911542Y-52641507D01*
X40822575Y-52497271D01*
X40704914Y-52379609D01*
X40671430Y-52318286D01*
X40676414Y-52248594D01*
X40694221Y-52216441D01*
X40717969Y-52185493D01*
X40752698Y-52140233D01*
X40810687Y-52000236D01*
X40825500Y-51887720D01*
X40825500Y-51860535D01*
X40845185Y-51793496D01*
X40897989Y-51747741D01*
X40967147Y-51737797D01*
X41018388Y-51757432D01*
X41080031Y-51798620D01*
X41080037Y-51798622D01*
X41080038Y-51798623D01*
X41090221Y-51802841D01*
X41202964Y-51849540D01*
X41202968Y-51849540D01*
X41202969Y-51849541D01*
X41333466Y-51875500D01*
X41333469Y-51875500D01*
X41466531Y-51875500D01*
X41501307Y-51868582D01*
X41570898Y-51874808D01*
X41626076Y-51917670D01*
X41649322Y-51983559D01*
X41649500Y-51990199D01*
X41649500Y-56705386D01*
X41629815Y-56772425D01*
X41594391Y-56808488D01*
X41494394Y-56875304D01*
X41494390Y-56875307D01*
X41400307Y-56969390D01*
X41400301Y-56969398D01*
X41326386Y-57080020D01*
X41326376Y-57080038D01*
X41275461Y-57202959D01*
X41275458Y-57202969D01*
X41249500Y-57333466D01*
X41249500Y-57333469D01*
X41249500Y-57466531D01*
X41249500Y-57466533D01*
X41249499Y-57466533D01*
X41275458Y-57597030D01*
X41275461Y-57597040D01*
X41326376Y-57719961D01*
X41326386Y-57719979D01*
X41400301Y-57830601D01*
X41400307Y-57830609D01*
X41494390Y-57924692D01*
X41494398Y-57924698D01*
X41605020Y-57998613D01*
X41605023Y-57998614D01*
X41605031Y-57998620D01*
X41727964Y-58049540D01*
X41727968Y-58049540D01*
X41727969Y-58049541D01*
X41858466Y-58075500D01*
X41858469Y-58075500D01*
X41991533Y-58075500D01*
X42079325Y-58058035D01*
X42122036Y-58049540D01*
X42244969Y-57998620D01*
X42355606Y-57924695D01*
X42449695Y-57830606D01*
X42472397Y-57796630D01*
X42526009Y-57751824D01*
X42595333Y-57743115D01*
X42658361Y-57773269D01*
X42695081Y-57832712D01*
X42699500Y-57865519D01*
X42699500Y-62241323D01*
X42679815Y-62308362D01*
X42663181Y-62329004D01*
X40618588Y-64373596D01*
X40557265Y-64407081D01*
X40487573Y-64402097D01*
X40432534Y-64361404D01*
X40318919Y-64213339D01*
X40318913Y-64213333D01*
X40318910Y-64213329D01*
X40156670Y-64051089D01*
X40156661Y-64051081D01*
X39974617Y-63911392D01*
X39775890Y-63796657D01*
X39775876Y-63796650D01*
X39563887Y-63708842D01*
X39342238Y-63649452D01*
X39304215Y-63644446D01*
X39114741Y-63619500D01*
X39114734Y-63619500D01*
X38885266Y-63619500D01*
X38885258Y-63619500D01*
X38668715Y-63648009D01*
X38657762Y-63649452D01*
X38564076Y-63674554D01*
X38436112Y-63708842D01*
X38224123Y-63796650D01*
X38224109Y-63796657D01*
X38025382Y-63911392D01*
X37843338Y-64051081D01*
X37681081Y-64213338D01*
X37541392Y-64395382D01*
X37426657Y-64594109D01*
X37426650Y-64594123D01*
X37338842Y-64806112D01*
X37279453Y-65027759D01*
X37279451Y-65027770D01*
X37249500Y-65255258D01*
X37249500Y-65484741D01*
X37268690Y-65630496D01*
X37279452Y-65712238D01*
X37279453Y-65712240D01*
X37338842Y-65933887D01*
X37426650Y-66145876D01*
X37426657Y-66145890D01*
X37541392Y-66344617D01*
X37681081Y-66526661D01*
X37681089Y-66526670D01*
X37843330Y-66688911D01*
X37843338Y-66688918D01*
X38025382Y-66828607D01*
X38025385Y-66828608D01*
X38025388Y-66828611D01*
X38224112Y-66943344D01*
X38224117Y-66943346D01*
X38224123Y-66943349D01*
X38315480Y-66981190D01*
X38436113Y-67031158D01*
X38657762Y-67090548D01*
X38885266Y-67120500D01*
X38885273Y-67120500D01*
X39114727Y-67120500D01*
X39114734Y-67120500D01*
X39342238Y-67090548D01*
X39563887Y-67031158D01*
X39775888Y-66943344D01*
X39974612Y-66828611D01*
X40156661Y-66688919D01*
X40156665Y-66688914D01*
X40156670Y-66688911D01*
X40318911Y-66526670D01*
X40318914Y-66526665D01*
X40318919Y-66526661D01*
X40458611Y-66344612D01*
X40573344Y-66145888D01*
X40661158Y-65933887D01*
X40720548Y-65712238D01*
X40720549Y-65712229D01*
X40720588Y-65712036D01*
X40720617Y-65711980D01*
X40721599Y-65708316D01*
X40722418Y-65708535D01*
X40752967Y-65650122D01*
X40771199Y-65635872D01*
X40770870Y-65635444D01*
X40777309Y-65630502D01*
X40777314Y-65630500D01*
X43037819Y-63369995D01*
X43099142Y-63336510D01*
X43168834Y-63341494D01*
X43224767Y-63383366D01*
X43249184Y-63448830D01*
X43249500Y-63457676D01*
X43249500Y-65521323D01*
X43229815Y-65588362D01*
X43213181Y-65609004D01*
X40544779Y-68277405D01*
X40483456Y-68310890D01*
X40413764Y-68305906D01*
X40358723Y-68265211D01*
X40318922Y-68213343D01*
X40318914Y-68213333D01*
X40156670Y-68051089D01*
X40156661Y-68051081D01*
X39974617Y-67911392D01*
X39775890Y-67796657D01*
X39775876Y-67796650D01*
X39563887Y-67708842D01*
X39342238Y-67649452D01*
X39304215Y-67644446D01*
X39114741Y-67619500D01*
X39114734Y-67619500D01*
X38885266Y-67619500D01*
X38885258Y-67619500D01*
X38668715Y-67648009D01*
X38657762Y-67649452D01*
X38564076Y-67674554D01*
X38436112Y-67708842D01*
X38224123Y-67796650D01*
X38224109Y-67796657D01*
X38025382Y-67911392D01*
X37843338Y-68051081D01*
X37681081Y-68213338D01*
X37541392Y-68395382D01*
X37426657Y-68594109D01*
X37426650Y-68594123D01*
X37338842Y-68806112D01*
X37279453Y-69027759D01*
X37279451Y-69027770D01*
X37249500Y-69255258D01*
X37249500Y-69484741D01*
X37255385Y-69529437D01*
X37279452Y-69712238D01*
X37279453Y-69712240D01*
X37338842Y-69933887D01*
X37426650Y-70145876D01*
X37426657Y-70145890D01*
X37541392Y-70344617D01*
X37681081Y-70526661D01*
X37681089Y-70526670D01*
X37843330Y-70688911D01*
X37843338Y-70688918D01*
X38025382Y-70828607D01*
X38025385Y-70828608D01*
X38025388Y-70828611D01*
X38224112Y-70943344D01*
X38224117Y-70943346D01*
X38224123Y-70943349D01*
X38315480Y-70981190D01*
X38436113Y-71031158D01*
X38657762Y-71090548D01*
X38885266Y-71120500D01*
X38885273Y-71120500D01*
X39114727Y-71120500D01*
X39114734Y-71120500D01*
X39342238Y-71090548D01*
X39563887Y-71031158D01*
X39775888Y-70943344D01*
X39974612Y-70828611D01*
X40156661Y-70688919D01*
X40156665Y-70688914D01*
X40156670Y-70688911D01*
X40318911Y-70526670D01*
X40318914Y-70526665D01*
X40318919Y-70526661D01*
X40458611Y-70344612D01*
X40573344Y-70145888D01*
X40661158Y-69933887D01*
X40720548Y-69712238D01*
X40744614Y-69529433D01*
X40772879Y-69465541D01*
X40779859Y-69457953D01*
X43937821Y-66299992D01*
X43999142Y-66266509D01*
X44068834Y-66271493D01*
X44124767Y-66313365D01*
X44149184Y-66378829D01*
X44149500Y-66387675D01*
X44149500Y-69041324D01*
X44129815Y-69108363D01*
X44113181Y-69129005D01*
X40829005Y-72413181D01*
X40802077Y-72427884D01*
X40776259Y-72444477D01*
X40770058Y-72445368D01*
X40767682Y-72446666D01*
X40741324Y-72449500D01*
X40561047Y-72449500D01*
X40494008Y-72429815D01*
X40461731Y-72398111D01*
X40461083Y-72398609D01*
X40318918Y-72213338D01*
X40318911Y-72213330D01*
X40156670Y-72051089D01*
X40156661Y-72051081D01*
X39974617Y-71911392D01*
X39775890Y-71796657D01*
X39775876Y-71796650D01*
X39563887Y-71708842D01*
X39342238Y-71649452D01*
X39304215Y-71644446D01*
X39114741Y-71619500D01*
X39114734Y-71619500D01*
X38885266Y-71619500D01*
X38885258Y-71619500D01*
X38668715Y-71648009D01*
X38657762Y-71649452D01*
X38564076Y-71674554D01*
X38436112Y-71708842D01*
X38224123Y-71796650D01*
X38224109Y-71796657D01*
X38025382Y-71911392D01*
X37843338Y-72051081D01*
X37681081Y-72213338D01*
X37541392Y-72395382D01*
X37426657Y-72594109D01*
X37426650Y-72594123D01*
X37338842Y-72806112D01*
X37279453Y-73027759D01*
X37279451Y-73027770D01*
X37249500Y-73255258D01*
X37249500Y-73484741D01*
X37274446Y-73674215D01*
X37279452Y-73712238D01*
X37319639Y-73862218D01*
X37338842Y-73933887D01*
X37426650Y-74145876D01*
X37426657Y-74145890D01*
X37541392Y-74344617D01*
X37681081Y-74526661D01*
X37681089Y-74526670D01*
X37843330Y-74688911D01*
X37843338Y-74688918D01*
X38025382Y-74828607D01*
X38025385Y-74828608D01*
X38025388Y-74828611D01*
X38224112Y-74943344D01*
X38224117Y-74943346D01*
X38224123Y-74943349D01*
X38297897Y-74973907D01*
X38436113Y-75031158D01*
X38657762Y-75090548D01*
X38885266Y-75120500D01*
X38885273Y-75120500D01*
X39114727Y-75120500D01*
X39114734Y-75120500D01*
X39342238Y-75090548D01*
X39563887Y-75031158D01*
X39775888Y-74943344D01*
X39974612Y-74828611D01*
X40156661Y-74688919D01*
X40156665Y-74688914D01*
X40156670Y-74688911D01*
X40247038Y-74598543D01*
X42499499Y-74598543D01*
X42537947Y-74791829D01*
X42537950Y-74791839D01*
X42613364Y-74973907D01*
X42613371Y-74973920D01*
X42722860Y-75137781D01*
X42722863Y-75137785D01*
X42862214Y-75277136D01*
X42862218Y-75277139D01*
X43026079Y-75386628D01*
X43026092Y-75386635D01*
X43208160Y-75462049D01*
X43208165Y-75462051D01*
X43208169Y-75462051D01*
X43208170Y-75462052D01*
X43401456Y-75500500D01*
X43401459Y-75500500D01*
X43598543Y-75500500D01*
X43728582Y-75474632D01*
X43791835Y-75462051D01*
X43973914Y-75386632D01*
X44137782Y-75277139D01*
X44277139Y-75137782D01*
X44386632Y-74973914D01*
X44462051Y-74791835D01*
X44474632Y-74728582D01*
X44500500Y-74598543D01*
X44500500Y-74401456D01*
X44462052Y-74208170D01*
X44462051Y-74208169D01*
X44462051Y-74208165D01*
X44436250Y-74145876D01*
X44386635Y-74026092D01*
X44386628Y-74026079D01*
X44277139Y-73862218D01*
X44277136Y-73862214D01*
X44137785Y-73722863D01*
X44137781Y-73722860D01*
X43973920Y-73613371D01*
X43973907Y-73613364D01*
X43791839Y-73537950D01*
X43791829Y-73537947D01*
X43598543Y-73499500D01*
X43598541Y-73499500D01*
X43401459Y-73499500D01*
X43401457Y-73499500D01*
X43208170Y-73537947D01*
X43208160Y-73537950D01*
X43026092Y-73613364D01*
X43026079Y-73613371D01*
X42862218Y-73722860D01*
X42862214Y-73722863D01*
X42722863Y-73862214D01*
X42722860Y-73862218D01*
X42613371Y-74026079D01*
X42613364Y-74026092D01*
X42537950Y-74208160D01*
X42537947Y-74208170D01*
X42499500Y-74401456D01*
X42499500Y-74401459D01*
X42499500Y-74598541D01*
X42499500Y-74598543D01*
X42499499Y-74598543D01*
X40247038Y-74598543D01*
X40318911Y-74526670D01*
X40318914Y-74526665D01*
X40318919Y-74526661D01*
X40458611Y-74344612D01*
X40573344Y-74145888D01*
X40661158Y-73933887D01*
X40720548Y-73712238D01*
X40740813Y-73558314D01*
X40769080Y-73494418D01*
X40827404Y-73455947D01*
X40863752Y-73450500D01*
X41065890Y-73450500D01*
X41065892Y-73450500D01*
X41193186Y-73416392D01*
X41307314Y-73350500D01*
X44587819Y-70069995D01*
X44649142Y-70036510D01*
X44718834Y-70041494D01*
X44774767Y-70083366D01*
X44799184Y-70148830D01*
X44799500Y-70157676D01*
X44799500Y-95995572D01*
X44799184Y-96004418D01*
X44799184Y-96004419D01*
X44784869Y-96204557D01*
X44782351Y-96222068D01*
X44740645Y-96413790D01*
X44735661Y-96430765D01*
X44667093Y-96614605D01*
X44659743Y-96630699D01*
X44565709Y-96802908D01*
X44556144Y-96817791D01*
X44438561Y-96974864D01*
X44426975Y-96988235D01*
X44288235Y-97126975D01*
X44274864Y-97138561D01*
X44117791Y-97256144D01*
X44102908Y-97265709D01*
X43930699Y-97359743D01*
X43914605Y-97367093D01*
X43730765Y-97435661D01*
X43713790Y-97440645D01*
X43522068Y-97482351D01*
X43504557Y-97484869D01*
X43323779Y-97497799D01*
X43304417Y-97499184D01*
X43295572Y-97499500D01*
X32449544Y-97499500D01*
X32382505Y-97479815D01*
X32336750Y-97427011D01*
X32326806Y-97357853D01*
X32355831Y-97294297D01*
X32380653Y-97272398D01*
X32498004Y-97193986D01*
X32686081Y-97039635D01*
X32686082Y-97039634D01*
X31440698Y-95794251D01*
X31542330Y-95720412D01*
X31720412Y-95542330D01*
X31794251Y-95440699D01*
X33039634Y-96686082D01*
X33039635Y-96686081D01*
X33193986Y-96498004D01*
X33376851Y-96224327D01*
X33376862Y-96224309D01*
X33532012Y-95934044D01*
X33532014Y-95934039D01*
X33657974Y-95629946D01*
X33753524Y-95314961D01*
X33753525Y-95314956D01*
X33817738Y-94992139D01*
X33850000Y-94664571D01*
X33850000Y-94335428D01*
X33817738Y-94007860D01*
X33753525Y-93685043D01*
X33753524Y-93685038D01*
X33657974Y-93370053D01*
X33532014Y-93065960D01*
X33532012Y-93065955D01*
X33376862Y-92775690D01*
X33376851Y-92775672D01*
X33193992Y-92502004D01*
X33193989Y-92502000D01*
X33039634Y-92313917D01*
X33039633Y-92313917D01*
X31794250Y-93559300D01*
X31720412Y-93457670D01*
X31542330Y-93279588D01*
X31440697Y-93205747D01*
X32686081Y-91960365D01*
X32686081Y-91960364D01*
X32497999Y-91806010D01*
X32497995Y-91806007D01*
X32224327Y-91623148D01*
X32224309Y-91623137D01*
X31934044Y-91467987D01*
X31934039Y-91467985D01*
X31629946Y-91342025D01*
X31314961Y-91246475D01*
X31314956Y-91246474D01*
X30992139Y-91182261D01*
X30664572Y-91150000D01*
X30335428Y-91150000D01*
X30007860Y-91182261D01*
X29685043Y-91246474D01*
X29685038Y-91246475D01*
X29370053Y-91342025D01*
X29065960Y-91467985D01*
X29065955Y-91467987D01*
X28775690Y-91623137D01*
X28775672Y-91623148D01*
X28502004Y-91806007D01*
X28501999Y-91806010D01*
X28313917Y-91960364D01*
X28313917Y-91960365D01*
X29559301Y-93205748D01*
X29457670Y-93279588D01*
X29279588Y-93457670D01*
X29205748Y-93559301D01*
X27960365Y-92313917D01*
X27960364Y-92313917D01*
X27806010Y-92501999D01*
X27806007Y-92502004D01*
X27623148Y-92775672D01*
X27623137Y-92775690D01*
X27467987Y-93065955D01*
X27467985Y-93065960D01*
X27342025Y-93370053D01*
X27246475Y-93685038D01*
X27246474Y-93685043D01*
X27182261Y-94007860D01*
X27150000Y-94335428D01*
X27150000Y-94664571D01*
X27182261Y-94992139D01*
X27246474Y-95314956D01*
X27246475Y-95314961D01*
X27342025Y-95629946D01*
X27467985Y-95934039D01*
X27467987Y-95934044D01*
X27623137Y-96224309D01*
X27623148Y-96224327D01*
X27806007Y-96497995D01*
X27806010Y-96497999D01*
X27960364Y-96686081D01*
X27960365Y-96686081D01*
X29205747Y-95440698D01*
X29279588Y-95542330D01*
X29457670Y-95720412D01*
X29559300Y-95794251D01*
X28313917Y-97039633D01*
X28313917Y-97039634D01*
X28502000Y-97193989D01*
X28502004Y-97193992D01*
X28619347Y-97272398D01*
X28664152Y-97326010D01*
X28672859Y-97395335D01*
X28642705Y-97458362D01*
X28583262Y-97495082D01*
X28550456Y-97499500D01*
X18004428Y-97499500D01*
X17995582Y-97499184D01*
X17973622Y-97497613D01*
X17795442Y-97484869D01*
X17777931Y-97482351D01*
X17586209Y-97440645D01*
X17569234Y-97435661D01*
X17385394Y-97367093D01*
X17369300Y-97359743D01*
X17197091Y-97265709D01*
X17182208Y-97256144D01*
X17025135Y-97138561D01*
X17011764Y-97126975D01*
X16873024Y-96988235D01*
X16861438Y-96974864D01*
X16743855Y-96817791D01*
X16734290Y-96802908D01*
X16670497Y-96686081D01*
X16640253Y-96630694D01*
X16632909Y-96614611D01*
X16564336Y-96430760D01*
X16559354Y-96413790D01*
X16532823Y-96291829D01*
X16517647Y-96222063D01*
X16515130Y-96204556D01*
X16507548Y-96098543D01*
X16999499Y-96098543D01*
X17037947Y-96291829D01*
X17037950Y-96291839D01*
X17113364Y-96473907D01*
X17113371Y-96473920D01*
X17222860Y-96637781D01*
X17222863Y-96637785D01*
X17362214Y-96777136D01*
X17362218Y-96777139D01*
X17526079Y-96886628D01*
X17526092Y-96886635D01*
X17708160Y-96962049D01*
X17708165Y-96962051D01*
X17708169Y-96962051D01*
X17708170Y-96962052D01*
X17901456Y-97000500D01*
X17901459Y-97000500D01*
X18098543Y-97000500D01*
X18228582Y-96974632D01*
X18291835Y-96962051D01*
X18473914Y-96886632D01*
X18637782Y-96777139D01*
X18777139Y-96637782D01*
X18886632Y-96473914D01*
X18962051Y-96291835D01*
X19000500Y-96098541D01*
X19000500Y-95901459D01*
X19000500Y-95901456D01*
X18962052Y-95708170D01*
X18962051Y-95708169D01*
X18962051Y-95708165D01*
X18929652Y-95629946D01*
X18886635Y-95526092D01*
X18886628Y-95526079D01*
X18777139Y-95362218D01*
X18777136Y-95362214D01*
X18637785Y-95222863D01*
X18637781Y-95222860D01*
X18473920Y-95113371D01*
X18473907Y-95113364D01*
X18291839Y-95037950D01*
X18291829Y-95037947D01*
X18098543Y-94999500D01*
X18098541Y-94999500D01*
X17901459Y-94999500D01*
X17901457Y-94999500D01*
X17708170Y-95037947D01*
X17708160Y-95037950D01*
X17526092Y-95113364D01*
X17526079Y-95113371D01*
X17362218Y-95222860D01*
X17362214Y-95222863D01*
X17222863Y-95362214D01*
X17222860Y-95362218D01*
X17113371Y-95526079D01*
X17113364Y-95526092D01*
X17037950Y-95708160D01*
X17037947Y-95708170D01*
X16999500Y-95901456D01*
X16999500Y-95901459D01*
X16999500Y-96098541D01*
X16999500Y-96098543D01*
X16999499Y-96098543D01*
X16507548Y-96098543D01*
X16500816Y-96004418D01*
X16500500Y-95995572D01*
X16500500Y-87745466D01*
X20600000Y-87745466D01*
X20600000Y-87994533D01*
X20632508Y-88241463D01*
X20696973Y-88482049D01*
X20792283Y-88712148D01*
X20792288Y-88712159D01*
X20916813Y-88927841D01*
X20916819Y-88927849D01*
X20991400Y-89025045D01*
X21779216Y-88237229D01*
X21785333Y-88251997D01*
X21873589Y-88384082D01*
X21985918Y-88496411D01*
X22118003Y-88584667D01*
X22132769Y-88590783D01*
X21344953Y-89378598D01*
X21442150Y-89453180D01*
X21442158Y-89453186D01*
X21657840Y-89577711D01*
X21657851Y-89577716D01*
X21887950Y-89673026D01*
X22128536Y-89737491D01*
X22375466Y-89770000D01*
X22624534Y-89770000D01*
X22871463Y-89737491D01*
X23112049Y-89673026D01*
X23342148Y-89577716D01*
X23342159Y-89577711D01*
X23557855Y-89453178D01*
X23655045Y-89378600D01*
X23655045Y-89378597D01*
X22867230Y-88590783D01*
X22881997Y-88584667D01*
X23014082Y-88496411D01*
X23126411Y-88384082D01*
X23214667Y-88251997D01*
X23220783Y-88237231D01*
X24008597Y-89025045D01*
X24008600Y-89025045D01*
X24083178Y-88927855D01*
X24207711Y-88712159D01*
X24207716Y-88712148D01*
X24303026Y-88482049D01*
X24367491Y-88241463D01*
X24400000Y-87994533D01*
X24400000Y-87745466D01*
X37100000Y-87745466D01*
X37100000Y-87994533D01*
X37132508Y-88241463D01*
X37196973Y-88482049D01*
X37292283Y-88712148D01*
X37292288Y-88712159D01*
X37416813Y-88927841D01*
X37416819Y-88927849D01*
X37491400Y-89025045D01*
X38279216Y-88237229D01*
X38285333Y-88251997D01*
X38373589Y-88384082D01*
X38485918Y-88496411D01*
X38618003Y-88584667D01*
X38632769Y-88590783D01*
X37844953Y-89378598D01*
X37942150Y-89453180D01*
X37942158Y-89453186D01*
X38157840Y-89577711D01*
X38157851Y-89577716D01*
X38387950Y-89673026D01*
X38628536Y-89737491D01*
X38875466Y-89770000D01*
X39124534Y-89770000D01*
X39371463Y-89737491D01*
X39612049Y-89673026D01*
X39842148Y-89577716D01*
X39842159Y-89577711D01*
X40057855Y-89453178D01*
X40155045Y-89378600D01*
X40155045Y-89378597D01*
X39367230Y-88590783D01*
X39381997Y-88584667D01*
X39514082Y-88496411D01*
X39626411Y-88384082D01*
X39714667Y-88251997D01*
X39720783Y-88237231D01*
X40508597Y-89025045D01*
X40508600Y-89025045D01*
X40583178Y-88927855D01*
X40707711Y-88712159D01*
X40707716Y-88712148D01*
X40803026Y-88482049D01*
X40867491Y-88241463D01*
X40900000Y-87994533D01*
X40900000Y-87745466D01*
X40867491Y-87498536D01*
X40803026Y-87257950D01*
X40707716Y-87027851D01*
X40707711Y-87027840D01*
X40583186Y-86812158D01*
X40583180Y-86812150D01*
X40508598Y-86714953D01*
X39720783Y-87502768D01*
X39714667Y-87488003D01*
X39626411Y-87355918D01*
X39514082Y-87243589D01*
X39381997Y-87155333D01*
X39367229Y-87149215D01*
X40155045Y-86361400D01*
X40057849Y-86286819D01*
X40057841Y-86286813D01*
X39842159Y-86162288D01*
X39842148Y-86162283D01*
X39612049Y-86066973D01*
X39371463Y-86002508D01*
X39124534Y-85970000D01*
X38875466Y-85970000D01*
X38628536Y-86002508D01*
X38387950Y-86066973D01*
X38157851Y-86162283D01*
X38157847Y-86162285D01*
X37942143Y-86286823D01*
X37844953Y-86361399D01*
X37844953Y-86361400D01*
X38632769Y-87149216D01*
X38618003Y-87155333D01*
X38485918Y-87243589D01*
X38373589Y-87355918D01*
X38285333Y-87488003D01*
X38279216Y-87502769D01*
X37491400Y-86714953D01*
X37491399Y-86714953D01*
X37416823Y-86812143D01*
X37292285Y-87027847D01*
X37292283Y-87027851D01*
X37196973Y-87257950D01*
X37132508Y-87498536D01*
X37100000Y-87745466D01*
X24400000Y-87745466D01*
X24367491Y-87498536D01*
X24303026Y-87257950D01*
X24207716Y-87027851D01*
X24207711Y-87027840D01*
X24083186Y-86812158D01*
X24083180Y-86812150D01*
X24008598Y-86714953D01*
X23220783Y-87502768D01*
X23214667Y-87488003D01*
X23126411Y-87355918D01*
X23014082Y-87243589D01*
X22881997Y-87155333D01*
X22867229Y-87149215D01*
X23655045Y-86361400D01*
X23557849Y-86286819D01*
X23557841Y-86286813D01*
X23342159Y-86162288D01*
X23342148Y-86162283D01*
X23112049Y-86066973D01*
X22871463Y-86002508D01*
X22624534Y-85970000D01*
X22375466Y-85970000D01*
X22128536Y-86002508D01*
X21887950Y-86066973D01*
X21657851Y-86162283D01*
X21657847Y-86162285D01*
X21442143Y-86286823D01*
X21344953Y-86361399D01*
X21344953Y-86361400D01*
X22132769Y-87149216D01*
X22118003Y-87155333D01*
X21985918Y-87243589D01*
X21873589Y-87355918D01*
X21785333Y-87488003D01*
X21779216Y-87502769D01*
X20991400Y-86714953D01*
X20991399Y-86714953D01*
X20916823Y-86812143D01*
X20792285Y-87027847D01*
X20792283Y-87027851D01*
X20696973Y-87257950D01*
X20632508Y-87498536D01*
X20600000Y-87745466D01*
X16500500Y-87745466D01*
X16500500Y-83755258D01*
X20749500Y-83755258D01*
X20749500Y-83984741D01*
X20774446Y-84174215D01*
X20779452Y-84212238D01*
X20779453Y-84212240D01*
X20838842Y-84433887D01*
X20926650Y-84645876D01*
X20926657Y-84645890D01*
X21041392Y-84844617D01*
X21181081Y-85026661D01*
X21181089Y-85026670D01*
X21343330Y-85188911D01*
X21343338Y-85188918D01*
X21525382Y-85328607D01*
X21525385Y-85328608D01*
X21525388Y-85328611D01*
X21724112Y-85443344D01*
X21724117Y-85443346D01*
X21724123Y-85443349D01*
X21815480Y-85481190D01*
X21936113Y-85531158D01*
X22157762Y-85590548D01*
X22385266Y-85620500D01*
X22385273Y-85620500D01*
X22614727Y-85620500D01*
X22614734Y-85620500D01*
X22842238Y-85590548D01*
X23063887Y-85531158D01*
X23275888Y-85443344D01*
X23474612Y-85328611D01*
X23656661Y-85188919D01*
X23656665Y-85188914D01*
X23656670Y-85188911D01*
X23818911Y-85026670D01*
X23818914Y-85026665D01*
X23818919Y-85026661D01*
X23958611Y-84844612D01*
X24073344Y-84645888D01*
X24161158Y-84433887D01*
X24220548Y-84212238D01*
X24250500Y-83984734D01*
X24250500Y-83755266D01*
X24250499Y-83755258D01*
X37249500Y-83755258D01*
X37249500Y-83984741D01*
X37274446Y-84174215D01*
X37279452Y-84212238D01*
X37279453Y-84212240D01*
X37338842Y-84433887D01*
X37426650Y-84645876D01*
X37426657Y-84645890D01*
X37541392Y-84844617D01*
X37681081Y-85026661D01*
X37681089Y-85026670D01*
X37843330Y-85188911D01*
X37843338Y-85188918D01*
X38025382Y-85328607D01*
X38025385Y-85328608D01*
X38025388Y-85328611D01*
X38224112Y-85443344D01*
X38224117Y-85443346D01*
X38224123Y-85443349D01*
X38315480Y-85481190D01*
X38436113Y-85531158D01*
X38657762Y-85590548D01*
X38885266Y-85620500D01*
X38885273Y-85620500D01*
X39114727Y-85620500D01*
X39114734Y-85620500D01*
X39342238Y-85590548D01*
X39563887Y-85531158D01*
X39775888Y-85443344D01*
X39974612Y-85328611D01*
X40156661Y-85188919D01*
X40156665Y-85188914D01*
X40156670Y-85188911D01*
X40318911Y-85026670D01*
X40318914Y-85026665D01*
X40318919Y-85026661D01*
X40458611Y-84844612D01*
X40573344Y-84645888D01*
X40661158Y-84433887D01*
X40720548Y-84212238D01*
X40750500Y-83984734D01*
X40750500Y-83755266D01*
X40720548Y-83527762D01*
X40661158Y-83306113D01*
X40573344Y-83094112D01*
X40458611Y-82895388D01*
X40458608Y-82895385D01*
X40458607Y-82895382D01*
X40318918Y-82713338D01*
X40318911Y-82713330D01*
X40156670Y-82551089D01*
X40156661Y-82551081D01*
X39974617Y-82411392D01*
X39775890Y-82296657D01*
X39775876Y-82296650D01*
X39563887Y-82208842D01*
X39342238Y-82149452D01*
X39304215Y-82144446D01*
X39114741Y-82119500D01*
X39114734Y-82119500D01*
X38885266Y-82119500D01*
X38885258Y-82119500D01*
X38668715Y-82148009D01*
X38657762Y-82149452D01*
X38564076Y-82174554D01*
X38436112Y-82208842D01*
X38224123Y-82296650D01*
X38224109Y-82296657D01*
X38025382Y-82411392D01*
X37843338Y-82551081D01*
X37681081Y-82713338D01*
X37541392Y-82895382D01*
X37426657Y-83094109D01*
X37426650Y-83094123D01*
X37338842Y-83306112D01*
X37279453Y-83527759D01*
X37279451Y-83527770D01*
X37249500Y-83755258D01*
X24250499Y-83755258D01*
X24220548Y-83527762D01*
X24161158Y-83306113D01*
X24073344Y-83094112D01*
X23958611Y-82895388D01*
X23958608Y-82895385D01*
X23958607Y-82895382D01*
X23818918Y-82713338D01*
X23818911Y-82713330D01*
X23656670Y-82551089D01*
X23656661Y-82551081D01*
X23474617Y-82411392D01*
X23275890Y-82296657D01*
X23275876Y-82296650D01*
X23063887Y-82208842D01*
X22842238Y-82149452D01*
X22804215Y-82144446D01*
X22614741Y-82119500D01*
X22614734Y-82119500D01*
X22385266Y-82119500D01*
X22385258Y-82119500D01*
X22168715Y-82148009D01*
X22157762Y-82149452D01*
X22064076Y-82174554D01*
X21936112Y-82208842D01*
X21724123Y-82296650D01*
X21724109Y-82296657D01*
X21525382Y-82411392D01*
X21343338Y-82551081D01*
X21181081Y-82713338D01*
X21041392Y-82895382D01*
X20926657Y-83094109D01*
X20926650Y-83094123D01*
X20838842Y-83306112D01*
X20779453Y-83527759D01*
X20779451Y-83527770D01*
X20749500Y-83755258D01*
X16500500Y-83755258D01*
X16500500Y-79755258D01*
X20749500Y-79755258D01*
X20749500Y-79984741D01*
X20774446Y-80174215D01*
X20779452Y-80212238D01*
X20779453Y-80212240D01*
X20838842Y-80433887D01*
X20926650Y-80645876D01*
X20926657Y-80645890D01*
X21041392Y-80844617D01*
X21181081Y-81026661D01*
X21181089Y-81026670D01*
X21343330Y-81188911D01*
X21343338Y-81188918D01*
X21525382Y-81328607D01*
X21525385Y-81328608D01*
X21525388Y-81328611D01*
X21724112Y-81443344D01*
X21724117Y-81443346D01*
X21724123Y-81443349D01*
X21815480Y-81481190D01*
X21936113Y-81531158D01*
X22157762Y-81590548D01*
X22385266Y-81620500D01*
X22385273Y-81620500D01*
X22614727Y-81620500D01*
X22614734Y-81620500D01*
X22842238Y-81590548D01*
X23063887Y-81531158D01*
X23275888Y-81443344D01*
X23474612Y-81328611D01*
X23656661Y-81188919D01*
X23656665Y-81188914D01*
X23656670Y-81188911D01*
X23818911Y-81026670D01*
X23818914Y-81026665D01*
X23818919Y-81026661D01*
X23958611Y-80844612D01*
X24073344Y-80645888D01*
X24161158Y-80433887D01*
X24220548Y-80212238D01*
X24250500Y-79984734D01*
X24250500Y-79755266D01*
X24250499Y-79755258D01*
X37249500Y-79755258D01*
X37249500Y-79984741D01*
X37274446Y-80174215D01*
X37279452Y-80212238D01*
X37279453Y-80212240D01*
X37338842Y-80433887D01*
X37426650Y-80645876D01*
X37426657Y-80645890D01*
X37541392Y-80844617D01*
X37681081Y-81026661D01*
X37681089Y-81026670D01*
X37843330Y-81188911D01*
X37843338Y-81188918D01*
X38025382Y-81328607D01*
X38025385Y-81328608D01*
X38025388Y-81328611D01*
X38224112Y-81443344D01*
X38224117Y-81443346D01*
X38224123Y-81443349D01*
X38315480Y-81481190D01*
X38436113Y-81531158D01*
X38657762Y-81590548D01*
X38885266Y-81620500D01*
X38885273Y-81620500D01*
X39114727Y-81620500D01*
X39114734Y-81620500D01*
X39342238Y-81590548D01*
X39563887Y-81531158D01*
X39775888Y-81443344D01*
X39974612Y-81328611D01*
X40156661Y-81188919D01*
X40156665Y-81188914D01*
X40156670Y-81188911D01*
X40318911Y-81026670D01*
X40318914Y-81026665D01*
X40318919Y-81026661D01*
X40458611Y-80844612D01*
X40573344Y-80645888D01*
X40661158Y-80433887D01*
X40720548Y-80212238D01*
X40750500Y-79984734D01*
X40750500Y-79755266D01*
X40720548Y-79527762D01*
X40661158Y-79306113D01*
X40573344Y-79094112D01*
X40458611Y-78895388D01*
X40458608Y-78895385D01*
X40458607Y-78895382D01*
X40318918Y-78713338D01*
X40318911Y-78713330D01*
X40156670Y-78551089D01*
X40156661Y-78551081D01*
X39974617Y-78411392D01*
X39775890Y-78296657D01*
X39775876Y-78296650D01*
X39563887Y-78208842D01*
X39342238Y-78149452D01*
X39304215Y-78144446D01*
X39114741Y-78119500D01*
X39114734Y-78119500D01*
X38885266Y-78119500D01*
X38885258Y-78119500D01*
X38668715Y-78148009D01*
X38657762Y-78149452D01*
X38564076Y-78174554D01*
X38436112Y-78208842D01*
X38224123Y-78296650D01*
X38224109Y-78296657D01*
X38025382Y-78411392D01*
X37843338Y-78551081D01*
X37681081Y-78713338D01*
X37541392Y-78895382D01*
X37426657Y-79094109D01*
X37426650Y-79094123D01*
X37338842Y-79306112D01*
X37279453Y-79527759D01*
X37279451Y-79527770D01*
X37249500Y-79755258D01*
X24250499Y-79755258D01*
X24220548Y-79527762D01*
X24161158Y-79306113D01*
X24073344Y-79094112D01*
X23958611Y-78895388D01*
X23958608Y-78895385D01*
X23958607Y-78895382D01*
X23818918Y-78713338D01*
X23818911Y-78713330D01*
X23656670Y-78551089D01*
X23656661Y-78551081D01*
X23474617Y-78411392D01*
X23275890Y-78296657D01*
X23275876Y-78296650D01*
X23063887Y-78208842D01*
X22842238Y-78149452D01*
X22804215Y-78144446D01*
X22614741Y-78119500D01*
X22614734Y-78119500D01*
X22385266Y-78119500D01*
X22385258Y-78119500D01*
X22168715Y-78148009D01*
X22157762Y-78149452D01*
X22064076Y-78174554D01*
X21936112Y-78208842D01*
X21724123Y-78296650D01*
X21724109Y-78296657D01*
X21525382Y-78411392D01*
X21343338Y-78551081D01*
X21181081Y-78713338D01*
X21041392Y-78895382D01*
X20926657Y-79094109D01*
X20926650Y-79094123D01*
X20838842Y-79306112D01*
X20779453Y-79527759D01*
X20779451Y-79527770D01*
X20749500Y-79755258D01*
X16500500Y-79755258D01*
X16500500Y-73255258D01*
X20749500Y-73255258D01*
X20749500Y-73484741D01*
X20774446Y-73674215D01*
X20779452Y-73712238D01*
X20819639Y-73862218D01*
X20838842Y-73933887D01*
X20926650Y-74145876D01*
X20926657Y-74145890D01*
X21041392Y-74344617D01*
X21181081Y-74526661D01*
X21181089Y-74526670D01*
X21343330Y-74688911D01*
X21343338Y-74688918D01*
X21525382Y-74828607D01*
X21525385Y-74828608D01*
X21525388Y-74828611D01*
X21724112Y-74943344D01*
X21724117Y-74943346D01*
X21724123Y-74943349D01*
X21797897Y-74973907D01*
X21936113Y-75031158D01*
X22157762Y-75090548D01*
X22385266Y-75120500D01*
X22385273Y-75120500D01*
X22614727Y-75120500D01*
X22614734Y-75120500D01*
X22842238Y-75090548D01*
X23063887Y-75031158D01*
X23275888Y-74943344D01*
X23474612Y-74828611D01*
X23656661Y-74688919D01*
X23656665Y-74688914D01*
X23656670Y-74688911D01*
X23818911Y-74526670D01*
X23818914Y-74526665D01*
X23818919Y-74526661D01*
X23958611Y-74344612D01*
X24073344Y-74145888D01*
X24161158Y-73933887D01*
X24220548Y-73712238D01*
X24250500Y-73484734D01*
X24250500Y-73255266D01*
X24220548Y-73027762D01*
X24177347Y-72866533D01*
X35324499Y-72866533D01*
X35350458Y-72997030D01*
X35350461Y-72997040D01*
X35401376Y-73119961D01*
X35401386Y-73119979D01*
X35475301Y-73230601D01*
X35475307Y-73230609D01*
X35569390Y-73324692D01*
X35569398Y-73324698D01*
X35680020Y-73398613D01*
X35680023Y-73398614D01*
X35680031Y-73398620D01*
X35802964Y-73449540D01*
X35802968Y-73449540D01*
X35802969Y-73449541D01*
X35933466Y-73475500D01*
X35933469Y-73475500D01*
X36066533Y-73475500D01*
X36164827Y-73455947D01*
X36197036Y-73449540D01*
X36319969Y-73398620D01*
X36430606Y-73324695D01*
X36524695Y-73230606D01*
X36598620Y-73119969D01*
X36649540Y-72997036D01*
X36675500Y-72866531D01*
X36675500Y-72733469D01*
X36675500Y-72733466D01*
X36649541Y-72602969D01*
X36649540Y-72602968D01*
X36649540Y-72602964D01*
X36598620Y-72480031D01*
X36524695Y-72369394D01*
X36521397Y-72364458D01*
X36500520Y-72297781D01*
X36500500Y-72295568D01*
X36500500Y-61255258D01*
X37249500Y-61255258D01*
X37249500Y-61484741D01*
X37265722Y-61607951D01*
X37279452Y-61712238D01*
X37288675Y-61746658D01*
X37338842Y-61933887D01*
X37426650Y-62145876D01*
X37426657Y-62145890D01*
X37541392Y-62344617D01*
X37681081Y-62526661D01*
X37681089Y-62526670D01*
X37843330Y-62688911D01*
X37843338Y-62688918D01*
X38025382Y-62828607D01*
X38025385Y-62828608D01*
X38025388Y-62828611D01*
X38224112Y-62943344D01*
X38224117Y-62943346D01*
X38224123Y-62943349D01*
X38315480Y-62981190D01*
X38436113Y-63031158D01*
X38657762Y-63090548D01*
X38885266Y-63120500D01*
X38885273Y-63120500D01*
X39114727Y-63120500D01*
X39114734Y-63120500D01*
X39342238Y-63090548D01*
X39563887Y-63031158D01*
X39775888Y-62943344D01*
X39974612Y-62828611D01*
X40156661Y-62688919D01*
X40156665Y-62688914D01*
X40156670Y-62688911D01*
X40318911Y-62526670D01*
X40318914Y-62526665D01*
X40318919Y-62526661D01*
X40458611Y-62344612D01*
X40573344Y-62145888D01*
X40661158Y-61933887D01*
X40720548Y-61712238D01*
X40750500Y-61484734D01*
X40750500Y-61255266D01*
X40720548Y-61027762D01*
X40661158Y-60806113D01*
X40573344Y-60594112D01*
X40458611Y-60395388D01*
X40458608Y-60395385D01*
X40458607Y-60395382D01*
X40318918Y-60213338D01*
X40318911Y-60213330D01*
X40156670Y-60051089D01*
X40156661Y-60051081D01*
X39974617Y-59911392D01*
X39775890Y-59796657D01*
X39775876Y-59796650D01*
X39563887Y-59708842D01*
X39460321Y-59681092D01*
X39342238Y-59649452D01*
X39304215Y-59644446D01*
X39114741Y-59619500D01*
X39114734Y-59619500D01*
X38885266Y-59619500D01*
X38885258Y-59619500D01*
X38668715Y-59648009D01*
X38657762Y-59649452D01*
X38564076Y-59674554D01*
X38436112Y-59708842D01*
X38224123Y-59796650D01*
X38224109Y-59796657D01*
X38025382Y-59911392D01*
X37843338Y-60051081D01*
X37681081Y-60213338D01*
X37541392Y-60395382D01*
X37426657Y-60594109D01*
X37426650Y-60594123D01*
X37338842Y-60806112D01*
X37279453Y-61027759D01*
X37279451Y-61027770D01*
X37249500Y-61255258D01*
X36500500Y-61255258D01*
X36500500Y-58190398D01*
X36520185Y-58123359D01*
X36572989Y-58077604D01*
X36600308Y-58068781D01*
X36697036Y-58049540D01*
X36819969Y-57998620D01*
X36930606Y-57924695D01*
X37024695Y-57830606D01*
X37098620Y-57719969D01*
X37149540Y-57597036D01*
X37175500Y-57466531D01*
X37175500Y-57333469D01*
X37175500Y-57333466D01*
X37149541Y-57202969D01*
X37149540Y-57202968D01*
X37149540Y-57202964D01*
X37098620Y-57080031D01*
X37024695Y-56969394D01*
X37024692Y-56969390D01*
X36930609Y-56875307D01*
X36930601Y-56875301D01*
X36819979Y-56801386D01*
X36819972Y-56801382D01*
X36819969Y-56801380D01*
X36819965Y-56801378D01*
X36819961Y-56801376D01*
X36697040Y-56750461D01*
X36697030Y-56750458D01*
X36566533Y-56724500D01*
X36566531Y-56724500D01*
X36433469Y-56724500D01*
X36433467Y-56724500D01*
X36302969Y-56750458D01*
X36302959Y-56750461D01*
X36180038Y-56801376D01*
X36180020Y-56801386D01*
X36069398Y-56875301D01*
X36069390Y-56875307D01*
X35975307Y-56969390D01*
X35975301Y-56969398D01*
X35901386Y-57080020D01*
X35901376Y-57080038D01*
X35850461Y-57202959D01*
X35850458Y-57202970D01*
X35823341Y-57339291D01*
X35814576Y-57356045D01*
X35810557Y-57374525D01*
X35791808Y-57399570D01*
X35790955Y-57401202D01*
X35789406Y-57402780D01*
X35692686Y-57499500D01*
X35692685Y-57499500D01*
X35692684Y-57499501D01*
X35599502Y-57592683D01*
X35599500Y-57592686D01*
X35533608Y-57706812D01*
X35499500Y-57834108D01*
X35499500Y-72295568D01*
X35479815Y-72362607D01*
X35478603Y-72364458D01*
X35401382Y-72480027D01*
X35401376Y-72480038D01*
X35350461Y-72602959D01*
X35350458Y-72602969D01*
X35324500Y-72733466D01*
X35324500Y-72733469D01*
X35324500Y-72866531D01*
X35324500Y-72866533D01*
X35324499Y-72866533D01*
X24177347Y-72866533D01*
X24161158Y-72806113D01*
X24073344Y-72594112D01*
X23958611Y-72395388D01*
X23958608Y-72395385D01*
X23958607Y-72395382D01*
X23818918Y-72213338D01*
X23818911Y-72213330D01*
X23656670Y-72051089D01*
X23656661Y-72051081D01*
X23474617Y-71911392D01*
X23275890Y-71796657D01*
X23275876Y-71796650D01*
X23063887Y-71708842D01*
X22842238Y-71649452D01*
X22804215Y-71644446D01*
X22614741Y-71619500D01*
X22614734Y-71619500D01*
X22385266Y-71619500D01*
X22385258Y-71619500D01*
X22168715Y-71648009D01*
X22157762Y-71649452D01*
X22064076Y-71674554D01*
X21936112Y-71708842D01*
X21724123Y-71796650D01*
X21724109Y-71796657D01*
X21525382Y-71911392D01*
X21343338Y-72051081D01*
X21181081Y-72213338D01*
X21041392Y-72395382D01*
X20926657Y-72594109D01*
X20926650Y-72594123D01*
X20838842Y-72806112D01*
X20779453Y-73027759D01*
X20779451Y-73027770D01*
X20749500Y-73255258D01*
X16500500Y-73255258D01*
X16500500Y-69255258D01*
X20749500Y-69255258D01*
X20749500Y-69484741D01*
X20755385Y-69529437D01*
X20779452Y-69712238D01*
X20779453Y-69712240D01*
X20838842Y-69933887D01*
X20926650Y-70145876D01*
X20926657Y-70145890D01*
X21041392Y-70344617D01*
X21181081Y-70526661D01*
X21181089Y-70526670D01*
X21343330Y-70688911D01*
X21343338Y-70688918D01*
X21525382Y-70828607D01*
X21525385Y-70828608D01*
X21525388Y-70828611D01*
X21724112Y-70943344D01*
X21724117Y-70943346D01*
X21724123Y-70943349D01*
X21815480Y-70981190D01*
X21936113Y-71031158D01*
X22157762Y-71090548D01*
X22385266Y-71120500D01*
X22385273Y-71120500D01*
X22614727Y-71120500D01*
X22614734Y-71120500D01*
X22842238Y-71090548D01*
X23063887Y-71031158D01*
X23275888Y-70943344D01*
X23474612Y-70828611D01*
X23656661Y-70688919D01*
X23656665Y-70688914D01*
X23656670Y-70688911D01*
X23818911Y-70526670D01*
X23818914Y-70526665D01*
X23818919Y-70526661D01*
X23958611Y-70344612D01*
X24073344Y-70145888D01*
X24161158Y-69933887D01*
X24220548Y-69712238D01*
X24250500Y-69484734D01*
X24250500Y-69255266D01*
X24220548Y-69027762D01*
X24161158Y-68806113D01*
X24073344Y-68594112D01*
X23958611Y-68395388D01*
X23958608Y-68395385D01*
X23958607Y-68395382D01*
X23818918Y-68213338D01*
X23818911Y-68213330D01*
X23656670Y-68051089D01*
X23656661Y-68051081D01*
X23474617Y-67911392D01*
X23275890Y-67796657D01*
X23275876Y-67796650D01*
X23063887Y-67708842D01*
X22842238Y-67649452D01*
X22804215Y-67644446D01*
X22614741Y-67619500D01*
X22614734Y-67619500D01*
X22385266Y-67619500D01*
X22385258Y-67619500D01*
X22168715Y-67648009D01*
X22157762Y-67649452D01*
X22064076Y-67674554D01*
X21936112Y-67708842D01*
X21724123Y-67796650D01*
X21724109Y-67796657D01*
X21525382Y-67911392D01*
X21343338Y-68051081D01*
X21181081Y-68213338D01*
X21041392Y-68395382D01*
X20926657Y-68594109D01*
X20926650Y-68594123D01*
X20838842Y-68806112D01*
X20779453Y-69027759D01*
X20779451Y-69027770D01*
X20749500Y-69255258D01*
X16500500Y-69255258D01*
X16500500Y-65255258D01*
X20749500Y-65255258D01*
X20749500Y-65484741D01*
X20768690Y-65630496D01*
X20779452Y-65712238D01*
X20779453Y-65712240D01*
X20838842Y-65933887D01*
X20926650Y-66145876D01*
X20926657Y-66145890D01*
X21041392Y-66344617D01*
X21181081Y-66526661D01*
X21181089Y-66526670D01*
X21343330Y-66688911D01*
X21343338Y-66688918D01*
X21525382Y-66828607D01*
X21525385Y-66828608D01*
X21525388Y-66828611D01*
X21724112Y-66943344D01*
X21724117Y-66943346D01*
X21724123Y-66943349D01*
X21815480Y-66981190D01*
X21936113Y-67031158D01*
X22157762Y-67090548D01*
X22385266Y-67120500D01*
X22385273Y-67120500D01*
X22614727Y-67120500D01*
X22614734Y-67120500D01*
X22842238Y-67090548D01*
X23063887Y-67031158D01*
X23275888Y-66943344D01*
X23474612Y-66828611D01*
X23656661Y-66688919D01*
X23656665Y-66688914D01*
X23656670Y-66688911D01*
X23818911Y-66526670D01*
X23818914Y-66526665D01*
X23818919Y-66526661D01*
X23958611Y-66344612D01*
X24073344Y-66145888D01*
X24161158Y-65933887D01*
X24220548Y-65712238D01*
X24250500Y-65484734D01*
X24250500Y-65255266D01*
X24220548Y-65027762D01*
X24161158Y-64806113D01*
X24073344Y-64594112D01*
X23958611Y-64395388D01*
X23958608Y-64395385D01*
X23958607Y-64395382D01*
X23818918Y-64213338D01*
X23818911Y-64213330D01*
X23656670Y-64051089D01*
X23656661Y-64051081D01*
X23474617Y-63911392D01*
X23275890Y-63796657D01*
X23275876Y-63796650D01*
X23063887Y-63708842D01*
X22842238Y-63649452D01*
X22804215Y-63644446D01*
X22614741Y-63619500D01*
X22614734Y-63619500D01*
X22385266Y-63619500D01*
X22385258Y-63619500D01*
X22168715Y-63648009D01*
X22157762Y-63649452D01*
X22064076Y-63674554D01*
X21936112Y-63708842D01*
X21724123Y-63796650D01*
X21724109Y-63796657D01*
X21525382Y-63911392D01*
X21343338Y-64051081D01*
X21181081Y-64213338D01*
X21041392Y-64395382D01*
X20926657Y-64594109D01*
X20926650Y-64594123D01*
X20838842Y-64806112D01*
X20779453Y-65027759D01*
X20779451Y-65027770D01*
X20749500Y-65255258D01*
X16500500Y-65255258D01*
X16500500Y-61255258D01*
X20749500Y-61255258D01*
X20749500Y-61484741D01*
X20765722Y-61607951D01*
X20779452Y-61712238D01*
X20788675Y-61746658D01*
X20838842Y-61933887D01*
X20926650Y-62145876D01*
X20926657Y-62145890D01*
X21041392Y-62344617D01*
X21181081Y-62526661D01*
X21181089Y-62526670D01*
X21343330Y-62688911D01*
X21343338Y-62688918D01*
X21525382Y-62828607D01*
X21525385Y-62828608D01*
X21525388Y-62828611D01*
X21724112Y-62943344D01*
X21724117Y-62943346D01*
X21724123Y-62943349D01*
X21815480Y-62981190D01*
X21936113Y-63031158D01*
X22157762Y-63090548D01*
X22385266Y-63120500D01*
X22385273Y-63120500D01*
X22614727Y-63120500D01*
X22614734Y-63120500D01*
X22842238Y-63090548D01*
X23063887Y-63031158D01*
X23275888Y-62943344D01*
X23474612Y-62828611D01*
X23656661Y-62688919D01*
X23656665Y-62688914D01*
X23656670Y-62688911D01*
X23818911Y-62526670D01*
X23818914Y-62526665D01*
X23818919Y-62526661D01*
X23958611Y-62344612D01*
X24073344Y-62145888D01*
X24161158Y-61933887D01*
X24220548Y-61712238D01*
X24250500Y-61484734D01*
X24250500Y-61255266D01*
X24220548Y-61027762D01*
X24161158Y-60806113D01*
X24073344Y-60594112D01*
X23958611Y-60395388D01*
X23958608Y-60395385D01*
X23958607Y-60395382D01*
X23818918Y-60213338D01*
X23818911Y-60213330D01*
X23656670Y-60051089D01*
X23656661Y-60051081D01*
X23474617Y-59911392D01*
X23275890Y-59796657D01*
X23275876Y-59796650D01*
X23063887Y-59708842D01*
X22960321Y-59681092D01*
X22842238Y-59649452D01*
X22804215Y-59644446D01*
X22614741Y-59619500D01*
X22614734Y-59619500D01*
X22385266Y-59619500D01*
X22385258Y-59619500D01*
X22168715Y-59648009D01*
X22157762Y-59649452D01*
X22064076Y-59674554D01*
X21936112Y-59708842D01*
X21724123Y-59796650D01*
X21724109Y-59796657D01*
X21525382Y-59911392D01*
X21343338Y-60051081D01*
X21181081Y-60213338D01*
X21041392Y-60395382D01*
X20926657Y-60594109D01*
X20926650Y-60594123D01*
X20838842Y-60806112D01*
X20779453Y-61027759D01*
X20779451Y-61027770D01*
X20749500Y-61255258D01*
X16500500Y-61255258D01*
X16500500Y-55504427D01*
X16500816Y-55495581D01*
X16515130Y-55295443D01*
X16517646Y-55277938D01*
X16559356Y-55086200D01*
X16564335Y-55069242D01*
X16632911Y-54885382D01*
X16640251Y-54869310D01*
X16734294Y-54697083D01*
X16743850Y-54682214D01*
X16861443Y-54525128D01*
X16873017Y-54511771D01*
X17011771Y-54373017D01*
X17025128Y-54361443D01*
X17182214Y-54243850D01*
X17197083Y-54234294D01*
X17369310Y-54140251D01*
X17385382Y-54132911D01*
X17569242Y-54064335D01*
X17586200Y-54059356D01*
X17777938Y-54017646D01*
X17795436Y-54015130D01*
X17995582Y-54000816D01*
X18004428Y-54000500D01*
X21151254Y-54000500D01*
X21196630Y-53994990D01*
X21451551Y-53964037D01*
X21745266Y-53891643D01*
X22028113Y-53784373D01*
X22295968Y-53643793D01*
X22544924Y-53471950D01*
X22771352Y-53271352D01*
X22971950Y-53044924D01*
X23143793Y-52795968D01*
X23284373Y-52528113D01*
X23391643Y-52245266D01*
X23464037Y-51951551D01*
X23500500Y-51651252D01*
X23500500Y-51500000D01*
X23500500Y-51434108D01*
X23500500Y-38421158D01*
X23520185Y-38354119D01*
X23572989Y-38308364D01*
X23642147Y-38298420D01*
X23663505Y-38303452D01*
X23772305Y-38339505D01*
X23772309Y-38339506D01*
X23875019Y-38349999D01*
X24149999Y-38349999D01*
X24650000Y-38349999D01*
X24924972Y-38349999D01*
X24924986Y-38349998D01*
X25027697Y-38339505D01*
X25194119Y-38284358D01*
X25194124Y-38284356D01*
X25343345Y-38192315D01*
X25467315Y-38068345D01*
X25559356Y-37919124D01*
X25559358Y-37919119D01*
X25614505Y-37752697D01*
X25614506Y-37752690D01*
X25624999Y-37649986D01*
X25625000Y-37649973D01*
X25625000Y-37600000D01*
X24650000Y-37600000D01*
X24650000Y-38349999D01*
X24149999Y-38349999D01*
X24150000Y-38349998D01*
X24150000Y-37474000D01*
X24169685Y-37406961D01*
X24222489Y-37361206D01*
X24274000Y-37350000D01*
X24400000Y-37350000D01*
X24400000Y-37224000D01*
X24419685Y-37156961D01*
X24472489Y-37111206D01*
X24524000Y-37100000D01*
X25624999Y-37100000D01*
X25624999Y-37050028D01*
X25624998Y-37050013D01*
X25614505Y-36947302D01*
X25559358Y-36780880D01*
X25559356Y-36780875D01*
X25467315Y-36631654D01*
X25343345Y-36507684D01*
X25200109Y-36419335D01*
X25153384Y-36367387D01*
X25142163Y-36298424D01*
X25170006Y-36234342D01*
X25189715Y-36215424D01*
X25303282Y-36128282D01*
X25399536Y-36002841D01*
X25399864Y-36002050D01*
X25400318Y-36001486D01*
X25403602Y-35995799D01*
X25404488Y-35996310D01*
X25443704Y-35947645D01*
X25509997Y-35925579D01*
X25514426Y-35925500D01*
X26475500Y-35925500D01*
X26542539Y-35945185D01*
G37*
G04 #@! TD.AperFunction*
G04 #@! TA.AperFunction,Conductor*
G36*
X40818834Y-50378778D02*
G01*
X40874767Y-50420650D01*
X40899184Y-50486114D01*
X40899500Y-50494960D01*
X40899500Y-50695568D01*
X40894716Y-50711858D01*
X40894954Y-50728836D01*
X40880743Y-50761142D01*
X40876091Y-50768607D01*
X40875305Y-50769394D01*
X40801380Y-50880031D01*
X40790897Y-50905337D01*
X40785491Y-50914015D01*
X40733331Y-50960504D01*
X40664319Y-50971414D01*
X40604762Y-50946817D01*
X40540233Y-50897302D01*
X40540232Y-50897301D01*
X40540230Y-50897300D01*
X40428668Y-50851090D01*
X40400236Y-50839313D01*
X40381640Y-50836864D01*
X40317745Y-50808598D01*
X40279275Y-50750273D01*
X40278444Y-50680408D01*
X40315517Y-50621185D01*
X40363234Y-50594849D01*
X40476195Y-50562031D01*
X40615374Y-50479721D01*
X40615383Y-50479714D01*
X40687819Y-50407279D01*
X40749142Y-50373794D01*
X40818834Y-50378778D01*
G37*
G04 #@! TD.AperFunction*
G04 #@! TA.AperFunction,Conductor*
G36*
X35953280Y-47523092D02*
G01*
X35968468Y-47525498D01*
X35968475Y-47525499D01*
X35968481Y-47525500D01*
X36131518Y-47525499D01*
X36131523Y-47525499D01*
X36131523Y-47525498D01*
X36225304Y-47510646D01*
X36225303Y-47510646D01*
X36230602Y-47509807D01*
X36269397Y-47509807D01*
X36353280Y-47523092D01*
X36368468Y-47525498D01*
X36368475Y-47525499D01*
X36368481Y-47525500D01*
X36531518Y-47525499D01*
X36531522Y-47525499D01*
X36569492Y-47519485D01*
X36592247Y-47515881D01*
X36661539Y-47524835D01*
X36714991Y-47569831D01*
X36735631Y-47636583D01*
X36734118Y-47657751D01*
X36724500Y-47718480D01*
X36724500Y-47881518D01*
X36740193Y-47980603D01*
X36740192Y-48019396D01*
X36724500Y-48118474D01*
X36724500Y-48281518D01*
X36740193Y-48380603D01*
X36741292Y-48410278D01*
X36740236Y-48422963D01*
X36739354Y-48424696D01*
X36724500Y-48518481D01*
X36724500Y-48612144D01*
X36724073Y-48617285D01*
X36713265Y-48645266D01*
X36704815Y-48674045D01*
X36700809Y-48677515D01*
X36698899Y-48682462D01*
X36674675Y-48700161D01*
X36652011Y-48719800D01*
X36646655Y-48720633D01*
X36642484Y-48723682D01*
X36617450Y-48725181D01*
X36585719Y-48730122D01*
X36543057Y-48725000D01*
X36356946Y-48725000D01*
X36268556Y-48735613D01*
X36127902Y-48791080D01*
X36127898Y-48791082D01*
X36051121Y-48849304D01*
X36036745Y-48855250D01*
X36026896Y-48863662D01*
X36005192Y-48868302D01*
X35992961Y-48873362D01*
X35984614Y-48874500D01*
X35968482Y-48874501D01*
X35874696Y-48889354D01*
X35874308Y-48889551D01*
X35866764Y-48890581D01*
X35864195Y-48890192D01*
X35830603Y-48890192D01*
X35731525Y-48874500D01*
X35568481Y-48874500D01*
X35507751Y-48884119D01*
X35438458Y-48875163D01*
X35385007Y-48830166D01*
X35364368Y-48763414D01*
X35365882Y-48742246D01*
X35372547Y-48700161D01*
X35375500Y-48681519D01*
X35375499Y-48518482D01*
X35375499Y-48518481D01*
X35375499Y-48518476D01*
X35359807Y-48419397D01*
X35359807Y-48380601D01*
X35364580Y-48350463D01*
X35375500Y-48281519D01*
X35375499Y-48118482D01*
X35375499Y-48118481D01*
X35375499Y-48118476D01*
X35359807Y-48019397D01*
X35359807Y-47980601D01*
X35375499Y-47881523D01*
X35375500Y-47881519D01*
X35375499Y-47718482D01*
X35375499Y-47718480D01*
X35375499Y-47718477D01*
X35365881Y-47657753D01*
X35374835Y-47588460D01*
X35419832Y-47535008D01*
X35486583Y-47514368D01*
X35507752Y-47515882D01*
X35562167Y-47524500D01*
X35568468Y-47525498D01*
X35568475Y-47525499D01*
X35568481Y-47525500D01*
X35731518Y-47525499D01*
X35731523Y-47525499D01*
X35731523Y-47525498D01*
X35825304Y-47510646D01*
X35825303Y-47510646D01*
X35830602Y-47509807D01*
X35869397Y-47509807D01*
X35953280Y-47523092D01*
G37*
G04 #@! TD.AperFunction*
G04 #@! TA.AperFunction,Conductor*
G36*
X42998998Y-38144294D02*
G01*
X43012434Y-38143333D01*
X43031872Y-38153947D01*
X43053116Y-38160185D01*
X43061935Y-38170362D01*
X43073757Y-38176818D01*
X43084371Y-38196255D01*
X43098871Y-38212989D01*
X43100787Y-38226318D01*
X43107243Y-38238140D01*
X43105663Y-38260228D01*
X43108815Y-38282147D01*
X43103111Y-38295917D01*
X43102259Y-38307832D01*
X43085345Y-38338809D01*
X43084507Y-38339928D01*
X43084506Y-38339930D01*
X43084505Y-38339932D01*
X43035716Y-38470737D01*
X43035715Y-38470741D01*
X43029500Y-38528540D01*
X43029500Y-38717498D01*
X43026199Y-38730976D01*
X43027158Y-38741485D01*
X43017003Y-38768532D01*
X43015472Y-38774788D01*
X43014226Y-38777177D01*
X42980201Y-38836113D01*
X42980201Y-38836114D01*
X42976682Y-38849245D01*
X42976681Y-38849248D01*
X42949500Y-38950691D01*
X42949500Y-42718749D01*
X42929815Y-42785788D01*
X42894391Y-42821851D01*
X42785331Y-42894723D01*
X42785327Y-42894726D01*
X42694726Y-42985327D01*
X42694723Y-42985331D01*
X42623538Y-43091866D01*
X42623533Y-43091875D01*
X42574499Y-43210255D01*
X42574497Y-43210261D01*
X42549500Y-43335928D01*
X42549500Y-43335931D01*
X42549500Y-43464069D01*
X42549500Y-43464071D01*
X42549499Y-43464071D01*
X42574497Y-43589738D01*
X42574499Y-43589744D01*
X42623533Y-43708124D01*
X42623538Y-43708133D01*
X42694723Y-43814668D01*
X42694726Y-43814672D01*
X42785327Y-43905273D01*
X42785331Y-43905276D01*
X42891866Y-43976461D01*
X42891873Y-43976465D01*
X42917954Y-43987268D01*
X42972357Y-44031107D01*
X42981902Y-44047368D01*
X43010802Y-44106484D01*
X43093514Y-44189196D01*
X43093515Y-44189196D01*
X43093517Y-44189198D01*
X43198607Y-44240573D01*
X43232673Y-44245536D01*
X43266739Y-44250500D01*
X43266740Y-44250500D01*
X44675500Y-44250500D01*
X44742539Y-44270185D01*
X44788294Y-44322989D01*
X44799500Y-44374500D01*
X44799500Y-46571895D01*
X44779815Y-46638934D01*
X44727011Y-46684689D01*
X44657853Y-46694633D01*
X44594297Y-46665608D01*
X44572398Y-46640786D01*
X44524695Y-46569394D01*
X44524692Y-46569390D01*
X44430609Y-46475307D01*
X44430601Y-46475301D01*
X44319979Y-46401386D01*
X44319972Y-46401382D01*
X44319969Y-46401380D01*
X44319965Y-46401378D01*
X44319961Y-46401376D01*
X44197040Y-46350461D01*
X44197030Y-46350458D01*
X44066533Y-46324500D01*
X44066531Y-46324500D01*
X43933469Y-46324500D01*
X43933467Y-46324500D01*
X43802969Y-46350458D01*
X43802959Y-46350461D01*
X43680038Y-46401376D01*
X43680020Y-46401386D01*
X43569398Y-46475301D01*
X43569390Y-46475307D01*
X43475307Y-46569390D01*
X43475301Y-46569398D01*
X43401386Y-46680020D01*
X43401378Y-46680035D01*
X43377427Y-46737859D01*
X43333586Y-46792262D01*
X43267292Y-46814327D01*
X43215415Y-46804968D01*
X43210577Y-46802964D01*
X43204532Y-46800460D01*
X43204530Y-46800459D01*
X43204526Y-46800458D01*
X43074029Y-46774500D01*
X43074027Y-46774500D01*
X42940965Y-46774500D01*
X42940963Y-46774500D01*
X42810465Y-46800458D01*
X42810455Y-46800461D01*
X42687534Y-46851376D01*
X42687516Y-46851386D01*
X42576894Y-46925301D01*
X42576886Y-46925307D01*
X42482803Y-47019390D01*
X42482797Y-47019398D01*
X42408882Y-47130020D01*
X42408872Y-47130038D01*
X42357957Y-47252959D01*
X42357954Y-47252969D01*
X42331996Y-47383466D01*
X42331996Y-47383469D01*
X42331996Y-47516531D01*
X42331996Y-47516533D01*
X42331995Y-47516533D01*
X42357954Y-47647030D01*
X42357957Y-47647040D01*
X42408872Y-47769961D01*
X42408882Y-47769979D01*
X42482797Y-47880601D01*
X42482803Y-47880609D01*
X42576887Y-47974693D01*
X42576890Y-47974695D01*
X42644391Y-48019798D01*
X42689195Y-48073408D01*
X42699500Y-48122899D01*
X42699500Y-48444834D01*
X42679815Y-48511873D01*
X42627011Y-48557628D01*
X42557853Y-48567572D01*
X42494297Y-48538547D01*
X42487819Y-48532515D01*
X42430613Y-48475309D01*
X42430605Y-48475303D01*
X42319983Y-48401388D01*
X42319976Y-48401384D01*
X42319973Y-48401382D01*
X42319969Y-48401380D01*
X42319965Y-48401378D01*
X42197044Y-48350463D01*
X42197034Y-48350460D01*
X42066537Y-48324502D01*
X42066535Y-48324502D01*
X41933473Y-48324502D01*
X41927381Y-48324502D01*
X41927381Y-48322436D01*
X41867979Y-48311155D01*
X41817282Y-48263076D01*
X41800500Y-48200785D01*
X41800500Y-39330693D01*
X41800500Y-39330691D01*
X41769799Y-39216114D01*
X41759604Y-39198456D01*
X41754947Y-39190389D01*
X41754946Y-39190388D01*
X41751193Y-39183887D01*
X41710490Y-39113387D01*
X41656502Y-39059399D01*
X41651248Y-39052408D01*
X41641925Y-39027556D01*
X41629209Y-39004268D01*
X41629677Y-38994905D01*
X41626708Y-38986990D01*
X41631090Y-38966658D01*
X41632444Y-38939593D01*
X41662528Y-38847007D01*
X41670938Y-38821125D01*
X41670938Y-38821123D01*
X41670940Y-38821118D01*
X41687352Y-38717498D01*
X41700500Y-38634486D01*
X41700500Y-38445514D01*
X41684008Y-38341392D01*
X41692962Y-38272098D01*
X41737958Y-38218646D01*
X41804710Y-38198006D01*
X41872023Y-38216731D01*
X41875372Y-38218891D01*
X41944498Y-38265080D01*
X41944511Y-38265087D01*
X42047708Y-38307832D01*
X42081087Y-38321658D01*
X42081091Y-38321658D01*
X42081092Y-38321659D01*
X42226079Y-38350500D01*
X42226082Y-38350500D01*
X42373920Y-38350500D01*
X42471462Y-38331096D01*
X42518913Y-38321658D01*
X42655495Y-38265084D01*
X42778416Y-38182951D01*
X42778419Y-38182948D01*
X42784549Y-38176819D01*
X42845872Y-38143334D01*
X42872230Y-38140500D01*
X42986077Y-38140500D01*
X42998998Y-38144294D01*
G37*
G04 #@! TD.AperFunction*
G04 #@! TA.AperFunction,Conductor*
G36*
X40858362Y-43690856D02*
G01*
X40895082Y-43750299D01*
X40899500Y-43783105D01*
X40899500Y-45701048D01*
X40879815Y-45768087D01*
X40827011Y-45813842D01*
X40757853Y-45823786D01*
X40701192Y-45800317D01*
X40680071Y-45784507D01*
X40680070Y-45784506D01*
X40680068Y-45784505D01*
X40549262Y-45735716D01*
X40549260Y-45735715D01*
X40549258Y-45735715D01*
X40491459Y-45729500D01*
X40491443Y-45729500D01*
X40424500Y-45729500D01*
X40357461Y-45709815D01*
X40311706Y-45657011D01*
X40300500Y-45605500D01*
X40300500Y-44103899D01*
X40320185Y-44036860D01*
X40372989Y-43991105D01*
X40377012Y-43989352D01*
X40408127Y-43976465D01*
X40514669Y-43905276D01*
X40605276Y-43814669D01*
X40672398Y-43714214D01*
X40726010Y-43669409D01*
X40795335Y-43660702D01*
X40858362Y-43690856D01*
G37*
G04 #@! TD.AperFunction*
G04 #@! TA.AperFunction,Conductor*
G36*
X38218834Y-39920782D02*
G01*
X38274767Y-39962654D01*
X38299184Y-40028118D01*
X38299500Y-40036964D01*
X38299500Y-41876000D01*
X38279815Y-41943039D01*
X38227011Y-41988794D01*
X38175500Y-42000000D01*
X37800000Y-42000000D01*
X37800000Y-44400000D01*
X37913534Y-44400000D01*
X37980573Y-44419685D01*
X38026328Y-44472489D01*
X38036272Y-44541647D01*
X38007247Y-44605203D01*
X38001215Y-44611681D01*
X37112181Y-45500715D01*
X37050858Y-45534200D01*
X36981166Y-45529216D01*
X36925233Y-45487344D01*
X36900816Y-45421880D01*
X36900500Y-45413034D01*
X36900500Y-44524000D01*
X36920185Y-44456961D01*
X36972989Y-44411206D01*
X37024500Y-44400000D01*
X37300000Y-44400000D01*
X37300000Y-42000000D01*
X37024500Y-42000000D01*
X36957461Y-41980315D01*
X36911706Y-41927511D01*
X36900500Y-41876000D01*
X36900500Y-41187964D01*
X36920185Y-41120925D01*
X36936814Y-41100288D01*
X38087819Y-39949282D01*
X38149142Y-39915798D01*
X38218834Y-39920782D01*
G37*
G04 #@! TD.AperFunction*
G04 #@! TA.AperFunction,Conductor*
G36*
X34737384Y-39527950D02*
G01*
X34790801Y-39566760D01*
X34959168Y-39652547D01*
X35113818Y-39702796D01*
X35171494Y-39742234D01*
X35198692Y-39806592D01*
X35199500Y-39820727D01*
X35199500Y-44600783D01*
X35179815Y-44667822D01*
X35127011Y-44713577D01*
X35072623Y-44722643D01*
X35072623Y-44724500D01*
X34933467Y-44724500D01*
X34802969Y-44750458D01*
X34802968Y-44750459D01*
X34802967Y-44750459D01*
X34802964Y-44750460D01*
X34715008Y-44786891D01*
X34711952Y-44788158D01*
X34642482Y-44795626D01*
X34580003Y-44764350D01*
X34544351Y-44704261D01*
X34540500Y-44673596D01*
X34540500Y-39628269D01*
X34560185Y-39561230D01*
X34612989Y-39515475D01*
X34682147Y-39505531D01*
X34737384Y-39527950D01*
G37*
G04 #@! TD.AperFunction*
G04 #@! TA.AperFunction,Conductor*
G36*
X40222949Y-39711584D02*
G01*
X40241801Y-39714570D01*
X40405514Y-39740500D01*
X40405519Y-39740500D01*
X40594486Y-39740500D01*
X40739284Y-39717565D01*
X40756102Y-39714902D01*
X40825395Y-39723856D01*
X40878847Y-39768852D01*
X40899487Y-39835604D01*
X40899500Y-39837375D01*
X40899500Y-43016894D01*
X40879815Y-43083933D01*
X40827011Y-43129688D01*
X40757853Y-43139632D01*
X40694297Y-43110607D01*
X40672398Y-43085785D01*
X40605276Y-42985331D01*
X40605273Y-42985327D01*
X40514672Y-42894726D01*
X40514668Y-42894723D01*
X40408133Y-42823538D01*
X40408124Y-42823533D01*
X40289744Y-42774499D01*
X40289738Y-42774497D01*
X40164071Y-42749500D01*
X40164069Y-42749500D01*
X40035931Y-42749500D01*
X40035929Y-42749500D01*
X39998692Y-42756907D01*
X39929100Y-42750680D01*
X39873923Y-42707817D01*
X39850678Y-42641928D01*
X39850500Y-42635290D01*
X39850500Y-40897839D01*
X39870185Y-40830800D01*
X39905608Y-40794737D01*
X39964667Y-40755276D01*
X40055274Y-40664669D01*
X40126463Y-40558127D01*
X40175499Y-40439744D01*
X40193407Y-40349716D01*
X40200498Y-40314071D01*
X40200498Y-40185928D01*
X40175500Y-40060261D01*
X40175499Y-40060260D01*
X40175499Y-40060256D01*
X40126463Y-39941873D01*
X40100454Y-39902948D01*
X40079577Y-39836272D01*
X40098061Y-39768892D01*
X40150040Y-39722201D01*
X40219010Y-39711025D01*
X40222949Y-39711584D01*
G37*
G04 #@! TD.AperFunction*
G04 #@! TA.AperFunction,Conductor*
G36*
X43304418Y-25500816D02*
G01*
X43504561Y-25515130D01*
X43522063Y-25517647D01*
X43713795Y-25559355D01*
X43730760Y-25564336D01*
X43914611Y-25632909D01*
X43930694Y-25640253D01*
X44047495Y-25704032D01*
X44102908Y-25734290D01*
X44117791Y-25743855D01*
X44274864Y-25861438D01*
X44288235Y-25873024D01*
X44426975Y-26011764D01*
X44438561Y-26025135D01*
X44556144Y-26182208D01*
X44565709Y-26197091D01*
X44659743Y-26369300D01*
X44667093Y-26385394D01*
X44735661Y-26569234D01*
X44740645Y-26586209D01*
X44782351Y-26777931D01*
X44784869Y-26795442D01*
X44788682Y-26848748D01*
X44799091Y-26994287D01*
X44799184Y-26995580D01*
X44799500Y-27004427D01*
X44799500Y-42025500D01*
X44779815Y-42092539D01*
X44727011Y-42138294D01*
X44675500Y-42149500D01*
X43974500Y-42149500D01*
X43907461Y-42129815D01*
X43861706Y-42077011D01*
X43850500Y-42025500D01*
X43850500Y-39450585D01*
X43870185Y-39383546D01*
X43922989Y-39337791D01*
X43961248Y-39327295D01*
X43989262Y-39324284D01*
X43995185Y-39322075D01*
X44074924Y-39292333D01*
X44120068Y-39275495D01*
X44120068Y-39275494D01*
X44120070Y-39275494D01*
X44120071Y-39275493D01*
X44231831Y-39191831D01*
X44315492Y-39080072D01*
X44315491Y-39080072D01*
X44315495Y-39080068D01*
X44364284Y-38949262D01*
X44366607Y-38927647D01*
X44370499Y-38891459D01*
X44370499Y-38891452D01*
X44370500Y-38891443D01*
X44370499Y-38528558D01*
X44364284Y-38470738D01*
X44354875Y-38445513D01*
X44342833Y-38413226D01*
X44315495Y-38339932D01*
X44266369Y-38274307D01*
X44241954Y-38208847D01*
X44256805Y-38140574D01*
X44266363Y-38125700D01*
X44315495Y-38060068D01*
X44364284Y-37929262D01*
X44366607Y-37907647D01*
X44370499Y-37871459D01*
X44370499Y-37871452D01*
X44370500Y-37871443D01*
X44370499Y-37508558D01*
X44364284Y-37450738D01*
X44357013Y-37431245D01*
X44315494Y-37319929D01*
X44315493Y-37319928D01*
X44231831Y-37208168D01*
X44120072Y-37124507D01*
X44120069Y-37124506D01*
X44120068Y-37124505D01*
X43989262Y-37075716D01*
X43989260Y-37075715D01*
X43989258Y-37075715D01*
X43931451Y-37069500D01*
X43468560Y-37069500D01*
X43468551Y-37069501D01*
X43410737Y-37075715D01*
X43410734Y-37075716D01*
X43279929Y-37124505D01*
X43279928Y-37124506D01*
X43161069Y-37213483D01*
X43159101Y-37210855D01*
X43146228Y-37217884D01*
X43120410Y-37234477D01*
X43114209Y-37235368D01*
X43111833Y-37236666D01*
X43085475Y-37239500D01*
X43028019Y-37239500D01*
X42960980Y-37219815D01*
X42924917Y-37184391D01*
X42882951Y-37121584D01*
X42882949Y-37121581D01*
X42778419Y-37017051D01*
X42778415Y-37017048D01*
X42655501Y-36934919D01*
X42655488Y-36934912D01*
X42518917Y-36878343D01*
X42518907Y-36878340D01*
X42373920Y-36849500D01*
X42373918Y-36849500D01*
X42226082Y-36849500D01*
X42224500Y-36849500D01*
X42157461Y-36829815D01*
X42111706Y-36777011D01*
X42100500Y-36725500D01*
X42100500Y-28550693D01*
X42100500Y-28550691D01*
X42069799Y-28436114D01*
X42042893Y-28389511D01*
X42010490Y-28333386D01*
X41662695Y-27985591D01*
X41629210Y-27924268D01*
X41632444Y-27859592D01*
X41670940Y-27741118D01*
X41700500Y-27554486D01*
X41700500Y-27365513D01*
X41670940Y-27178881D01*
X41632280Y-27059901D01*
X41612547Y-26999168D01*
X41612545Y-26999165D01*
X41612545Y-26999163D01*
X41526759Y-26830800D01*
X41415690Y-26677927D01*
X41282073Y-26544310D01*
X41129199Y-26433240D01*
X41123374Y-26430272D01*
X40960836Y-26347454D01*
X40781118Y-26289059D01*
X40594486Y-26259500D01*
X40594481Y-26259500D01*
X40405519Y-26259500D01*
X40405514Y-26259500D01*
X40218881Y-26289059D01*
X40039163Y-26347454D01*
X39870800Y-26433240D01*
X39783579Y-26496610D01*
X39717927Y-26544310D01*
X39717925Y-26544312D01*
X39717924Y-26544312D01*
X39584312Y-26677924D01*
X39584312Y-26677925D01*
X39584310Y-26677927D01*
X39536610Y-26743579D01*
X39473240Y-26830800D01*
X39387454Y-26999163D01*
X39347931Y-27120803D01*
X39308493Y-27178478D01*
X39244134Y-27205676D01*
X39175288Y-27193761D01*
X39123812Y-27146516D01*
X39112069Y-27120803D01*
X39092280Y-27059901D01*
X39072547Y-26999168D01*
X39072545Y-26999165D01*
X39072545Y-26999163D01*
X38986759Y-26830800D01*
X38875690Y-26677927D01*
X38742073Y-26544310D01*
X38589199Y-26433240D01*
X38583374Y-26430272D01*
X38420836Y-26347454D01*
X38241118Y-26289059D01*
X38054486Y-26259500D01*
X38054481Y-26259500D01*
X37865519Y-26259500D01*
X37865514Y-26259500D01*
X37678881Y-26289059D01*
X37499163Y-26347454D01*
X37330800Y-26433240D01*
X37243579Y-26496610D01*
X37177927Y-26544310D01*
X37177925Y-26544312D01*
X37177924Y-26544312D01*
X37044312Y-26677924D01*
X37044312Y-26677925D01*
X37044310Y-26677927D01*
X36996610Y-26743579D01*
X36933240Y-26830800D01*
X36847454Y-26999163D01*
X36807931Y-27120803D01*
X36768493Y-27178478D01*
X36704134Y-27205676D01*
X36635288Y-27193761D01*
X36583812Y-27146516D01*
X36572069Y-27120803D01*
X36552280Y-27059901D01*
X36532547Y-26999168D01*
X36532545Y-26999165D01*
X36532545Y-26999163D01*
X36446759Y-26830800D01*
X36335690Y-26677927D01*
X36202073Y-26544310D01*
X36049199Y-26433240D01*
X36043374Y-26430272D01*
X35880836Y-26347454D01*
X35701118Y-26289059D01*
X35514486Y-26259500D01*
X35514481Y-26259500D01*
X35325519Y-26259500D01*
X35325514Y-26259500D01*
X35138881Y-26289059D01*
X34959163Y-26347454D01*
X34790800Y-26433240D01*
X34703579Y-26496610D01*
X34637927Y-26544310D01*
X34637925Y-26544312D01*
X34637924Y-26544312D01*
X34504312Y-26677924D01*
X34504312Y-26677925D01*
X34504310Y-26677927D01*
X34456610Y-26743579D01*
X34393240Y-26830800D01*
X34307454Y-26999163D01*
X34267931Y-27120803D01*
X34228493Y-27178478D01*
X34164134Y-27205676D01*
X34095288Y-27193761D01*
X34043812Y-27146516D01*
X34032069Y-27120803D01*
X34012280Y-27059901D01*
X33992547Y-26999168D01*
X33992545Y-26999165D01*
X33992545Y-26999163D01*
X33906759Y-26830800D01*
X33795690Y-26677927D01*
X33662073Y-26544310D01*
X33509199Y-26433240D01*
X33503374Y-26430272D01*
X33340836Y-26347454D01*
X33161118Y-26289059D01*
X32974486Y-26259500D01*
X32974481Y-26259500D01*
X32785519Y-26259500D01*
X32785514Y-26259500D01*
X32598881Y-26289059D01*
X32419163Y-26347454D01*
X32250800Y-26433240D01*
X32163579Y-26496610D01*
X32097927Y-26544310D01*
X32097925Y-26544312D01*
X32097924Y-26544312D01*
X31964312Y-26677924D01*
X31964312Y-26677925D01*
X31964310Y-26677927D01*
X31910171Y-26752442D01*
X31853238Y-26830803D01*
X31804377Y-26926697D01*
X31756402Y-26977492D01*
X31688581Y-26994287D01*
X31622447Y-26971749D01*
X31583408Y-26926696D01*
X31494620Y-26752442D01*
X31369727Y-26580540D01*
X31369723Y-26580535D01*
X31219464Y-26430276D01*
X31219459Y-26430272D01*
X31047557Y-26305379D01*
X30858215Y-26208903D01*
X30656124Y-26143241D01*
X30590000Y-26132768D01*
X30590000Y-27026988D01*
X30532993Y-26994075D01*
X30405826Y-26960000D01*
X30274174Y-26960000D01*
X30147007Y-26994075D01*
X30090000Y-27026988D01*
X30090000Y-26132768D01*
X30089999Y-26132768D01*
X30023875Y-26143241D01*
X29821784Y-26208903D01*
X29632442Y-26305379D01*
X29460540Y-26430272D01*
X29460535Y-26430276D01*
X29310276Y-26580535D01*
X29310272Y-26580540D01*
X29185376Y-26752446D01*
X29185375Y-26752447D01*
X29096590Y-26926696D01*
X29048616Y-26977492D01*
X28980795Y-26994287D01*
X28914660Y-26971749D01*
X28875621Y-26926696D01*
X28826759Y-26830800D01*
X28715690Y-26677927D01*
X28582073Y-26544310D01*
X28429199Y-26433240D01*
X28423374Y-26430272D01*
X28260836Y-26347454D01*
X28081118Y-26289059D01*
X27894486Y-26259500D01*
X27894481Y-26259500D01*
X27705519Y-26259500D01*
X27705514Y-26259500D01*
X27518881Y-26289059D01*
X27339163Y-26347454D01*
X27170800Y-26433240D01*
X27083579Y-26496610D01*
X27017927Y-26544310D01*
X27017925Y-26544312D01*
X27017924Y-26544312D01*
X26884312Y-26677924D01*
X26884312Y-26677925D01*
X26884310Y-26677927D01*
X26836610Y-26743579D01*
X26773240Y-26830800D01*
X26687454Y-26999163D01*
X26629059Y-27178881D01*
X26599500Y-27365513D01*
X26599500Y-27554486D01*
X26629059Y-27741118D01*
X26687454Y-27920836D01*
X26766005Y-28074999D01*
X26773240Y-28089199D01*
X26884310Y-28242073D01*
X27017927Y-28375690D01*
X27170801Y-28486760D01*
X27206794Y-28505099D01*
X27217858Y-28515548D01*
X27231703Y-28521871D01*
X27242743Y-28539050D01*
X27257590Y-28553072D01*
X27261831Y-28568752D01*
X27269477Y-28580649D01*
X27274500Y-28615584D01*
X27274500Y-28844415D01*
X27254815Y-28911454D01*
X27206795Y-28954899D01*
X27170805Y-28973236D01*
X27068885Y-29047286D01*
X27017927Y-29084310D01*
X27017925Y-29084312D01*
X27017924Y-29084312D01*
X26884312Y-29217924D01*
X26884312Y-29217925D01*
X26884310Y-29217927D01*
X26857146Y-29255315D01*
X26773240Y-29370800D01*
X26687454Y-29539163D01*
X26629059Y-29718881D01*
X26599500Y-29905513D01*
X26599500Y-29975500D01*
X26579815Y-30042539D01*
X26527011Y-30088294D01*
X26475500Y-30099500D01*
X25244336Y-30099500D01*
X25240678Y-30098426D01*
X25236963Y-30099281D01*
X25207410Y-30088657D01*
X25177297Y-30079815D01*
X25173759Y-30076560D01*
X25171213Y-30075645D01*
X25145961Y-30050987D01*
X25094220Y-29983558D01*
X25069025Y-29918389D01*
X25083063Y-29849944D01*
X25104914Y-29820389D01*
X25222576Y-29702727D01*
X25311542Y-29558492D01*
X25311547Y-29558481D01*
X25364855Y-29397606D01*
X25374999Y-29298322D01*
X25375000Y-29298309D01*
X25375000Y-29275000D01*
X24524000Y-29275000D01*
X24456961Y-29255315D01*
X24411206Y-29202511D01*
X24400000Y-29151000D01*
X24400000Y-29025000D01*
X24274000Y-29025000D01*
X24206961Y-29005315D01*
X24161206Y-28952511D01*
X24150000Y-28901000D01*
X24150000Y-28775000D01*
X24650000Y-28775000D01*
X25374999Y-28775000D01*
X25374999Y-28751692D01*
X25374998Y-28751677D01*
X25364855Y-28652392D01*
X25311547Y-28491518D01*
X25311542Y-28491507D01*
X25222575Y-28347271D01*
X25222572Y-28347267D01*
X25102732Y-28227427D01*
X25102728Y-28227424D01*
X24958492Y-28138457D01*
X24958481Y-28138452D01*
X24797606Y-28085144D01*
X24698322Y-28075000D01*
X24650000Y-28075000D01*
X24650000Y-28775000D01*
X24150000Y-28775000D01*
X24150000Y-28075000D01*
X24149999Y-28074999D01*
X24101693Y-28075000D01*
X24101675Y-28075001D01*
X24002392Y-28085144D01*
X23841518Y-28138452D01*
X23841507Y-28138457D01*
X23691121Y-28231218D01*
X23689681Y-28228883D01*
X23636612Y-28250292D01*
X23567971Y-28237250D01*
X23517277Y-28189168D01*
X23500500Y-28126885D01*
X23500500Y-27004427D01*
X23500816Y-26995581D01*
X23502110Y-26977492D01*
X23515131Y-26795434D01*
X23517646Y-26777938D01*
X23559356Y-26586200D01*
X23564335Y-26569242D01*
X23632911Y-26385382D01*
X23640251Y-26369310D01*
X23734294Y-26197083D01*
X23743850Y-26182214D01*
X23861443Y-26025128D01*
X23873017Y-26011771D01*
X24011771Y-25873017D01*
X24025128Y-25861443D01*
X24182214Y-25743850D01*
X24197083Y-25734294D01*
X24369310Y-25640251D01*
X24385382Y-25632911D01*
X24569242Y-25564335D01*
X24586200Y-25559356D01*
X24777938Y-25517646D01*
X24795436Y-25515130D01*
X24995582Y-25500816D01*
X25004428Y-25500500D01*
X25065892Y-25500500D01*
X43234108Y-25500500D01*
X43295572Y-25500500D01*
X43304418Y-25500816D01*
G37*
G04 #@! TD.AperFunction*
G04 #@! TA.AperFunction,Conductor*
G36*
X30590000Y-38106988D02*
G01*
X30532993Y-38074075D01*
X30405826Y-38040000D01*
X30274174Y-38040000D01*
X30147007Y-38074075D01*
X30090000Y-38106988D01*
X30090000Y-36433012D01*
X30147007Y-36465925D01*
X30274174Y-36500000D01*
X30405826Y-36500000D01*
X30532993Y-36465925D01*
X30590000Y-36433012D01*
X30590000Y-38106988D01*
G37*
G04 #@! TD.AperFunction*
G04 #@! TA.AperFunction,Conductor*
G36*
X30590000Y-31327230D02*
G01*
X30656126Y-31316757D01*
X30656129Y-31316757D01*
X30858217Y-31251095D01*
X31047557Y-31154620D01*
X31219459Y-31029727D01*
X31219464Y-31029723D01*
X31369723Y-30879464D01*
X31369727Y-30879459D01*
X31494620Y-30707557D01*
X31583408Y-30533303D01*
X31631382Y-30482507D01*
X31699203Y-30465712D01*
X31765338Y-30488249D01*
X31804377Y-30533303D01*
X31853236Y-30629194D01*
X31853240Y-30629199D01*
X31964310Y-30782073D01*
X32097927Y-30915690D01*
X32205068Y-30993533D01*
X32250802Y-31026761D01*
X32303288Y-31053503D01*
X32336794Y-31070575D01*
X32387590Y-31118549D01*
X32404500Y-31181060D01*
X32404500Y-34818938D01*
X32384815Y-34885977D01*
X32336796Y-34929422D01*
X32250803Y-34973238D01*
X32174364Y-35028775D01*
X32097927Y-35084310D01*
X32097925Y-35084312D01*
X32097924Y-35084312D01*
X31964312Y-35217924D01*
X31964312Y-35217925D01*
X31964310Y-35217927D01*
X31910171Y-35292442D01*
X31853238Y-35370803D01*
X31804377Y-35466697D01*
X31756402Y-35517492D01*
X31688581Y-35534287D01*
X31622447Y-35511749D01*
X31583408Y-35466696D01*
X31494620Y-35292442D01*
X31369727Y-35120540D01*
X31369723Y-35120535D01*
X31219464Y-34970276D01*
X31219459Y-34970272D01*
X31047557Y-34845379D01*
X30858215Y-34748903D01*
X30656124Y-34683241D01*
X30590000Y-34672768D01*
X30590000Y-35566988D01*
X30532993Y-35534075D01*
X30405826Y-35500000D01*
X30274174Y-35500000D01*
X30147007Y-35534075D01*
X30090000Y-35566988D01*
X30090000Y-34672768D01*
X30089999Y-34672768D01*
X30023875Y-34683241D01*
X29821784Y-34748903D01*
X29632442Y-34845379D01*
X29460540Y-34970272D01*
X29460535Y-34970276D01*
X29310276Y-35120535D01*
X29310272Y-35120540D01*
X29185376Y-35292446D01*
X29185375Y-35292447D01*
X29096590Y-35466696D01*
X29048616Y-35517492D01*
X28980795Y-35534287D01*
X28914660Y-35511749D01*
X28875621Y-35466696D01*
X28826759Y-35370800D01*
X28715690Y-35217927D01*
X28582073Y-35084310D01*
X28490613Y-35017860D01*
X28429194Y-34973236D01*
X28393205Y-34954899D01*
X28342409Y-34906925D01*
X28325500Y-34844415D01*
X28325500Y-31155584D01*
X28345185Y-31088545D01*
X28393205Y-31045099D01*
X28429199Y-31026760D01*
X28582073Y-30915690D01*
X28715690Y-30782073D01*
X28826760Y-30629199D01*
X28875621Y-30533302D01*
X28923595Y-30482507D01*
X28991416Y-30465712D01*
X29057551Y-30488249D01*
X29096591Y-30533303D01*
X29185379Y-30707557D01*
X29310272Y-30879459D01*
X29310276Y-30879464D01*
X29460535Y-31029723D01*
X29460540Y-31029727D01*
X29632442Y-31154620D01*
X29821782Y-31251095D01*
X30023871Y-31316757D01*
X30090000Y-31327231D01*
X30090000Y-30433012D01*
X30147007Y-30465925D01*
X30274174Y-30500000D01*
X30405826Y-30500000D01*
X30532993Y-30465925D01*
X30590000Y-30433012D01*
X30590000Y-31327230D01*
G37*
G04 #@! TD.AperFunction*
G04 #@! TA.AperFunction,Conductor*
G36*
X30590000Y-29566988D02*
G01*
X30532993Y-29534075D01*
X30405826Y-29500000D01*
X30274174Y-29500000D01*
X30147007Y-29534075D01*
X30090000Y-29566988D01*
X30090000Y-27893012D01*
X30147007Y-27925925D01*
X30274174Y-27960000D01*
X30405826Y-27960000D01*
X30532993Y-27925925D01*
X30590000Y-27893012D01*
X30590000Y-29566988D01*
G37*
G04 #@! TD.AperFunction*
G04 #@! TD*
M02*
