ISO-10303-21;
HEADER;
FILE_DESCRIPTION(('FreeCAD Model'),'2;1');
FILE_NAME('Open CASCADE Shape Model','2026-09-06T21:44:29',('FreeCAD'),(
    'FreeCAD'),'Open CASCADE STEP processor 7.8','FreeCAD','Unknown');
FILE_SCHEMA(('AUTOMOTIVE_DESIGN { 1 0 10303 214 1 1 1 1 }'));
ENDSEC;
DATA;
#1 = APPLICATION_PROTOCOL_DEFINITION('international standard',
  'automotive_design',2000,#2);
#2 = APPLICATION_CONTEXT(
  'core data for automotive mechanical design processes');
#3 = SHAPE_DEFINITION_REPRESENTATION(#4,#10);
#4 = PRODUCT_DEFINITION_SHAPE('','',#5);
#5 = PRODUCT_DEFINITION('design','',#6,#9);
#6 = PRODUCT_DEFINITION_FORMATION('','',#7);
#7 = PRODUCT('Open CASCADE STEP translator 7.8 1',
  'Open CASCADE STEP translator 7.8 1','',(#8));
#8 = PRODUCT_CONTEXT('',#2,'mechanical');
#9 = PRODUCT_DEFINITION_CONTEXT('part definition',#2,'design');
#10 = SHAPE_REPRESENTATION('',(#11,#15,#621),#1695);
#11 = AXIS2_PLACEMENT_3D('',#12,#13,#14);
#12 = CARTESIAN_POINT('',(0.,0.,0.));
#13 = DIRECTION('',(0.,0.,1.));
#14 = DIRECTION('',(1.,0.,-0.));
#15 = MANIFOLD_SOLID_BREP('',#16);
#16 = CLOSED_SHELL('',(#17,#57,#88,#151,#175,#231,#255,#286,#310,#327,
    #344,#361,#378,#395,#412,#468,#492,#541,#558,#575,#592,#609));
#17 = ADVANCED_FACE('',(#18),#52,.F.);
#18 = FACE_BOUND('',#19,.F.);
#19 = EDGE_LOOP('',(#20,#30,#38,#46));
#20 = ORIENTED_EDGE('',*,*,#21,.F.);
#21 = EDGE_CURVE('',#22,#24,#26,.T.);
#22 = VERTEX_POINT('',#23);
#23 = CARTESIAN_POINT('',(28.5,-66.98,1.6));
#24 = VERTEX_POINT('',#25);
#25 = CARTESIAN_POINT('',(28.5,-66.98,4.7));
#26 = LINE('',#27,#28);
#27 = CARTESIAN_POINT('',(28.5,-66.98,1.6));
#28 = VECTOR('',#29,1.);
#29 = DIRECTION('',(0.,0.,1.));
#30 = ORIENTED_EDGE('',*,*,#31,.T.);
#31 = EDGE_CURVE('',#22,#32,#34,.T.);
#32 = VERTEX_POINT('',#33);
#33 = CARTESIAN_POINT('',(16.5,-66.98,1.6));
#34 = LINE('',#35,#36);
#35 = CARTESIAN_POINT('',(28.5,-66.98,1.6));
#36 = VECTOR('',#37,1.);
#37 = DIRECTION('',(-1.,1.110223024625E-16,0.));
#38 = ORIENTED_EDGE('',*,*,#39,.T.);
#39 = EDGE_CURVE('',#32,#40,#42,.T.);
#40 = VERTEX_POINT('',#41);
#41 = CARTESIAN_POINT('',(16.5,-66.98,4.7));
#42 = LINE('',#43,#44);
#43 = CARTESIAN_POINT('',(16.5,-66.98,1.6));
#44 = VECTOR('',#45,1.);
#45 = DIRECTION('',(0.,0.,1.));
#46 = ORIENTED_EDGE('',*,*,#47,.F.);
#47 = EDGE_CURVE('',#24,#40,#48,.T.);
#48 = LINE('',#49,#50);
#49 = CARTESIAN_POINT('',(28.5,-66.98,4.7));
#50 = VECTOR('',#51,1.);
#51 = DIRECTION('',(-1.,1.110223024625E-16,0.));
#52 = PLANE('',#53);
#53 = AXIS2_PLACEMENT_3D('',#54,#55,#56);
#54 = CARTESIAN_POINT('',(28.5,-66.98,1.6));
#55 = DIRECTION('',(1.110223024625E-16,1.,0.));
#56 = DIRECTION('',(0.,0.,1.));
#57 = ADVANCED_FACE('',(#58),#83,.F.);
#58 = FACE_BOUND('',#59,.F.);
#59 = EDGE_LOOP('',(#60,#68,#69,#77));
#60 = ORIENTED_EDGE('',*,*,#61,.F.);
#61 = EDGE_CURVE('',#22,#62,#64,.T.);
#62 = VERTEX_POINT('',#63);
#63 = CARTESIAN_POINT('',(33.,-66.98,1.6));
#64 = LINE('',#65,#66);
#65 = CARTESIAN_POINT('',(28.5,-66.98,1.6));
#66 = VECTOR('',#67,1.);
#67 = DIRECTION('',(1.,0.,0.));
#68 = ORIENTED_EDGE('',*,*,#21,.T.);
#69 = ORIENTED_EDGE('',*,*,#70,.T.);
#70 = EDGE_CURVE('',#24,#71,#73,.T.);
#71 = VERTEX_POINT('',#72);
#72 = CARTESIAN_POINT('',(33.,-66.98,4.7));
#73 = LINE('',#74,#75);
#74 = CARTESIAN_POINT('',(28.5,-66.98,4.7));
#75 = VECTOR('',#76,1.);
#76 = DIRECTION('',(1.,0.,0.));
#77 = ORIENTED_EDGE('',*,*,#78,.F.);
#78 = EDGE_CURVE('',#62,#71,#79,.T.);
#79 = LINE('',#80,#81);
#80 = CARTESIAN_POINT('',(33.,-66.98,1.6));
#81 = VECTOR('',#82,1.);
#82 = DIRECTION('',(0.,0.,1.));
#83 = PLANE('',#84);
#84 = AXIS2_PLACEMENT_3D('',#85,#86,#87);
#85 = CARTESIAN_POINT('',(28.5,-66.98,1.6));
#86 = DIRECTION('',(0.,1.,0.));
#87 = DIRECTION('',(0.,0.,1.));
#88 = ADVANCED_FACE('',(#89),#146,.T.);
#89 = FACE_BOUND('',#90,.T.);
#90 = EDGE_LOOP('',(#91,#99,#100,#108,#116,#124,#132,#140));
#91 = ORIENTED_EDGE('',*,*,#92,.F.);
#92 = EDGE_CURVE('',#40,#93,#95,.T.);
#93 = VERTEX_POINT('',#94);
#94 = CARTESIAN_POINT('',(16.5,-47.855,4.7));
#95 = LINE('',#96,#97);
#96 = CARTESIAN_POINT('',(16.5,-66.98,4.7));
#97 = VECTOR('',#98,1.);
#98 = DIRECTION('',(1.110223024625E-16,1.,0.));
#99 = ORIENTED_EDGE('',*,*,#47,.F.);
#100 = ORIENTED_EDGE('',*,*,#101,.T.);
#101 = EDGE_CURVE('',#24,#102,#104,.T.);
#102 = VERTEX_POINT('',#103);
#103 = CARTESIAN_POINT('',(28.5,-47.855,4.7));
#104 = LINE('',#105,#106);
#105 = CARTESIAN_POINT('',(28.5,-66.98,4.7));
#106 = VECTOR('',#107,1.);
#107 = DIRECTION('',(1.110223024625E-16,1.,0.));
#108 = ORIENTED_EDGE('',*,*,#109,.T.);
#109 = EDGE_CURVE('',#102,#110,#112,.T.);
#110 = VERTEX_POINT('',#111);
#111 = CARTESIAN_POINT('',(25.41,-47.855,4.7));
#112 = LINE('',#113,#114);
#113 = CARTESIAN_POINT('',(28.5,-47.855,4.7));
#114 = VECTOR('',#115,1.);
#115 = DIRECTION('',(-1.,1.110223024625E-16,0.));
#116 = ORIENTED_EDGE('',*,*,#117,.F.);
#117 = EDGE_CURVE('',#118,#110,#120,.T.);
#118 = VERTEX_POINT('',#119);
#119 = CARTESIAN_POINT('',(25.41,-63.89,4.7));
#120 = LINE('',#121,#122);
#121 = CARTESIAN_POINT('',(25.41,-63.89,4.7));
#122 = VECTOR('',#123,1.);
#123 = DIRECTION('',(1.110223024625E-16,1.,0.));
#124 = ORIENTED_EDGE('',*,*,#125,.T.);
#125 = EDGE_CURVE('',#118,#126,#128,.T.);
#126 = VERTEX_POINT('',#127);
#127 = CARTESIAN_POINT('',(19.59,-63.89,4.7));
#128 = LINE('',#129,#130);
#129 = CARTESIAN_POINT('',(25.41,-63.89,4.7));
#130 = VECTOR('',#131,1.);
#131 = DIRECTION('',(-1.,1.110223024625E-16,0.));
#132 = ORIENTED_EDGE('',*,*,#133,.T.);
#133 = EDGE_CURVE('',#126,#134,#136,.T.);
#134 = VERTEX_POINT('',#135);
#135 = CARTESIAN_POINT('',(19.59,-47.855,4.7));
#136 = LINE('',#137,#138);
#137 = CARTESIAN_POINT('',(19.59,-63.89,4.7));
#138 = VECTOR('',#139,1.);
#139 = DIRECTION('',(1.110223024625E-16,1.,0.));
#140 = ORIENTED_EDGE('',*,*,#141,.T.);
#141 = EDGE_CURVE('',#134,#93,#142,.T.);
#142 = LINE('',#143,#144);
#143 = CARTESIAN_POINT('',(28.5,-47.855,4.7));
#144 = VECTOR('',#145,1.);
#145 = DIRECTION('',(-1.,1.110223024625E-16,0.));
#146 = PLANE('',#147);
#147 = AXIS2_PLACEMENT_3D('',#148,#149,#150);
#148 = CARTESIAN_POINT('',(28.5,-66.98,4.7));
#149 = DIRECTION('',(0.,0.,1.));
#150 = DIRECTION('',(1.110223024625E-16,1.,0.));
#151 = ADVANCED_FACE('',(#152),#170,.T.);
#152 = FACE_BOUND('',#153,.T.);
#153 = EDGE_LOOP('',(#154,#162,#163,#164));
#154 = ORIENTED_EDGE('',*,*,#155,.F.);
#155 = EDGE_CURVE('',#32,#156,#158,.T.);
#156 = VERTEX_POINT('',#157);
#157 = CARTESIAN_POINT('',(16.5,-47.855,1.6));
#158 = LINE('',#159,#160);
#159 = CARTESIAN_POINT('',(16.5,-66.98,1.6));
#160 = VECTOR('',#161,1.);
#161 = DIRECTION('',(1.110223024625E-16,1.,0.));
#162 = ORIENTED_EDGE('',*,*,#39,.T.);
#163 = ORIENTED_EDGE('',*,*,#92,.T.);
#164 = ORIENTED_EDGE('',*,*,#165,.F.);
#165 = EDGE_CURVE('',#156,#93,#166,.T.);
#166 = LINE('',#167,#168);
#167 = CARTESIAN_POINT('',(16.5,-47.855,1.6));
#168 = VECTOR('',#169,1.);
#169 = DIRECTION('',(0.,0.,1.));
#170 = PLANE('',#171);
#171 = AXIS2_PLACEMENT_3D('',#172,#173,#174);
#172 = CARTESIAN_POINT('',(16.5,-66.98,1.6));
#173 = DIRECTION('',(-1.,1.110223024625E-16,0.));
#174 = DIRECTION('',(0.,0.,1.));
#175 = ADVANCED_FACE('',(#176),#226,.F.);
#176 = FACE_BOUND('',#177,.F.);
#177 = EDGE_LOOP('',(#178,#179,#180,#188,#196,#204,#212,#220));
#178 = ORIENTED_EDGE('',*,*,#155,.F.);
#179 = ORIENTED_EDGE('',*,*,#31,.F.);
#180 = ORIENTED_EDGE('',*,*,#181,.T.);
#181 = EDGE_CURVE('',#22,#182,#184,.T.);
#182 = VERTEX_POINT('',#183);
#183 = CARTESIAN_POINT('',(28.5,-47.855,1.6));
#184 = LINE('',#185,#186);
#185 = CARTESIAN_POINT('',(28.5,-66.98,1.6));
#186 = VECTOR('',#187,1.);
#187 = DIRECTION('',(1.110223024625E-16,1.,0.));
#188 = ORIENTED_EDGE('',*,*,#189,.T.);
#189 = EDGE_CURVE('',#182,#190,#192,.T.);
#190 = VERTEX_POINT('',#191);
#191 = CARTESIAN_POINT('',(25.41,-47.855,1.6));
#192 = LINE('',#193,#194);
#193 = CARTESIAN_POINT('',(28.5,-47.855,1.6));
#194 = VECTOR('',#195,1.);
#195 = DIRECTION('',(-1.,1.110223024625E-16,0.));
#196 = ORIENTED_EDGE('',*,*,#197,.F.);
#197 = EDGE_CURVE('',#198,#190,#200,.T.);
#198 = VERTEX_POINT('',#199);
#199 = CARTESIAN_POINT('',(25.41,-63.89,1.6));
#200 = LINE('',#201,#202);
#201 = CARTESIAN_POINT('',(25.41,-63.89,1.6));
#202 = VECTOR('',#203,1.);
#203 = DIRECTION('',(1.110223024625E-16,1.,0.));
#204 = ORIENTED_EDGE('',*,*,#205,.T.);
#205 = EDGE_CURVE('',#198,#206,#208,.T.);
#206 = VERTEX_POINT('',#207);
#207 = CARTESIAN_POINT('',(19.59,-63.89,1.6));
#208 = LINE('',#209,#210);
#209 = CARTESIAN_POINT('',(25.41,-63.89,1.6));
#210 = VECTOR('',#211,1.);
#211 = DIRECTION('',(-1.,1.110223024625E-16,0.));
#212 = ORIENTED_EDGE('',*,*,#213,.T.);
#213 = EDGE_CURVE('',#206,#214,#216,.T.);
#214 = VERTEX_POINT('',#215);
#215 = CARTESIAN_POINT('',(19.59,-47.855,1.6));
#216 = LINE('',#217,#218);
#217 = CARTESIAN_POINT('',(19.59,-63.89,1.6));
#218 = VECTOR('',#219,1.);
#219 = DIRECTION('',(1.110223024625E-16,1.,0.));
#220 = ORIENTED_EDGE('',*,*,#221,.T.);
#221 = EDGE_CURVE('',#214,#156,#222,.T.);
#222 = LINE('',#223,#224);
#223 = CARTESIAN_POINT('',(28.5,-47.855,1.6));
#224 = VECTOR('',#225,1.);
#225 = DIRECTION('',(-1.,1.110223024625E-16,0.));
#226 = PLANE('',#227);
#227 = AXIS2_PLACEMENT_3D('',#228,#229,#230);
#228 = CARTESIAN_POINT('',(28.5,-66.98,1.6));
#229 = DIRECTION('',(0.,0.,1.));
#230 = DIRECTION('',(1.110223024625E-16,1.,0.));
#231 = ADVANCED_FACE('',(#232),#250,.F.);
#232 = FACE_BOUND('',#233,.F.);
#233 = EDGE_LOOP('',(#234,#235,#236,#244));
#234 = ORIENTED_EDGE('',*,*,#181,.F.);
#235 = ORIENTED_EDGE('',*,*,#61,.T.);
#236 = ORIENTED_EDGE('',*,*,#237,.T.);
#237 = EDGE_CURVE('',#62,#238,#240,.T.);
#238 = VERTEX_POINT('',#239);
#239 = CARTESIAN_POINT('',(33.,-47.855,1.6));
#240 = LINE('',#241,#242);
#241 = CARTESIAN_POINT('',(33.,-66.98,1.6));
#242 = VECTOR('',#243,1.);
#243 = DIRECTION('',(0.,1.,0.));
#244 = ORIENTED_EDGE('',*,*,#245,.F.);
#245 = EDGE_CURVE('',#182,#238,#246,.T.);
#246 = LINE('',#247,#248);
#247 = CARTESIAN_POINT('',(28.5,-47.855,1.6));
#248 = VECTOR('',#249,1.);
#249 = DIRECTION('',(1.,0.,0.));
#250 = PLANE('',#251);
#251 = AXIS2_PLACEMENT_3D('',#252,#253,#254);
#252 = CARTESIAN_POINT('',(28.5,-66.98,1.6));
#253 = DIRECTION('',(0.,0.,1.));
#254 = DIRECTION('',(1.,0.,0.));
#255 = ADVANCED_FACE('',(#256),#281,.F.);
#256 = FACE_BOUND('',#257,.F.);
#257 = EDGE_LOOP('',(#258,#268,#274,#275));
#258 = ORIENTED_EDGE('',*,*,#259,.F.);
#259 = EDGE_CURVE('',#260,#262,#264,.T.);
#260 = VERTEX_POINT('',#261);
#261 = CARTESIAN_POINT('',(45.,-66.98,1.6));
#262 = VERTEX_POINT('',#263);
#263 = CARTESIAN_POINT('',(45.,-66.98,4.7));
#264 = LINE('',#265,#266);
#265 = CARTESIAN_POINT('',(45.,-66.98,1.6));
#266 = VECTOR('',#267,1.);
#267 = DIRECTION('',(0.,0.,1.));
#268 = ORIENTED_EDGE('',*,*,#269,.T.);
#269 = EDGE_CURVE('',#260,#62,#270,.T.);
#270 = LINE('',#271,#272);
#271 = CARTESIAN_POINT('',(45.,-66.98,1.6));
#272 = VECTOR('',#273,1.);
#273 = DIRECTION('',(-1.,1.110223024625E-16,0.));
#274 = ORIENTED_EDGE('',*,*,#78,.T.);
#275 = ORIENTED_EDGE('',*,*,#276,.F.);
#276 = EDGE_CURVE('',#262,#71,#277,.T.);
#277 = LINE('',#278,#279);
#278 = CARTESIAN_POINT('',(45.,-66.98,4.7));
#279 = VECTOR('',#280,1.);
#280 = DIRECTION('',(-1.,1.110223024625E-16,0.));
#281 = PLANE('',#282);
#282 = AXIS2_PLACEMENT_3D('',#283,#284,#285);
#283 = CARTESIAN_POINT('',(45.,-66.98,1.6));
#284 = DIRECTION('',(1.110223024625E-16,1.,0.));
#285 = DIRECTION('',(0.,0.,1.));
#286 = ADVANCED_FACE('',(#287),#305,.T.);
#287 = FACE_BOUND('',#288,.T.);
#288 = EDGE_LOOP('',(#289,#290,#291,#299));
#289 = ORIENTED_EDGE('',*,*,#101,.F.);
#290 = ORIENTED_EDGE('',*,*,#70,.T.);
#291 = ORIENTED_EDGE('',*,*,#292,.T.);
#292 = EDGE_CURVE('',#71,#293,#295,.T.);
#293 = VERTEX_POINT('',#294);
#294 = CARTESIAN_POINT('',(33.,-47.855,4.7));
#295 = LINE('',#296,#297);
#296 = CARTESIAN_POINT('',(33.,-66.98,4.7));
#297 = VECTOR('',#298,1.);
#298 = DIRECTION('',(0.,1.,0.));
#299 = ORIENTED_EDGE('',*,*,#300,.F.);
#300 = EDGE_CURVE('',#102,#293,#301,.T.);
#301 = LINE('',#302,#303);
#302 = CARTESIAN_POINT('',(28.5,-47.855,4.7));
#303 = VECTOR('',#304,1.);
#304 = DIRECTION('',(1.,0.,0.));
#305 = PLANE('',#306);
#306 = AXIS2_PLACEMENT_3D('',#307,#308,#309);
#307 = CARTESIAN_POINT('',(28.5,-66.98,4.7));
#308 = DIRECTION('',(0.,0.,1.));
#309 = DIRECTION('',(1.,0.,0.));
#310 = ADVANCED_FACE('',(#311),#322,.T.);
#311 = FACE_BOUND('',#312,.T.);
#312 = EDGE_LOOP('',(#313,#319,#320,#321));
#313 = ORIENTED_EDGE('',*,*,#314,.T.);
#314 = EDGE_CURVE('',#134,#214,#315,.T.);
#315 = LINE('',#316,#317);
#316 = CARTESIAN_POINT('',(19.59,-47.855,1.6));
#317 = VECTOR('',#318,1.);
#318 = DIRECTION('',(-0.,0.,-1.));
#319 = ORIENTED_EDGE('',*,*,#221,.T.);
#320 = ORIENTED_EDGE('',*,*,#165,.T.);
#321 = ORIENTED_EDGE('',*,*,#141,.F.);
#322 = PLANE('',#323);
#323 = AXIS2_PLACEMENT_3D('',#324,#325,#326);
#324 = CARTESIAN_POINT('',(28.5,-47.855,1.6));
#325 = DIRECTION('',(1.110223024625E-16,1.,0.));
#326 = DIRECTION('',(0.,0.,1.));
#327 = ADVANCED_FACE('',(#328),#339,.F.);
#328 = FACE_BOUND('',#329,.F.);
#329 = EDGE_LOOP('',(#330,#331,#337,#338));
#330 = ORIENTED_EDGE('',*,*,#213,.F.);
#331 = ORIENTED_EDGE('',*,*,#332,.T.);
#332 = EDGE_CURVE('',#206,#126,#333,.T.);
#333 = LINE('',#334,#335);
#334 = CARTESIAN_POINT('',(19.59,-63.89,1.6));
#335 = VECTOR('',#336,1.);
#336 = DIRECTION('',(0.,0.,1.));
#337 = ORIENTED_EDGE('',*,*,#133,.T.);
#338 = ORIENTED_EDGE('',*,*,#314,.T.);
#339 = PLANE('',#340);
#340 = AXIS2_PLACEMENT_3D('',#341,#342,#343);
#341 = CARTESIAN_POINT('',(19.59,-63.89,1.6));
#342 = DIRECTION('',(-1.,1.110223024625E-16,0.));
#343 = DIRECTION('',(0.,0.,1.));
#344 = ADVANCED_FACE('',(#345),#356,.T.);
#345 = FACE_BOUND('',#346,.T.);
#346 = EDGE_LOOP('',(#347,#353,#354,#355));
#347 = ORIENTED_EDGE('',*,*,#348,.F.);
#348 = EDGE_CURVE('',#198,#118,#349,.T.);
#349 = LINE('',#350,#351);
#350 = CARTESIAN_POINT('',(25.41,-63.89,1.6));
#351 = VECTOR('',#352,1.);
#352 = DIRECTION('',(0.,0.,1.));
#353 = ORIENTED_EDGE('',*,*,#205,.T.);
#354 = ORIENTED_EDGE('',*,*,#332,.T.);
#355 = ORIENTED_EDGE('',*,*,#125,.F.);
#356 = PLANE('',#357);
#357 = AXIS2_PLACEMENT_3D('',#358,#359,#360);
#358 = CARTESIAN_POINT('',(25.41,-63.89,1.6));
#359 = DIRECTION('',(1.110223024625E-16,1.,0.));
#360 = DIRECTION('',(0.,0.,1.));
#361 = ADVANCED_FACE('',(#362),#373,.T.);
#362 = FACE_BOUND('',#363,.T.);
#363 = EDGE_LOOP('',(#364,#365,#366,#367));
#364 = ORIENTED_EDGE('',*,*,#197,.F.);
#365 = ORIENTED_EDGE('',*,*,#348,.T.);
#366 = ORIENTED_EDGE('',*,*,#117,.T.);
#367 = ORIENTED_EDGE('',*,*,#368,.T.);
#368 = EDGE_CURVE('',#110,#190,#369,.T.);
#369 = LINE('',#370,#371);
#370 = CARTESIAN_POINT('',(25.41,-47.855,1.6));
#371 = VECTOR('',#372,1.);
#372 = DIRECTION('',(-0.,0.,-1.));
#373 = PLANE('',#374);
#374 = AXIS2_PLACEMENT_3D('',#375,#376,#377);
#375 = CARTESIAN_POINT('',(25.41,-63.89,1.6));
#376 = DIRECTION('',(-1.,1.110223024625E-16,0.));
#377 = DIRECTION('',(0.,0.,1.));
#378 = ADVANCED_FACE('',(#379),#390,.T.);
#379 = FACE_BOUND('',#380,.T.);
#380 = EDGE_LOOP('',(#381,#387,#388,#389));
#381 = ORIENTED_EDGE('',*,*,#382,.F.);
#382 = EDGE_CURVE('',#182,#102,#383,.T.);
#383 = LINE('',#384,#385);
#384 = CARTESIAN_POINT('',(28.5,-47.855,1.6));
#385 = VECTOR('',#386,1.);
#386 = DIRECTION('',(0.,0.,1.));
#387 = ORIENTED_EDGE('',*,*,#189,.T.);
#388 = ORIENTED_EDGE('',*,*,#368,.F.);
#389 = ORIENTED_EDGE('',*,*,#109,.F.);
#390 = PLANE('',#391);
#391 = AXIS2_PLACEMENT_3D('',#392,#393,#394);
#392 = CARTESIAN_POINT('',(28.5,-47.855,1.6));
#393 = DIRECTION('',(1.110223024625E-16,1.,0.));
#394 = DIRECTION('',(0.,0.,1.));
#395 = ADVANCED_FACE('',(#396),#407,.T.);
#396 = FACE_BOUND('',#397,.T.);
#397 = EDGE_LOOP('',(#398,#399,#400,#401));
#398 = ORIENTED_EDGE('',*,*,#245,.F.);
#399 = ORIENTED_EDGE('',*,*,#382,.T.);
#400 = ORIENTED_EDGE('',*,*,#300,.T.);
#401 = ORIENTED_EDGE('',*,*,#402,.F.);
#402 = EDGE_CURVE('',#238,#293,#403,.T.);
#403 = LINE('',#404,#405);
#404 = CARTESIAN_POINT('',(33.,-47.855,1.6));
#405 = VECTOR('',#406,1.);
#406 = DIRECTION('',(0.,0.,1.));
#407 = PLANE('',#408);
#408 = AXIS2_PLACEMENT_3D('',#409,#410,#411);
#409 = CARTESIAN_POINT('',(28.5,-47.855,1.6));
#410 = DIRECTION('',(0.,1.,0.));
#411 = DIRECTION('',(0.,0.,1.));
#412 = ADVANCED_FACE('',(#413),#463,.F.);
#413 = FACE_BOUND('',#414,.F.);
#414 = EDGE_LOOP('',(#415,#416,#417,#425,#433,#441,#449,#457));
#415 = ORIENTED_EDGE('',*,*,#237,.F.);
#416 = ORIENTED_EDGE('',*,*,#269,.F.);
#417 = ORIENTED_EDGE('',*,*,#418,.T.);
#418 = EDGE_CURVE('',#260,#419,#421,.T.);
#419 = VERTEX_POINT('',#420);
#420 = CARTESIAN_POINT('',(45.,-47.855,1.6));
#421 = LINE('',#422,#423);
#422 = CARTESIAN_POINT('',(45.,-66.98,1.6));
#423 = VECTOR('',#424,1.);
#424 = DIRECTION('',(1.110223024625E-16,1.,0.));
#425 = ORIENTED_EDGE('',*,*,#426,.T.);
#426 = EDGE_CURVE('',#419,#427,#429,.T.);
#427 = VERTEX_POINT('',#428);
#428 = CARTESIAN_POINT('',(41.91,-47.855,1.6));
#429 = LINE('',#430,#431);
#430 = CARTESIAN_POINT('',(45.,-47.855,1.6));
#431 = VECTOR('',#432,1.);
#432 = DIRECTION('',(-1.,1.110223024625E-16,0.));
#433 = ORIENTED_EDGE('',*,*,#434,.F.);
#434 = EDGE_CURVE('',#435,#427,#437,.T.);
#435 = VERTEX_POINT('',#436);
#436 = CARTESIAN_POINT('',(41.91,-63.89,1.6));
#437 = LINE('',#438,#439);
#438 = CARTESIAN_POINT('',(41.91,-63.89,1.6));
#439 = VECTOR('',#440,1.);
#440 = DIRECTION('',(1.110223024625E-16,1.,0.));
#441 = ORIENTED_EDGE('',*,*,#442,.T.);
#442 = EDGE_CURVE('',#435,#443,#445,.T.);
#443 = VERTEX_POINT('',#444);
#444 = CARTESIAN_POINT('',(36.09,-63.89,1.6));
#445 = LINE('',#446,#447);
#446 = CARTESIAN_POINT('',(41.91,-63.89,1.6));
#447 = VECTOR('',#448,1.);
#448 = DIRECTION('',(-1.,1.110223024625E-16,0.));
#449 = ORIENTED_EDGE('',*,*,#450,.T.);
#450 = EDGE_CURVE('',#443,#451,#453,.T.);
#451 = VERTEX_POINT('',#452);
#452 = CARTESIAN_POINT('',(36.09,-47.855,1.6));
#453 = LINE('',#454,#455);
#454 = CARTESIAN_POINT('',(36.09,-63.89,1.6));
#455 = VECTOR('',#456,1.);
#456 = DIRECTION('',(1.110223024625E-16,1.,0.));
#457 = ORIENTED_EDGE('',*,*,#458,.T.);
#458 = EDGE_CURVE('',#451,#238,#459,.T.);
#459 = LINE('',#460,#461);
#460 = CARTESIAN_POINT('',(45.,-47.855,1.6));
#461 = VECTOR('',#462,1.);
#462 = DIRECTION('',(-1.,1.110223024625E-16,0.));
#463 = PLANE('',#464);
#464 = AXIS2_PLACEMENT_3D('',#465,#466,#467);
#465 = CARTESIAN_POINT('',(45.,-66.98,1.6));
#466 = DIRECTION('',(0.,0.,1.));
#467 = DIRECTION('',(1.110223024625E-16,1.,0.));
#468 = ADVANCED_FACE('',(#469),#487,.F.);
#469 = FACE_BOUND('',#470,.F.);
#470 = EDGE_LOOP('',(#471,#472,#473,#481));
#471 = ORIENTED_EDGE('',*,*,#418,.F.);
#472 = ORIENTED_EDGE('',*,*,#259,.T.);
#473 = ORIENTED_EDGE('',*,*,#474,.T.);
#474 = EDGE_CURVE('',#262,#475,#477,.T.);
#475 = VERTEX_POINT('',#476);
#476 = CARTESIAN_POINT('',(45.,-47.855,4.7));
#477 = LINE('',#478,#479);
#478 = CARTESIAN_POINT('',(45.,-66.98,4.7));
#479 = VECTOR('',#480,1.);
#480 = DIRECTION('',(1.110223024625E-16,1.,0.));
#481 = ORIENTED_EDGE('',*,*,#482,.F.);
#482 = EDGE_CURVE('',#419,#475,#483,.T.);
#483 = LINE('',#484,#485);
#484 = CARTESIAN_POINT('',(45.,-47.855,1.6));
#485 = VECTOR('',#486,1.);
#486 = DIRECTION('',(0.,0.,1.));
#487 = PLANE('',#488);
#488 = AXIS2_PLACEMENT_3D('',#489,#490,#491);
#489 = CARTESIAN_POINT('',(45.,-66.98,1.6));
#490 = DIRECTION('',(-1.,1.110223024625E-16,0.));
#491 = DIRECTION('',(0.,0.,1.));
#492 = ADVANCED_FACE('',(#493),#536,.T.);
#493 = FACE_BOUND('',#494,.T.);
#494 = EDGE_LOOP('',(#495,#496,#497,#498,#506,#514,#522,#530));
#495 = ORIENTED_EDGE('',*,*,#292,.F.);
#496 = ORIENTED_EDGE('',*,*,#276,.F.);
#497 = ORIENTED_EDGE('',*,*,#474,.T.);
#498 = ORIENTED_EDGE('',*,*,#499,.T.);
#499 = EDGE_CURVE('',#475,#500,#502,.T.);
#500 = VERTEX_POINT('',#501);
#501 = CARTESIAN_POINT('',(41.91,-47.855,4.7));
#502 = LINE('',#503,#504);
#503 = CARTESIAN_POINT('',(45.,-47.855,4.7));
#504 = VECTOR('',#505,1.);
#505 = DIRECTION('',(-1.,1.110223024625E-16,0.));
#506 = ORIENTED_EDGE('',*,*,#507,.F.);
#507 = EDGE_CURVE('',#508,#500,#510,.T.);
#508 = VERTEX_POINT('',#509);
#509 = CARTESIAN_POINT('',(41.91,-63.89,4.7));
#510 = LINE('',#511,#512);
#511 = CARTESIAN_POINT('',(41.91,-63.89,4.7));
#512 = VECTOR('',#513,1.);
#513 = DIRECTION('',(1.110223024625E-16,1.,0.));
#514 = ORIENTED_EDGE('',*,*,#515,.T.);
#515 = EDGE_CURVE('',#508,#516,#518,.T.);
#516 = VERTEX_POINT('',#517);
#517 = CARTESIAN_POINT('',(36.09,-63.89,4.7));
#518 = LINE('',#519,#520);
#519 = CARTESIAN_POINT('',(41.91,-63.89,4.7));
#520 = VECTOR('',#521,1.);
#521 = DIRECTION('',(-1.,1.110223024625E-16,0.));
#522 = ORIENTED_EDGE('',*,*,#523,.T.);
#523 = EDGE_CURVE('',#516,#524,#526,.T.);
#524 = VERTEX_POINT('',#525);
#525 = CARTESIAN_POINT('',(36.09,-47.855,4.7));
#526 = LINE('',#527,#528);
#527 = CARTESIAN_POINT('',(36.09,-63.89,4.7));
#528 = VECTOR('',#529,1.);
#529 = DIRECTION('',(1.110223024625E-16,1.,0.));
#530 = ORIENTED_EDGE('',*,*,#531,.T.);
#531 = EDGE_CURVE('',#524,#293,#532,.T.);
#532 = LINE('',#533,#534);
#533 = CARTESIAN_POINT('',(45.,-47.855,4.7));
#534 = VECTOR('',#535,1.);
#535 = DIRECTION('',(-1.,1.110223024625E-16,0.));
#536 = PLANE('',#537);
#537 = AXIS2_PLACEMENT_3D('',#538,#539,#540);
#538 = CARTESIAN_POINT('',(45.,-66.98,4.7));
#539 = DIRECTION('',(0.,0.,1.));
#540 = DIRECTION('',(1.110223024625E-16,1.,0.));
#541 = ADVANCED_FACE('',(#542),#553,.T.);
#542 = FACE_BOUND('',#543,.T.);
#543 = EDGE_LOOP('',(#544,#550,#551,#552));
#544 = ORIENTED_EDGE('',*,*,#545,.T.);
#545 = EDGE_CURVE('',#524,#451,#546,.T.);
#546 = LINE('',#547,#548);
#547 = CARTESIAN_POINT('',(36.09,-47.855,1.6));
#548 = VECTOR('',#549,1.);
#549 = DIRECTION('',(-0.,0.,-1.));
#550 = ORIENTED_EDGE('',*,*,#458,.T.);
#551 = ORIENTED_EDGE('',*,*,#402,.T.);
#552 = ORIENTED_EDGE('',*,*,#531,.F.);
#553 = PLANE('',#554);
#554 = AXIS2_PLACEMENT_3D('',#555,#556,#557);
#555 = CARTESIAN_POINT('',(45.,-47.855,1.6));
#556 = DIRECTION('',(1.110223024625E-16,1.,0.));
#557 = DIRECTION('',(0.,0.,1.));
#558 = ADVANCED_FACE('',(#559),#570,.F.);
#559 = FACE_BOUND('',#560,.F.);
#560 = EDGE_LOOP('',(#561,#562,#568,#569));
#561 = ORIENTED_EDGE('',*,*,#450,.F.);
#562 = ORIENTED_EDGE('',*,*,#563,.T.);
#563 = EDGE_CURVE('',#443,#516,#564,.T.);
#564 = LINE('',#565,#566);
#565 = CARTESIAN_POINT('',(36.09,-63.89,1.6));
#566 = VECTOR('',#567,1.);
#567 = DIRECTION('',(0.,0.,1.));
#568 = ORIENTED_EDGE('',*,*,#523,.T.);
#569 = ORIENTED_EDGE('',*,*,#545,.T.);
#570 = PLANE('',#571);
#571 = AXIS2_PLACEMENT_3D('',#572,#573,#574);
#572 = CARTESIAN_POINT('',(36.09,-63.89,1.6));
#573 = DIRECTION('',(-1.,1.110223024625E-16,0.));
#574 = DIRECTION('',(0.,0.,1.));
#575 = ADVANCED_FACE('',(#576),#587,.T.);
#576 = FACE_BOUND('',#577,.T.);
#577 = EDGE_LOOP('',(#578,#584,#585,#586));
#578 = ORIENTED_EDGE('',*,*,#579,.F.);
#579 = EDGE_CURVE('',#435,#508,#580,.T.);
#580 = LINE('',#581,#582);
#581 = CARTESIAN_POINT('',(41.91,-63.89,1.6));
#582 = VECTOR('',#583,1.);
#583 = DIRECTION('',(0.,0.,1.));
#584 = ORIENTED_EDGE('',*,*,#442,.T.);
#585 = ORIENTED_EDGE('',*,*,#563,.T.);
#586 = ORIENTED_EDGE('',*,*,#515,.F.);
#587 = PLANE('',#588);
#588 = AXIS2_PLACEMENT_3D('',#589,#590,#591);
#589 = CARTESIAN_POINT('',(41.91,-63.89,1.6));
#590 = DIRECTION('',(1.110223024625E-16,1.,0.));
#591 = DIRECTION('',(0.,0.,1.));
#592 = ADVANCED_FACE('',(#593),#604,.T.);
#593 = FACE_BOUND('',#594,.T.);
#594 = EDGE_LOOP('',(#595,#596,#597,#598));
#595 = ORIENTED_EDGE('',*,*,#434,.F.);
#596 = ORIENTED_EDGE('',*,*,#579,.T.);
#597 = ORIENTED_EDGE('',*,*,#507,.T.);
#598 = ORIENTED_EDGE('',*,*,#599,.T.);
#599 = EDGE_CURVE('',#500,#427,#600,.T.);
#600 = LINE('',#601,#602);
#601 = CARTESIAN_POINT('',(41.91,-47.855,1.6));
#602 = VECTOR('',#603,1.);
#603 = DIRECTION('',(-0.,0.,-1.));
#604 = PLANE('',#605);
#605 = AXIS2_PLACEMENT_3D('',#606,#607,#608);
#606 = CARTESIAN_POINT('',(41.91,-63.89,1.6));
#607 = DIRECTION('',(-1.,1.110223024625E-16,0.));
#608 = DIRECTION('',(0.,0.,1.));
#609 = ADVANCED_FACE('',(#610),#616,.T.);
#610 = FACE_BOUND('',#611,.T.);
#611 = EDGE_LOOP('',(#612,#613,#614,#615));
#612 = ORIENTED_EDGE('',*,*,#482,.F.);
#613 = ORIENTED_EDGE('',*,*,#426,.T.);
#614 = ORIENTED_EDGE('',*,*,#599,.F.);
#615 = ORIENTED_EDGE('',*,*,#499,.F.);
#616 = PLANE('',#617);
#617 = AXIS2_PLACEMENT_3D('',#618,#619,#620);
#618 = CARTESIAN_POINT('',(45.,-47.855,1.6));
#619 = DIRECTION('',(1.110223024625E-16,1.,0.));
#620 = DIRECTION('',(0.,0.,1.));
#621 = MANIFOLD_SOLID_BREP('',#622);
#622 = CLOSED_SHELL('',(#623,#664,#695,#735,#751,#782,#806,#831,#864,
    #880,#923,#952,#984,#1008,#1025,#1050,#1085,#1109,#1131,#1143,#1176,
    #1199,#1232,#1250,#1290,#1307,#1331,#1355,#1403,#1446,#1463,#1480,
    #1491,#1508,#1520,#1544,#1561,#1585,#1616,#1640,#1666,#1683));
#623 = ADVANCED_FACE('',(#624),#659,.F.);
#624 = FACE_BOUND('',#625,.F.);
#625 = EDGE_LOOP('',(#626,#636,#644,#653));
#626 = ORIENTED_EDGE('',*,*,#627,.F.);
#627 = EDGE_CURVE('',#628,#630,#632,.T.);
#628 = VERTEX_POINT('',#629);
#629 = CARTESIAN_POINT('',(28.5,-47.855,1.6));
#630 = VERTEX_POINT('',#631);
#631 = CARTESIAN_POINT('',(25.41,-47.855,1.6));
#632 = LINE('',#633,#634);
#633 = CARTESIAN_POINT('',(28.5,-47.855,1.6));
#634 = VECTOR('',#635,1.);
#635 = DIRECTION('',(-1.,1.110223024625E-16,0.));
#636 = ORIENTED_EDGE('',*,*,#637,.T.);
#637 = EDGE_CURVE('',#628,#638,#640,.T.);
#638 = VERTEX_POINT('',#639);
#639 = CARTESIAN_POINT('',(28.5,-34.73,1.6));
#640 = LINE('',#641,#642);
#641 = CARTESIAN_POINT('',(28.5,-66.98,1.6));
#642 = VECTOR('',#643,1.);
#643 = DIRECTION('',(1.110223024625E-16,1.,0.));
#644 = ORIENTED_EDGE('',*,*,#645,.F.);
#645 = EDGE_CURVE('',#646,#638,#648,.T.);
#646 = VERTEX_POINT('',#647);
#647 = CARTESIAN_POINT('',(25.41,-39.97708490497,1.6));
#648 = CIRCLE('',#649,6.);
#649 = AXIS2_PLACEMENT_3D('',#650,#651,#652);
#650 = CARTESIAN_POINT('',(22.5,-34.73,1.6));
#651 = DIRECTION('',(0.,-0.,1.));
#652 = DIRECTION('',(1.110223024625E-16,1.,0.));
#653 = ORIENTED_EDGE('',*,*,#654,.F.);
#654 = EDGE_CURVE('',#630,#646,#655,.T.);
#655 = LINE('',#656,#657);
#656 = CARTESIAN_POINT('',(25.41,-63.89,1.6));
#657 = VECTOR('',#658,1.);
#658 = DIRECTION('',(1.110223024625E-16,1.,0.));
#659 = PLANE('',#660);
#660 = AXIS2_PLACEMENT_3D('',#661,#662,#663);
#661 = CARTESIAN_POINT('',(28.5,-66.98,1.6));
#662 = DIRECTION('',(0.,0.,1.));
#663 = DIRECTION('',(1.110223024625E-16,1.,0.));
#664 = ADVANCED_FACE('',(#665),#690,.F.);
#665 = FACE_BOUND('',#666,.F.);
#666 = EDGE_LOOP('',(#667,#675,#676,#684));
#667 = ORIENTED_EDGE('',*,*,#668,.F.);
#668 = EDGE_CURVE('',#628,#669,#671,.T.);
#669 = VERTEX_POINT('',#670);
#670 = CARTESIAN_POINT('',(28.5,-47.855,4.7));
#671 = LINE('',#672,#673);
#672 = CARTESIAN_POINT('',(28.5,-47.855,1.6));
#673 = VECTOR('',#674,1.);
#674 = DIRECTION('',(0.,0.,1.));
#675 = ORIENTED_EDGE('',*,*,#627,.T.);
#676 = ORIENTED_EDGE('',*,*,#677,.F.);
#677 = EDGE_CURVE('',#678,#630,#680,.T.);
#678 = VERTEX_POINT('',#679);
#679 = CARTESIAN_POINT('',(25.41,-47.855,4.7));
#680 = LINE('',#681,#682);
#681 = CARTESIAN_POINT('',(25.41,-47.855,1.6));
#682 = VECTOR('',#683,1.);
#683 = DIRECTION('',(-0.,0.,-1.));
#684 = ORIENTED_EDGE('',*,*,#685,.F.);
#685 = EDGE_CURVE('',#669,#678,#686,.T.);
#686 = LINE('',#687,#688);
#687 = CARTESIAN_POINT('',(28.5,-47.855,4.7));
#688 = VECTOR('',#689,1.);
#689 = DIRECTION('',(-1.,1.110223024625E-16,0.));
#690 = PLANE('',#691);
#691 = AXIS2_PLACEMENT_3D('',#692,#693,#694);
#692 = CARTESIAN_POINT('',(28.5,-47.855,1.6));
#693 = DIRECTION('',(1.110223024625E-16,1.,0.));
#694 = DIRECTION('',(0.,0.,1.));
#695 = ADVANCED_FACE('',(#696),#730,.T.);
#696 = FACE_BOUND('',#697,.T.);
#697 = EDGE_LOOP('',(#698,#699,#700,#708,#716,#724));
#698 = ORIENTED_EDGE('',*,*,#654,.F.);
#699 = ORIENTED_EDGE('',*,*,#677,.F.);
#700 = ORIENTED_EDGE('',*,*,#701,.T.);
#701 = EDGE_CURVE('',#678,#702,#704,.T.);
#702 = VERTEX_POINT('',#703);
#703 = CARTESIAN_POINT('',(25.41,-39.97708490497,4.7));
#704 = LINE('',#705,#706);
#705 = CARTESIAN_POINT('',(25.41,-63.89,4.7));
#706 = VECTOR('',#707,1.);
#707 = DIRECTION('',(1.110223024625E-16,1.,0.));
#708 = ORIENTED_EDGE('',*,*,#709,.T.);
#709 = EDGE_CURVE('',#702,#710,#712,.T.);
#710 = VERTEX_POINT('',#711);
#711 = CARTESIAN_POINT('',(25.41,-34.73,4.7));
#712 = LINE('',#713,#714);
#713 = CARTESIAN_POINT('',(25.41,-63.89,4.7));
#714 = VECTOR('',#715,1.);
#715 = DIRECTION('',(1.110223024625E-16,1.,0.));
#716 = ORIENTED_EDGE('',*,*,#717,.F.);
#717 = EDGE_CURVE('',#718,#710,#720,.T.);
#718 = VERTEX_POINT('',#719);
#719 = CARTESIAN_POINT('',(25.41,-34.73,1.6));
#720 = LINE('',#721,#722);
#721 = CARTESIAN_POINT('',(25.41,-34.73,1.6));
#722 = VECTOR('',#723,1.);
#723 = DIRECTION('',(0.,0.,1.));
#724 = ORIENTED_EDGE('',*,*,#725,.F.);
#725 = EDGE_CURVE('',#646,#718,#726,.T.);
#726 = LINE('',#727,#728);
#727 = CARTESIAN_POINT('',(25.41,-63.89,1.6));
#728 = VECTOR('',#729,1.);
#729 = DIRECTION('',(1.110223024625E-16,1.,0.));
#730 = PLANE('',#731);
#731 = AXIS2_PLACEMENT_3D('',#732,#733,#734);
#732 = CARTESIAN_POINT('',(25.41,-63.89,1.6));
#733 = DIRECTION('',(-1.,1.110223024625E-16,0.));
#734 = DIRECTION('',(0.,0.,1.));
#735 = ADVANCED_FACE('',(#736),#746,.F.);
#736 = FACE_BOUND('',#737,.F.);
#737 = EDGE_LOOP('',(#738,#739,#745));
#738 = ORIENTED_EDGE('',*,*,#645,.T.);
#739 = ORIENTED_EDGE('',*,*,#740,.T.);
#740 = EDGE_CURVE('',#638,#718,#741,.T.);
#741 = LINE('',#742,#743);
#742 = CARTESIAN_POINT('',(28.5,-34.73,1.6));
#743 = VECTOR('',#744,1.);
#744 = DIRECTION('',(-1.,1.110223024625E-16,0.));
#745 = ORIENTED_EDGE('',*,*,#725,.F.);
#746 = PLANE('',#747);
#747 = AXIS2_PLACEMENT_3D('',#748,#749,#750);
#748 = CARTESIAN_POINT('',(28.5,-66.98,1.6));
#749 = DIRECTION('',(0.,0.,1.));
#750 = DIRECTION('',(1.110223024625E-16,1.,0.));
#751 = ADVANCED_FACE('',(#752),#777,.F.);
#752 = FACE_BOUND('',#753,.F.);
#753 = EDGE_LOOP('',(#754,#755,#763,#771));
#754 = ORIENTED_EDGE('',*,*,#637,.F.);
#755 = ORIENTED_EDGE('',*,*,#756,.T.);
#756 = EDGE_CURVE('',#628,#757,#759,.T.);
#757 = VERTEX_POINT('',#758);
#758 = CARTESIAN_POINT('',(33.,-47.855,1.6));
#759 = LINE('',#760,#761);
#760 = CARTESIAN_POINT('',(28.5,-47.855,1.6));
#761 = VECTOR('',#762,1.);
#762 = DIRECTION('',(1.,0.,0.));
#763 = ORIENTED_EDGE('',*,*,#764,.T.);
#764 = EDGE_CURVE('',#757,#765,#767,.T.);
#765 = VERTEX_POINT('',#766);
#766 = CARTESIAN_POINT('',(33.,-34.73,1.6));
#767 = LINE('',#768,#769);
#768 = CARTESIAN_POINT('',(33.,-47.855,1.6));
#769 = VECTOR('',#770,1.);
#770 = DIRECTION('',(0.,1.,0.));
#771 = ORIENTED_EDGE('',*,*,#772,.F.);
#772 = EDGE_CURVE('',#638,#765,#773,.T.);
#773 = LINE('',#774,#775);
#774 = CARTESIAN_POINT('',(28.5,-34.73,1.6));
#775 = VECTOR('',#776,1.);
#776 = DIRECTION('',(1.,0.,0.));
#777 = PLANE('',#778);
#778 = AXIS2_PLACEMENT_3D('',#779,#780,#781);
#779 = CARTESIAN_POINT('',(28.5,-47.855,1.6));
#780 = DIRECTION('',(0.,0.,1.));
#781 = DIRECTION('',(1.,0.,0.));
#782 = ADVANCED_FACE('',(#783),#801,.F.);
#783 = FACE_BOUND('',#784,.F.);
#784 = EDGE_LOOP('',(#785,#786,#787,#795));
#785 = ORIENTED_EDGE('',*,*,#756,.F.);
#786 = ORIENTED_EDGE('',*,*,#668,.T.);
#787 = ORIENTED_EDGE('',*,*,#788,.T.);
#788 = EDGE_CURVE('',#669,#789,#791,.T.);
#789 = VERTEX_POINT('',#790);
#790 = CARTESIAN_POINT('',(33.,-47.855,4.7));
#791 = LINE('',#792,#793);
#792 = CARTESIAN_POINT('',(28.5,-47.855,4.7));
#793 = VECTOR('',#794,1.);
#794 = DIRECTION('',(1.,0.,0.));
#795 = ORIENTED_EDGE('',*,*,#796,.F.);
#796 = EDGE_CURVE('',#757,#789,#797,.T.);
#797 = LINE('',#798,#799);
#798 = CARTESIAN_POINT('',(33.,-47.855,1.6));
#799 = VECTOR('',#800,1.);
#800 = DIRECTION('',(0.,0.,1.));
#801 = PLANE('',#802);
#802 = AXIS2_PLACEMENT_3D('',#803,#804,#805);
#803 = CARTESIAN_POINT('',(28.5,-47.855,1.6));
#804 = DIRECTION('',(0.,1.,0.));
#805 = DIRECTION('',(0.,0.,1.));
#806 = ADVANCED_FACE('',(#807),#826,.T.);
#807 = FACE_BOUND('',#808,.T.);
#808 = EDGE_LOOP('',(#809,#810,#818,#825));
#809 = ORIENTED_EDGE('',*,*,#685,.F.);
#810 = ORIENTED_EDGE('',*,*,#811,.T.);
#811 = EDGE_CURVE('',#669,#812,#814,.T.);
#812 = VERTEX_POINT('',#813);
#813 = CARTESIAN_POINT('',(28.5,-34.73,4.7));
#814 = LINE('',#815,#816);
#815 = CARTESIAN_POINT('',(28.5,-66.98,4.7));
#816 = VECTOR('',#817,1.);
#817 = DIRECTION('',(1.110223024625E-16,1.,0.));
#818 = ORIENTED_EDGE('',*,*,#819,.F.);
#819 = EDGE_CURVE('',#702,#812,#820,.T.);
#820 = CIRCLE('',#821,6.);
#821 = AXIS2_PLACEMENT_3D('',#822,#823,#824);
#822 = CARTESIAN_POINT('',(22.5,-34.73,4.7));
#823 = DIRECTION('',(0.,-0.,1.));
#824 = DIRECTION('',(1.110223024625E-16,1.,0.));
#825 = ORIENTED_EDGE('',*,*,#701,.F.);
#826 = PLANE('',#827);
#827 = AXIS2_PLACEMENT_3D('',#828,#829,#830);
#828 = CARTESIAN_POINT('',(28.5,-66.98,4.7));
#829 = DIRECTION('',(0.,0.,1.));
#830 = DIRECTION('',(1.110223024625E-16,1.,0.));
#831 = ADVANCED_FACE('',(#832),#859,.F.);
#832 = FACE_BOUND('',#833,.F.);
#833 = EDGE_LOOP('',(#834,#844,#851,#852));
#834 = ORIENTED_EDGE('',*,*,#835,.T.);
#835 = EDGE_CURVE('',#836,#838,#840,.T.);
#836 = VERTEX_POINT('',#837);
#837 = CARTESIAN_POINT('',(22.5,-31.82,1.6));
#838 = VERTEX_POINT('',#839);
#839 = CARTESIAN_POINT('',(22.5,-31.82,4.7));
#840 = LINE('',#841,#842);
#841 = CARTESIAN_POINT('',(22.5,-31.82,1.6));
#842 = VECTOR('',#843,1.);
#843 = DIRECTION('',(0.,0.,1.));
#844 = ORIENTED_EDGE('',*,*,#845,.F.);
#845 = EDGE_CURVE('',#710,#838,#846,.T.);
#846 = CIRCLE('',#847,2.91);
#847 = AXIS2_PLACEMENT_3D('',#848,#849,#850);
#848 = CARTESIAN_POINT('',(22.5,-34.73,4.7));
#849 = DIRECTION('',(0.,-0.,1.));
#850 = DIRECTION('',(1.110223024625E-16,1.,0.));
#851 = ORIENTED_EDGE('',*,*,#717,.F.);
#852 = ORIENTED_EDGE('',*,*,#853,.T.);
#853 = EDGE_CURVE('',#718,#836,#854,.T.);
#854 = CIRCLE('',#855,2.91);
#855 = AXIS2_PLACEMENT_3D('',#856,#857,#858);
#856 = CARTESIAN_POINT('',(22.5,-34.73,1.6));
#857 = DIRECTION('',(0.,-0.,1.));
#858 = DIRECTION('',(1.110223024625E-16,1.,0.));
#859 = CYLINDRICAL_SURFACE('',#860,2.91);
#860 = AXIS2_PLACEMENT_3D('',#861,#862,#863);
#861 = CARTESIAN_POINT('',(22.5,-34.73,1.6));
#862 = DIRECTION('',(0.,0.,1.));
#863 = DIRECTION('',(1.110223024625E-16,1.,0.));
#864 = ADVANCED_FACE('',(#865),#875,.T.);
#865 = FACE_BOUND('',#866,.T.);
#866 = EDGE_LOOP('',(#867,#868,#874));
#867 = ORIENTED_EDGE('',*,*,#819,.T.);
#868 = ORIENTED_EDGE('',*,*,#869,.T.);
#869 = EDGE_CURVE('',#812,#710,#870,.T.);
#870 = LINE('',#871,#872);
#871 = CARTESIAN_POINT('',(28.5,-34.73,4.7));
#872 = VECTOR('',#873,1.);
#873 = DIRECTION('',(-1.,1.110223024625E-16,0.));
#874 = ORIENTED_EDGE('',*,*,#709,.F.);
#875 = PLANE('',#876);
#876 = AXIS2_PLACEMENT_3D('',#877,#878,#879);
#877 = CARTESIAN_POINT('',(28.5,-66.98,4.7));
#878 = DIRECTION('',(0.,0.,1.));
#879 = DIRECTION('',(1.110223024625E-16,1.,0.));
#880 = ADVANCED_FACE('',(#881),#918,.F.);
#881 = FACE_BOUND('',#882,.F.);
#882 = EDGE_LOOP('',(#883,#884,#893,#902,#910,#917));
#883 = ORIENTED_EDGE('',*,*,#740,.F.);
#884 = ORIENTED_EDGE('',*,*,#885,.T.);
#885 = EDGE_CURVE('',#638,#886,#888,.T.);
#886 = VERTEX_POINT('',#887);
#887 = CARTESIAN_POINT('',(22.5,-28.73,1.6));
#888 = CIRCLE('',#889,6.);
#889 = AXIS2_PLACEMENT_3D('',#890,#891,#892);
#890 = CARTESIAN_POINT('',(22.5,-34.73,1.6));
#891 = DIRECTION('',(0.,-0.,1.));
#892 = DIRECTION('',(1.110223024625E-16,1.,0.));
#893 = ORIENTED_EDGE('',*,*,#894,.T.);
#894 = EDGE_CURVE('',#886,#895,#897,.T.);
#895 = VERTEX_POINT('',#896);
#896 = CARTESIAN_POINT('',(16.5,-34.73,1.6));
#897 = CIRCLE('',#898,6.);
#898 = AXIS2_PLACEMENT_3D('',#899,#900,#901);
#899 = CARTESIAN_POINT('',(22.5,-34.73,1.6));
#900 = DIRECTION('',(0.,-0.,1.));
#901 = DIRECTION('',(1.110223024625E-16,1.,0.));
#902 = ORIENTED_EDGE('',*,*,#903,.F.);
#903 = EDGE_CURVE('',#904,#895,#906,.T.);
#904 = VERTEX_POINT('',#905);
#905 = CARTESIAN_POINT('',(19.59,-34.73,1.6));
#906 = LINE('',#907,#908);
#907 = CARTESIAN_POINT('',(28.5,-34.73,1.6));
#908 = VECTOR('',#909,1.);
#909 = DIRECTION('',(-1.,1.110223024625E-16,0.));
#910 = ORIENTED_EDGE('',*,*,#911,.F.);
#911 = EDGE_CURVE('',#836,#904,#912,.T.);
#912 = CIRCLE('',#913,2.91);
#913 = AXIS2_PLACEMENT_3D('',#914,#915,#916);
#914 = CARTESIAN_POINT('',(22.5,-34.73,1.6));
#915 = DIRECTION('',(0.,-0.,1.));
#916 = DIRECTION('',(1.110223024625E-16,1.,0.));
#917 = ORIENTED_EDGE('',*,*,#853,.F.);
#918 = PLANE('',#919);
#919 = AXIS2_PLACEMENT_3D('',#920,#921,#922);
#920 = CARTESIAN_POINT('',(22.5,-34.73,1.6));
#921 = DIRECTION('',(0.,0.,1.));
#922 = DIRECTION('',(1.110223024625E-16,1.,0.));
#923 = ADVANCED_FACE('',(#924),#947,.T.);
#924 = FACE_BOUND('',#925,.T.);
#925 = EDGE_LOOP('',(#926,#927,#933,#941));
#926 = ORIENTED_EDGE('',*,*,#772,.F.);
#927 = ORIENTED_EDGE('',*,*,#928,.T.);
#928 = EDGE_CURVE('',#638,#812,#929,.T.);
#929 = LINE('',#930,#931);
#930 = CARTESIAN_POINT('',(28.5,-34.73,1.6));
#931 = VECTOR('',#932,1.);
#932 = DIRECTION('',(0.,0.,1.));
#933 = ORIENTED_EDGE('',*,*,#934,.T.);
#934 = EDGE_CURVE('',#812,#935,#937,.T.);
#935 = VERTEX_POINT('',#936);
#936 = CARTESIAN_POINT('',(33.,-34.73,4.7));
#937 = LINE('',#938,#939);
#938 = CARTESIAN_POINT('',(28.5,-34.73,4.7));
#939 = VECTOR('',#940,1.);
#940 = DIRECTION('',(1.,0.,0.));
#941 = ORIENTED_EDGE('',*,*,#942,.F.);
#942 = EDGE_CURVE('',#765,#935,#943,.T.);
#943 = LINE('',#944,#945);
#944 = CARTESIAN_POINT('',(33.,-34.73,1.6));
#945 = VECTOR('',#946,1.);
#946 = DIRECTION('',(0.,0.,1.));
#947 = PLANE('',#948);
#948 = AXIS2_PLACEMENT_3D('',#949,#950,#951);
#949 = CARTESIAN_POINT('',(28.5,-34.73,1.6));
#950 = DIRECTION('',(0.,1.,0.));
#951 = DIRECTION('',(0.,0.,1.));
#952 = ADVANCED_FACE('',(#953),#979,.F.);
#953 = FACE_BOUND('',#954,.F.);
#954 = EDGE_LOOP('',(#955,#956,#964,#972));
#955 = ORIENTED_EDGE('',*,*,#764,.F.);
#956 = ORIENTED_EDGE('',*,*,#957,.F.);
#957 = EDGE_CURVE('',#958,#757,#960,.T.);
#958 = VERTEX_POINT('',#959);
#959 = CARTESIAN_POINT('',(36.09,-47.855,1.6));
#960 = LINE('',#961,#962);
#961 = CARTESIAN_POINT('',(45.,-47.855,1.6));
#962 = VECTOR('',#963,1.);
#963 = DIRECTION('',(-1.,1.110223024625E-16,0.));
#964 = ORIENTED_EDGE('',*,*,#965,.T.);
#965 = EDGE_CURVE('',#958,#966,#968,.T.);
#966 = VERTEX_POINT('',#967);
#967 = CARTESIAN_POINT('',(36.09,-39.97708490497,1.6));
#968 = LINE('',#969,#970);
#969 = CARTESIAN_POINT('',(36.09,-63.89,1.6));
#970 = VECTOR('',#971,1.);
#971 = DIRECTION('',(1.110223024625E-16,1.,0.));
#972 = ORIENTED_EDGE('',*,*,#973,.F.);
#973 = EDGE_CURVE('',#765,#966,#974,.T.);
#974 = CIRCLE('',#975,6.);
#975 = AXIS2_PLACEMENT_3D('',#976,#977,#978);
#976 = CARTESIAN_POINT('',(39.,-34.73,1.6));
#977 = DIRECTION('',(0.,-0.,1.));
#978 = DIRECTION('',(1.110223024625E-16,1.,0.));
#979 = PLANE('',#980);
#980 = AXIS2_PLACEMENT_3D('',#981,#982,#983);
#981 = CARTESIAN_POINT('',(45.,-66.98,1.6));
#982 = DIRECTION('',(0.,0.,1.));
#983 = DIRECTION('',(1.110223024625E-16,1.,0.));
#984 = ADVANCED_FACE('',(#985),#1003,.F.);
#985 = FACE_BOUND('',#986,.F.);
#986 = EDGE_LOOP('',(#987,#995,#996,#997));
#987 = ORIENTED_EDGE('',*,*,#988,.T.);
#988 = EDGE_CURVE('',#989,#958,#991,.T.);
#989 = VERTEX_POINT('',#990);
#990 = CARTESIAN_POINT('',(36.09,-47.855,4.7));
#991 = LINE('',#992,#993);
#992 = CARTESIAN_POINT('',(36.09,-47.855,1.6));
#993 = VECTOR('',#994,1.);
#994 = DIRECTION('',(-0.,0.,-1.));
#995 = ORIENTED_EDGE('',*,*,#957,.T.);
#996 = ORIENTED_EDGE('',*,*,#796,.T.);
#997 = ORIENTED_EDGE('',*,*,#998,.F.);
#998 = EDGE_CURVE('',#989,#789,#999,.T.);
#999 = LINE('',#1000,#1001);
#1000 = CARTESIAN_POINT('',(45.,-47.855,4.7));
#1001 = VECTOR('',#1002,1.);
#1002 = DIRECTION('',(-1.,1.110223024625E-16,0.));
#1003 = PLANE('',#1004);
#1004 = AXIS2_PLACEMENT_3D('',#1005,#1006,#1007);
#1005 = CARTESIAN_POINT('',(45.,-47.855,1.6));
#1006 = DIRECTION('',(1.110223024625E-16,1.,0.));
#1007 = DIRECTION('',(0.,0.,1.));
#1008 = ADVANCED_FACE('',(#1009),#1020,.T.);
#1009 = FACE_BOUND('',#1010,.T.);
#1010 = EDGE_LOOP('',(#1011,#1012,#1013,#1019));
#1011 = ORIENTED_EDGE('',*,*,#811,.F.);
#1012 = ORIENTED_EDGE('',*,*,#788,.T.);
#1013 = ORIENTED_EDGE('',*,*,#1014,.T.);
#1014 = EDGE_CURVE('',#789,#935,#1015,.T.);
#1015 = LINE('',#1016,#1017);
#1016 = CARTESIAN_POINT('',(33.,-47.855,4.7));
#1017 = VECTOR('',#1018,1.);
#1018 = DIRECTION('',(0.,1.,0.));
#1019 = ORIENTED_EDGE('',*,*,#934,.F.);
#1020 = PLANE('',#1021);
#1021 = AXIS2_PLACEMENT_3D('',#1022,#1023,#1024);
#1022 = CARTESIAN_POINT('',(28.5,-47.855,4.7));
#1023 = DIRECTION('',(0.,0.,1.));
#1024 = DIRECTION('',(1.,0.,0.));
#1025 = ADVANCED_FACE('',(#1026),#1045,.F.);
#1026 = FACE_BOUND('',#1027,.F.);
#1027 = EDGE_LOOP('',(#1028,#1037,#1038,#1039));
#1028 = ORIENTED_EDGE('',*,*,#1029,.F.);
#1029 = EDGE_CURVE('',#838,#1030,#1032,.T.);
#1030 = VERTEX_POINT('',#1031);
#1031 = CARTESIAN_POINT('',(19.59,-34.73,4.7));
#1032 = CIRCLE('',#1033,2.91);
#1033 = AXIS2_PLACEMENT_3D('',#1034,#1035,#1036);
#1034 = CARTESIAN_POINT('',(22.5,-34.73,4.7));
#1035 = DIRECTION('',(0.,-0.,1.));
#1036 = DIRECTION('',(1.110223024625E-16,1.,0.));
#1037 = ORIENTED_EDGE('',*,*,#835,.F.);
#1038 = ORIENTED_EDGE('',*,*,#911,.T.);
#1039 = ORIENTED_EDGE('',*,*,#1040,.T.);
#1040 = EDGE_CURVE('',#904,#1030,#1041,.T.);
#1041 = LINE('',#1042,#1043);
#1042 = CARTESIAN_POINT('',(19.59,-34.73,1.6));
#1043 = VECTOR('',#1044,1.);
#1044 = DIRECTION('',(0.,0.,1.));
#1045 = CYLINDRICAL_SURFACE('',#1046,2.91);
#1046 = AXIS2_PLACEMENT_3D('',#1047,#1048,#1049);
#1047 = CARTESIAN_POINT('',(22.5,-34.73,1.6));
#1048 = DIRECTION('',(0.,0.,1.));
#1049 = DIRECTION('',(1.110223024625E-16,1.,0.));
#1050 = ADVANCED_FACE('',(#1051),#1080,.T.);
#1051 = FACE_BOUND('',#1052,.T.);
#1052 = EDGE_LOOP('',(#1053,#1054,#1063,#1072,#1078,#1079));
#1053 = ORIENTED_EDGE('',*,*,#869,.F.);
#1054 = ORIENTED_EDGE('',*,*,#1055,.T.);
#1055 = EDGE_CURVE('',#812,#1056,#1058,.T.);
#1056 = VERTEX_POINT('',#1057);
#1057 = CARTESIAN_POINT('',(22.5,-28.73,4.7));
#1058 = CIRCLE('',#1059,6.);
#1059 = AXIS2_PLACEMENT_3D('',#1060,#1061,#1062);
#1060 = CARTESIAN_POINT('',(22.5,-34.73,4.7));
#1061 = DIRECTION('',(0.,-0.,1.));
#1062 = DIRECTION('',(1.110223024625E-16,1.,0.));
#1063 = ORIENTED_EDGE('',*,*,#1064,.T.);
#1064 = EDGE_CURVE('',#1056,#1065,#1067,.T.);
#1065 = VERTEX_POINT('',#1066);
#1066 = CARTESIAN_POINT('',(16.5,-34.73,4.7));
#1067 = CIRCLE('',#1068,6.);
#1068 = AXIS2_PLACEMENT_3D('',#1069,#1070,#1071);
#1069 = CARTESIAN_POINT('',(22.5,-34.73,4.7));
#1070 = DIRECTION('',(0.,-0.,1.));
#1071 = DIRECTION('',(1.110223024625E-16,1.,0.));
#1072 = ORIENTED_EDGE('',*,*,#1073,.F.);
#1073 = EDGE_CURVE('',#1030,#1065,#1074,.T.);
#1074 = LINE('',#1075,#1076);
#1075 = CARTESIAN_POINT('',(28.5,-34.73,4.7));
#1076 = VECTOR('',#1077,1.);
#1077 = DIRECTION('',(-1.,1.110223024625E-16,0.));
#1078 = ORIENTED_EDGE('',*,*,#1029,.F.);
#1079 = ORIENTED_EDGE('',*,*,#845,.F.);
#1080 = PLANE('',#1081);
#1081 = AXIS2_PLACEMENT_3D('',#1082,#1083,#1084);
#1082 = CARTESIAN_POINT('',(22.5,-34.73,4.7));
#1083 = DIRECTION('',(0.,0.,1.));
#1084 = DIRECTION('',(1.110223024625E-16,1.,0.));
#1085 = ADVANCED_FACE('',(#1086),#1104,.F.);
#1086 = FACE_BOUND('',#1087,.F.);
#1087 = EDGE_LOOP('',(#1088,#1096,#1097));
#1088 = ORIENTED_EDGE('',*,*,#1089,.T.);
#1089 = EDGE_CURVE('',#1090,#904,#1092,.T.);
#1090 = VERTEX_POINT('',#1091);
#1091 = CARTESIAN_POINT('',(19.59,-39.97708490497,1.6));
#1092 = LINE('',#1093,#1094);
#1093 = CARTESIAN_POINT('',(19.59,-63.89,1.6));
#1094 = VECTOR('',#1095,1.);
#1095 = DIRECTION('',(1.110223024625E-16,1.,0.));
#1096 = ORIENTED_EDGE('',*,*,#903,.T.);
#1097 = ORIENTED_EDGE('',*,*,#1098,.T.);
#1098 = EDGE_CURVE('',#895,#1090,#1099,.T.);
#1099 = CIRCLE('',#1100,6.);
#1100 = AXIS2_PLACEMENT_3D('',#1101,#1102,#1103);
#1101 = CARTESIAN_POINT('',(22.5,-34.73,1.6));
#1102 = DIRECTION('',(0.,-0.,1.));
#1103 = DIRECTION('',(1.110223024625E-16,1.,0.));
#1104 = PLANE('',#1105);
#1105 = AXIS2_PLACEMENT_3D('',#1106,#1107,#1108);
#1106 = CARTESIAN_POINT('',(28.5,-66.98,1.6));
#1107 = DIRECTION('',(0.,0.,1.));
#1108 = DIRECTION('',(1.110223024625E-16,1.,0.));
#1109 = ADVANCED_FACE('',(#1110),#1126,.T.);
#1110 = FACE_BOUND('',#1111,.T.);
#1111 = EDGE_LOOP('',(#1112,#1113,#1119,#1120));
#1112 = ORIENTED_EDGE('',*,*,#1064,.F.);
#1113 = ORIENTED_EDGE('',*,*,#1114,.F.);
#1114 = EDGE_CURVE('',#886,#1056,#1115,.T.);
#1115 = LINE('',#1116,#1117);
#1116 = CARTESIAN_POINT('',(22.5,-28.73,1.6));
#1117 = VECTOR('',#1118,1.);
#1118 = DIRECTION('',(0.,0.,1.));
#1119 = ORIENTED_EDGE('',*,*,#894,.T.);
#1120 = ORIENTED_EDGE('',*,*,#1121,.T.);
#1121 = EDGE_CURVE('',#895,#1065,#1122,.T.);
#1122 = LINE('',#1123,#1124);
#1123 = CARTESIAN_POINT('',(16.5,-34.73,1.6));
#1124 = VECTOR('',#1125,1.);
#1125 = DIRECTION('',(0.,0.,1.));
#1126 = CYLINDRICAL_SURFACE('',#1127,6.);
#1127 = AXIS2_PLACEMENT_3D('',#1128,#1129,#1130);
#1128 = CARTESIAN_POINT('',(22.5,-34.73,1.6));
#1129 = DIRECTION('',(0.,0.,1.));
#1130 = DIRECTION('',(1.110223024625E-16,1.,0.));
#1131 = ADVANCED_FACE('',(#1132),#1138,.T.);
#1132 = FACE_BOUND('',#1133,.T.);
#1133 = EDGE_LOOP('',(#1134,#1135,#1136,#1137));
#1134 = ORIENTED_EDGE('',*,*,#1114,.T.);
#1135 = ORIENTED_EDGE('',*,*,#1055,.F.);
#1136 = ORIENTED_EDGE('',*,*,#928,.F.);
#1137 = ORIENTED_EDGE('',*,*,#885,.T.);
#1138 = CYLINDRICAL_SURFACE('',#1139,6.);
#1139 = AXIS2_PLACEMENT_3D('',#1140,#1141,#1142);
#1140 = CARTESIAN_POINT('',(22.5,-34.73,1.6));
#1141 = DIRECTION('',(0.,0.,1.));
#1142 = DIRECTION('',(1.110223024625E-16,1.,0.));
#1143 = ADVANCED_FACE('',(#1144),#1171,.T.);
#1144 = FACE_BOUND('',#1145,.T.);
#1145 = EDGE_LOOP('',(#1146,#1155,#1163,#1170));
#1146 = ORIENTED_EDGE('',*,*,#1147,.F.);
#1147 = EDGE_CURVE('',#1148,#935,#1150,.T.);
#1148 = VERTEX_POINT('',#1149);
#1149 = CARTESIAN_POINT('',(39.,-28.73,4.7));
#1150 = CIRCLE('',#1151,6.);
#1151 = AXIS2_PLACEMENT_3D('',#1152,#1153,#1154);
#1152 = CARTESIAN_POINT('',(39.,-34.73,4.7));
#1153 = DIRECTION('',(0.,-0.,1.));
#1154 = DIRECTION('',(1.110223024625E-16,1.,0.));
#1155 = ORIENTED_EDGE('',*,*,#1156,.F.);
#1156 = EDGE_CURVE('',#1157,#1148,#1159,.T.);
#1157 = VERTEX_POINT('',#1158);
#1158 = CARTESIAN_POINT('',(39.,-28.73,1.6));
#1159 = LINE('',#1160,#1161);
#1160 = CARTESIAN_POINT('',(39.,-28.73,1.6));
#1161 = VECTOR('',#1162,1.);
#1162 = DIRECTION('',(0.,0.,1.));
#1163 = ORIENTED_EDGE('',*,*,#1164,.T.);
#1164 = EDGE_CURVE('',#1157,#765,#1165,.T.);
#1165 = CIRCLE('',#1166,6.);
#1166 = AXIS2_PLACEMENT_3D('',#1167,#1168,#1169);
#1167 = CARTESIAN_POINT('',(39.,-34.73,1.6));
#1168 = DIRECTION('',(0.,-0.,1.));
#1169 = DIRECTION('',(1.110223024625E-16,1.,0.));
#1170 = ORIENTED_EDGE('',*,*,#942,.T.);
#1171 = CYLINDRICAL_SURFACE('',#1172,6.);
#1172 = AXIS2_PLACEMENT_3D('',#1173,#1174,#1175);
#1173 = CARTESIAN_POINT('',(39.,-34.73,1.6));
#1174 = DIRECTION('',(0.,0.,1.));
#1175 = DIRECTION('',(1.110223024625E-16,1.,0.));
#1176 = ADVANCED_FACE('',(#1177),#1194,.F.);
#1177 = FACE_BOUND('',#1178,.F.);
#1178 = EDGE_LOOP('',(#1179,#1187,#1193));
#1179 = ORIENTED_EDGE('',*,*,#1180,.T.);
#1180 = EDGE_CURVE('',#966,#1181,#1183,.T.);
#1181 = VERTEX_POINT('',#1182);
#1182 = CARTESIAN_POINT('',(36.09,-34.73,1.6));
#1183 = LINE('',#1184,#1185);
#1184 = CARTESIAN_POINT('',(36.09,-63.89,1.6));
#1185 = VECTOR('',#1186,1.);
#1186 = DIRECTION('',(1.110223024625E-16,1.,0.));
#1187 = ORIENTED_EDGE('',*,*,#1188,.T.);
#1188 = EDGE_CURVE('',#1181,#765,#1189,.T.);
#1189 = LINE('',#1190,#1191);
#1190 = CARTESIAN_POINT('',(45.,-34.73,1.6));
#1191 = VECTOR('',#1192,1.);
#1192 = DIRECTION('',(-1.,1.110223024625E-16,0.));
#1193 = ORIENTED_EDGE('',*,*,#973,.T.);
#1194 = PLANE('',#1195);
#1195 = AXIS2_PLACEMENT_3D('',#1196,#1197,#1198);
#1196 = CARTESIAN_POINT('',(45.,-66.98,1.6));
#1197 = DIRECTION('',(0.,0.,1.));
#1198 = DIRECTION('',(1.110223024625E-16,1.,0.));
#1199 = ADVANCED_FACE('',(#1200),#1227,.F.);
#1200 = FACE_BOUND('',#1201,.F.);
#1201 = EDGE_LOOP('',(#1202,#1203,#1204,#1212,#1220,#1226));
#1202 = ORIENTED_EDGE('',*,*,#965,.F.);
#1203 = ORIENTED_EDGE('',*,*,#988,.F.);
#1204 = ORIENTED_EDGE('',*,*,#1205,.T.);
#1205 = EDGE_CURVE('',#989,#1206,#1208,.T.);
#1206 = VERTEX_POINT('',#1207);
#1207 = CARTESIAN_POINT('',(36.09,-39.97708490497,4.7));
#1208 = LINE('',#1209,#1210);
#1209 = CARTESIAN_POINT('',(36.09,-63.89,4.7));
#1210 = VECTOR('',#1211,1.);
#1211 = DIRECTION('',(1.110223024625E-16,1.,0.));
#1212 = ORIENTED_EDGE('',*,*,#1213,.T.);
#1213 = EDGE_CURVE('',#1206,#1214,#1216,.T.);
#1214 = VERTEX_POINT('',#1215);
#1215 = CARTESIAN_POINT('',(36.09,-34.73,4.7));
#1216 = LINE('',#1217,#1218);
#1217 = CARTESIAN_POINT('',(36.09,-63.89,4.7));
#1218 = VECTOR('',#1219,1.);
#1219 = DIRECTION('',(1.110223024625E-16,1.,0.));
#1220 = ORIENTED_EDGE('',*,*,#1221,.F.);
#1221 = EDGE_CURVE('',#1181,#1214,#1222,.T.);
#1222 = LINE('',#1223,#1224);
#1223 = CARTESIAN_POINT('',(36.09,-34.73,1.6));
#1224 = VECTOR('',#1225,1.);
#1225 = DIRECTION('',(0.,0.,1.));
#1226 = ORIENTED_EDGE('',*,*,#1180,.F.);
#1227 = PLANE('',#1228);
#1228 = AXIS2_PLACEMENT_3D('',#1229,#1230,#1231);
#1229 = CARTESIAN_POINT('',(36.09,-63.89,1.6));
#1230 = DIRECTION('',(-1.,1.110223024625E-16,0.));
#1231 = DIRECTION('',(0.,0.,1.));
#1232 = ADVANCED_FACE('',(#1233),#1245,.T.);
#1233 = FACE_BOUND('',#1234,.T.);
#1234 = EDGE_LOOP('',(#1235,#1236,#1237,#1238));
#1235 = ORIENTED_EDGE('',*,*,#1014,.F.);
#1236 = ORIENTED_EDGE('',*,*,#998,.F.);
#1237 = ORIENTED_EDGE('',*,*,#1205,.T.);
#1238 = ORIENTED_EDGE('',*,*,#1239,.F.);
#1239 = EDGE_CURVE('',#935,#1206,#1240,.T.);
#1240 = CIRCLE('',#1241,6.);
#1241 = AXIS2_PLACEMENT_3D('',#1242,#1243,#1244);
#1242 = CARTESIAN_POINT('',(39.,-34.73,4.7));
#1243 = DIRECTION('',(0.,-0.,1.));
#1244 = DIRECTION('',(1.110223024625E-16,1.,0.));
#1245 = PLANE('',#1246);
#1246 = AXIS2_PLACEMENT_3D('',#1247,#1248,#1249);
#1247 = CARTESIAN_POINT('',(45.,-66.98,4.7));
#1248 = DIRECTION('',(0.,0.,1.));
#1249 = DIRECTION('',(1.110223024625E-16,1.,0.));
#1250 = ADVANCED_FACE('',(#1251),#1285,.F.);
#1251 = FACE_BOUND('',#1252,.F.);
#1252 = EDGE_LOOP('',(#1253,#1261,#1269,#1277,#1283,#1284));
#1253 = ORIENTED_EDGE('',*,*,#1254,.F.);
#1254 = EDGE_CURVE('',#1255,#1090,#1257,.T.);
#1255 = VERTEX_POINT('',#1256);
#1256 = CARTESIAN_POINT('',(19.59,-47.855,1.6));
#1257 = LINE('',#1258,#1259);
#1258 = CARTESIAN_POINT('',(19.59,-63.89,1.6));
#1259 = VECTOR('',#1260,1.);
#1260 = DIRECTION('',(1.110223024625E-16,1.,0.));
#1261 = ORIENTED_EDGE('',*,*,#1262,.F.);
#1262 = EDGE_CURVE('',#1263,#1255,#1265,.T.);
#1263 = VERTEX_POINT('',#1264);
#1264 = CARTESIAN_POINT('',(19.59,-47.855,4.7));
#1265 = LINE('',#1266,#1267);
#1266 = CARTESIAN_POINT('',(19.59,-47.855,1.6));
#1267 = VECTOR('',#1268,1.);
#1268 = DIRECTION('',(-0.,0.,-1.));
#1269 = ORIENTED_EDGE('',*,*,#1270,.T.);
#1270 = EDGE_CURVE('',#1263,#1271,#1273,.T.);
#1271 = VERTEX_POINT('',#1272);
#1272 = CARTESIAN_POINT('',(19.59,-39.97708490497,4.7));
#1273 = LINE('',#1274,#1275);
#1274 = CARTESIAN_POINT('',(19.59,-63.89,4.7));
#1275 = VECTOR('',#1276,1.);
#1276 = DIRECTION('',(1.110223024625E-16,1.,0.));
#1277 = ORIENTED_EDGE('',*,*,#1278,.T.);
#1278 = EDGE_CURVE('',#1271,#1030,#1279,.T.);
#1279 = LINE('',#1280,#1281);
#1280 = CARTESIAN_POINT('',(19.59,-63.89,4.7));
#1281 = VECTOR('',#1282,1.);
#1282 = DIRECTION('',(1.110223024625E-16,1.,0.));
#1283 = ORIENTED_EDGE('',*,*,#1040,.F.);
#1284 = ORIENTED_EDGE('',*,*,#1089,.F.);
#1285 = PLANE('',#1286);
#1286 = AXIS2_PLACEMENT_3D('',#1287,#1288,#1289);
#1287 = CARTESIAN_POINT('',(19.59,-63.89,1.6));
#1288 = DIRECTION('',(-1.,1.110223024625E-16,0.));
#1289 = DIRECTION('',(0.,0.,1.));
#1290 = ADVANCED_FACE('',(#1291),#1302,.T.);
#1291 = FACE_BOUND('',#1292,.T.);
#1292 = EDGE_LOOP('',(#1293,#1294,#1295));
#1293 = ORIENTED_EDGE('',*,*,#1278,.T.);
#1294 = ORIENTED_EDGE('',*,*,#1073,.T.);
#1295 = ORIENTED_EDGE('',*,*,#1296,.T.);
#1296 = EDGE_CURVE('',#1065,#1271,#1297,.T.);
#1297 = CIRCLE('',#1298,6.);
#1298 = AXIS2_PLACEMENT_3D('',#1299,#1300,#1301);
#1299 = CARTESIAN_POINT('',(22.5,-34.73,4.7));
#1300 = DIRECTION('',(0.,-0.,1.));
#1301 = DIRECTION('',(1.110223024625E-16,1.,0.));
#1302 = PLANE('',#1303);
#1303 = AXIS2_PLACEMENT_3D('',#1304,#1305,#1306);
#1304 = CARTESIAN_POINT('',(28.5,-66.98,4.7));
#1305 = DIRECTION('',(0.,0.,1.));
#1306 = DIRECTION('',(1.110223024625E-16,1.,0.));
#1307 = ADVANCED_FACE('',(#1308),#1326,.F.);
#1308 = FACE_BOUND('',#1309,.F.);
#1309 = EDGE_LOOP('',(#1310,#1318,#1324,#1325));
#1310 = ORIENTED_EDGE('',*,*,#1311,.F.);
#1311 = EDGE_CURVE('',#1312,#895,#1314,.T.);
#1312 = VERTEX_POINT('',#1313);
#1313 = CARTESIAN_POINT('',(16.5,-47.855,1.6));
#1314 = LINE('',#1315,#1316);
#1315 = CARTESIAN_POINT('',(16.5,-66.98,1.6));
#1316 = VECTOR('',#1317,1.);
#1317 = DIRECTION('',(1.110223024625E-16,1.,0.));
#1318 = ORIENTED_EDGE('',*,*,#1319,.F.);
#1319 = EDGE_CURVE('',#1255,#1312,#1320,.T.);
#1320 = LINE('',#1321,#1322);
#1321 = CARTESIAN_POINT('',(28.5,-47.855,1.6));
#1322 = VECTOR('',#1323,1.);
#1323 = DIRECTION('',(-1.,1.110223024625E-16,0.));
#1324 = ORIENTED_EDGE('',*,*,#1254,.T.);
#1325 = ORIENTED_EDGE('',*,*,#1098,.F.);
#1326 = PLANE('',#1327);
#1327 = AXIS2_PLACEMENT_3D('',#1328,#1329,#1330);
#1328 = CARTESIAN_POINT('',(28.5,-66.98,1.6));
#1329 = DIRECTION('',(0.,0.,1.));
#1330 = DIRECTION('',(1.110223024625E-16,1.,0.));
#1331 = ADVANCED_FACE('',(#1332),#1350,.T.);
#1332 = FACE_BOUND('',#1333,.T.);
#1333 = EDGE_LOOP('',(#1334,#1335,#1343,#1349));
#1334 = ORIENTED_EDGE('',*,*,#1311,.F.);
#1335 = ORIENTED_EDGE('',*,*,#1336,.T.);
#1336 = EDGE_CURVE('',#1312,#1337,#1339,.T.);
#1337 = VERTEX_POINT('',#1338);
#1338 = CARTESIAN_POINT('',(16.5,-47.855,4.7));
#1339 = LINE('',#1340,#1341);
#1340 = CARTESIAN_POINT('',(16.5,-47.855,1.6));
#1341 = VECTOR('',#1342,1.);
#1342 = DIRECTION('',(0.,0.,1.));
#1343 = ORIENTED_EDGE('',*,*,#1344,.T.);
#1344 = EDGE_CURVE('',#1337,#1065,#1345,.T.);
#1345 = LINE('',#1346,#1347);
#1346 = CARTESIAN_POINT('',(16.5,-66.98,4.7));
#1347 = VECTOR('',#1348,1.);
#1348 = DIRECTION('',(1.110223024625E-16,1.,0.));
#1349 = ORIENTED_EDGE('',*,*,#1121,.F.);
#1350 = PLANE('',#1351);
#1351 = AXIS2_PLACEMENT_3D('',#1352,#1353,#1354);
#1352 = CARTESIAN_POINT('',(16.5,-66.98,1.6));
#1353 = DIRECTION('',(-1.,1.110223024625E-16,0.));
#1354 = DIRECTION('',(0.,0.,1.));
#1355 = ADVANCED_FACE('',(#1356),#1398,.T.);
#1356 = FACE_BOUND('',#1357,.T.);
#1357 = EDGE_LOOP('',(#1358,#1368,#1375,#1376,#1382,#1391));
#1358 = ORIENTED_EDGE('',*,*,#1359,.F.);
#1359 = EDGE_CURVE('',#1360,#1362,#1364,.T.);
#1360 = VERTEX_POINT('',#1361);
#1361 = CARTESIAN_POINT('',(45.,-34.73,4.7));
#1362 = VERTEX_POINT('',#1363);
#1363 = CARTESIAN_POINT('',(41.91,-34.73,4.7));
#1364 = LINE('',#1365,#1366);
#1365 = CARTESIAN_POINT('',(45.,-34.73,4.7));
#1366 = VECTOR('',#1367,1.);
#1367 = DIRECTION('',(-1.,1.110223024625E-16,0.));
#1368 = ORIENTED_EDGE('',*,*,#1369,.T.);
#1369 = EDGE_CURVE('',#1360,#1148,#1370,.T.);
#1370 = CIRCLE('',#1371,6.);
#1371 = AXIS2_PLACEMENT_3D('',#1372,#1373,#1374);
#1372 = CARTESIAN_POINT('',(39.,-34.73,4.7));
#1373 = DIRECTION('',(0.,-0.,1.));
#1374 = DIRECTION('',(1.110223024625E-16,1.,0.));
#1375 = ORIENTED_EDGE('',*,*,#1147,.T.);
#1376 = ORIENTED_EDGE('',*,*,#1377,.F.);
#1377 = EDGE_CURVE('',#1214,#935,#1378,.T.);
#1378 = LINE('',#1379,#1380);
#1379 = CARTESIAN_POINT('',(45.,-34.73,4.7));
#1380 = VECTOR('',#1381,1.);
#1381 = DIRECTION('',(-1.,1.110223024625E-16,0.));
#1382 = ORIENTED_EDGE('',*,*,#1383,.F.);
#1383 = EDGE_CURVE('',#1384,#1214,#1386,.T.);
#1384 = VERTEX_POINT('',#1385);
#1385 = CARTESIAN_POINT('',(39.,-31.82,4.7));
#1386 = CIRCLE('',#1387,2.91);
#1387 = AXIS2_PLACEMENT_3D('',#1388,#1389,#1390);
#1388 = CARTESIAN_POINT('',(39.,-34.73,4.7));
#1389 = DIRECTION('',(0.,-0.,1.));
#1390 = DIRECTION('',(1.110223024625E-16,1.,0.));
#1391 = ORIENTED_EDGE('',*,*,#1392,.F.);
#1392 = EDGE_CURVE('',#1362,#1384,#1393,.T.);
#1393 = CIRCLE('',#1394,2.91);
#1394 = AXIS2_PLACEMENT_3D('',#1395,#1396,#1397);
#1395 = CARTESIAN_POINT('',(39.,-34.73,4.7));
#1396 = DIRECTION('',(0.,-0.,1.));
#1397 = DIRECTION('',(1.110223024625E-16,1.,0.));
#1398 = PLANE('',#1399);
#1399 = AXIS2_PLACEMENT_3D('',#1400,#1401,#1402);
#1400 = CARTESIAN_POINT('',(39.,-34.73,4.7));
#1401 = DIRECTION('',(0.,0.,1.));
#1402 = DIRECTION('',(1.110223024625E-16,1.,0.));
#1403 = ADVANCED_FACE('',(#1404),#1441,.F.);
#1404 = FACE_BOUND('',#1405,.F.);
#1405 = EDGE_LOOP('',(#1406,#1416,#1423,#1424,#1425,#1434));
#1406 = ORIENTED_EDGE('',*,*,#1407,.F.);
#1407 = EDGE_CURVE('',#1408,#1410,#1412,.T.);
#1408 = VERTEX_POINT('',#1409);
#1409 = CARTESIAN_POINT('',(45.,-34.73,1.6));
#1410 = VERTEX_POINT('',#1411);
#1411 = CARTESIAN_POINT('',(41.91,-34.73,1.6));
#1412 = LINE('',#1413,#1414);
#1413 = CARTESIAN_POINT('',(45.,-34.73,1.6));
#1414 = VECTOR('',#1415,1.);
#1415 = DIRECTION('',(-1.,1.110223024625E-16,0.));
#1416 = ORIENTED_EDGE('',*,*,#1417,.T.);
#1417 = EDGE_CURVE('',#1408,#1157,#1418,.T.);
#1418 = CIRCLE('',#1419,6.);
#1419 = AXIS2_PLACEMENT_3D('',#1420,#1421,#1422);
#1420 = CARTESIAN_POINT('',(39.,-34.73,1.6));
#1421 = DIRECTION('',(0.,-0.,1.));
#1422 = DIRECTION('',(1.110223024625E-16,1.,0.));
#1423 = ORIENTED_EDGE('',*,*,#1164,.T.);
#1424 = ORIENTED_EDGE('',*,*,#1188,.F.);
#1425 = ORIENTED_EDGE('',*,*,#1426,.F.);
#1426 = EDGE_CURVE('',#1427,#1181,#1429,.T.);
#1427 = VERTEX_POINT('',#1428);
#1428 = CARTESIAN_POINT('',(39.,-31.82,1.6));
#1429 = CIRCLE('',#1430,2.91);
#1430 = AXIS2_PLACEMENT_3D('',#1431,#1432,#1433);
#1431 = CARTESIAN_POINT('',(39.,-34.73,1.6));
#1432 = DIRECTION('',(0.,-0.,1.));
#1433 = DIRECTION('',(1.110223024625E-16,1.,0.));
#1434 = ORIENTED_EDGE('',*,*,#1435,.F.);
#1435 = EDGE_CURVE('',#1410,#1427,#1436,.T.);
#1436 = CIRCLE('',#1437,2.91);
#1437 = AXIS2_PLACEMENT_3D('',#1438,#1439,#1440);
#1438 = CARTESIAN_POINT('',(39.,-34.73,1.6));
#1439 = DIRECTION('',(0.,-0.,1.));
#1440 = DIRECTION('',(1.110223024625E-16,1.,0.));
#1441 = PLANE('',#1442);
#1442 = AXIS2_PLACEMENT_3D('',#1443,#1444,#1445);
#1443 = CARTESIAN_POINT('',(39.,-34.73,1.6));
#1444 = DIRECTION('',(0.,0.,1.));
#1445 = DIRECTION('',(1.110223024625E-16,1.,0.));
#1446 = ADVANCED_FACE('',(#1447),#1458,.T.);
#1447 = FACE_BOUND('',#1448,.T.);
#1448 = EDGE_LOOP('',(#1449,#1450,#1451,#1457));
#1449 = ORIENTED_EDGE('',*,*,#1156,.T.);
#1450 = ORIENTED_EDGE('',*,*,#1369,.F.);
#1451 = ORIENTED_EDGE('',*,*,#1452,.F.);
#1452 = EDGE_CURVE('',#1408,#1360,#1453,.T.);
#1453 = LINE('',#1454,#1455);
#1454 = CARTESIAN_POINT('',(45.,-34.73,1.6));
#1455 = VECTOR('',#1456,1.);
#1456 = DIRECTION('',(0.,0.,1.));
#1457 = ORIENTED_EDGE('',*,*,#1417,.T.);
#1458 = CYLINDRICAL_SURFACE('',#1459,6.);
#1459 = AXIS2_PLACEMENT_3D('',#1460,#1461,#1462);
#1460 = CARTESIAN_POINT('',(39.,-34.73,1.6));
#1461 = DIRECTION('',(0.,0.,1.));
#1462 = DIRECTION('',(1.110223024625E-16,1.,0.));
#1463 = ADVANCED_FACE('',(#1464),#1475,.F.);
#1464 = FACE_BOUND('',#1465,.F.);
#1465 = EDGE_LOOP('',(#1466,#1467,#1473,#1474));
#1466 = ORIENTED_EDGE('',*,*,#1383,.F.);
#1467 = ORIENTED_EDGE('',*,*,#1468,.F.);
#1468 = EDGE_CURVE('',#1427,#1384,#1469,.T.);
#1469 = LINE('',#1470,#1471);
#1470 = CARTESIAN_POINT('',(39.,-31.82,1.6));
#1471 = VECTOR('',#1472,1.);
#1472 = DIRECTION('',(0.,0.,1.));
#1473 = ORIENTED_EDGE('',*,*,#1426,.T.);
#1474 = ORIENTED_EDGE('',*,*,#1221,.T.);
#1475 = CYLINDRICAL_SURFACE('',#1476,2.91);
#1476 = AXIS2_PLACEMENT_3D('',#1477,#1478,#1479);
#1477 = CARTESIAN_POINT('',(39.,-34.73,1.6));
#1478 = DIRECTION('',(0.,0.,1.));
#1479 = DIRECTION('',(1.110223024625E-16,1.,0.));
#1480 = ADVANCED_FACE('',(#1481),#1486,.T.);
#1481 = FACE_BOUND('',#1482,.T.);
#1482 = EDGE_LOOP('',(#1483,#1484,#1485));
#1483 = ORIENTED_EDGE('',*,*,#1213,.T.);
#1484 = ORIENTED_EDGE('',*,*,#1377,.T.);
#1485 = ORIENTED_EDGE('',*,*,#1239,.T.);
#1486 = PLANE('',#1487);
#1487 = AXIS2_PLACEMENT_3D('',#1488,#1489,#1490);
#1488 = CARTESIAN_POINT('',(45.,-66.98,4.7));
#1489 = DIRECTION('',(0.,0.,1.));
#1490 = DIRECTION('',(1.110223024625E-16,1.,0.));
#1491 = ADVANCED_FACE('',(#1492),#1503,.T.);
#1492 = FACE_BOUND('',#1493,.T.);
#1493 = EDGE_LOOP('',(#1494,#1495,#1501,#1502));
#1494 = ORIENTED_EDGE('',*,*,#1344,.F.);
#1495 = ORIENTED_EDGE('',*,*,#1496,.F.);
#1496 = EDGE_CURVE('',#1263,#1337,#1497,.T.);
#1497 = LINE('',#1498,#1499);
#1498 = CARTESIAN_POINT('',(28.5,-47.855,4.7));
#1499 = VECTOR('',#1500,1.);
#1500 = DIRECTION('',(-1.,1.110223024625E-16,0.));
#1501 = ORIENTED_EDGE('',*,*,#1270,.T.);
#1502 = ORIENTED_EDGE('',*,*,#1296,.F.);
#1503 = PLANE('',#1504);
#1504 = AXIS2_PLACEMENT_3D('',#1505,#1506,#1507);
#1505 = CARTESIAN_POINT('',(28.5,-66.98,4.7));
#1506 = DIRECTION('',(0.,0.,1.));
#1507 = DIRECTION('',(1.110223024625E-16,1.,0.));
#1508 = ADVANCED_FACE('',(#1509),#1515,.F.);
#1509 = FACE_BOUND('',#1510,.F.);
#1510 = EDGE_LOOP('',(#1511,#1512,#1513,#1514));
#1511 = ORIENTED_EDGE('',*,*,#1262,.T.);
#1512 = ORIENTED_EDGE('',*,*,#1319,.T.);
#1513 = ORIENTED_EDGE('',*,*,#1336,.T.);
#1514 = ORIENTED_EDGE('',*,*,#1496,.F.);
#1515 = PLANE('',#1516);
#1516 = AXIS2_PLACEMENT_3D('',#1517,#1518,#1519);
#1517 = CARTESIAN_POINT('',(28.5,-47.855,1.6));
#1518 = DIRECTION('',(1.110223024625E-16,1.,0.));
#1519 = DIRECTION('',(0.,0.,1.));
#1520 = ADVANCED_FACE('',(#1521),#1539,.T.);
#1521 = FACE_BOUND('',#1522,.T.);
#1522 = EDGE_LOOP('',(#1523,#1532,#1533));
#1523 = ORIENTED_EDGE('',*,*,#1524,.T.);
#1524 = EDGE_CURVE('',#1525,#1360,#1527,.T.);
#1525 = VERTEX_POINT('',#1526);
#1526 = CARTESIAN_POINT('',(41.91,-39.97708490497,4.7));
#1527 = CIRCLE('',#1528,6.);
#1528 = AXIS2_PLACEMENT_3D('',#1529,#1530,#1531);
#1529 = CARTESIAN_POINT('',(39.,-34.73,4.7));
#1530 = DIRECTION('',(0.,-0.,1.));
#1531 = DIRECTION('',(1.110223024625E-16,1.,0.));
#1532 = ORIENTED_EDGE('',*,*,#1359,.T.);
#1533 = ORIENTED_EDGE('',*,*,#1534,.F.);
#1534 = EDGE_CURVE('',#1525,#1362,#1535,.T.);
#1535 = LINE('',#1536,#1537);
#1536 = CARTESIAN_POINT('',(41.91,-63.89,4.7));
#1537 = VECTOR('',#1538,1.);
#1538 = DIRECTION('',(1.110223024625E-16,1.,0.));
#1539 = PLANE('',#1540);
#1540 = AXIS2_PLACEMENT_3D('',#1541,#1542,#1543);
#1541 = CARTESIAN_POINT('',(45.,-66.98,4.7));
#1542 = DIRECTION('',(0.,0.,1.));
#1543 = DIRECTION('',(1.110223024625E-16,1.,0.));
#1544 = ADVANCED_FACE('',(#1545),#1556,.F.);
#1545 = FACE_BOUND('',#1546,.F.);
#1546 = EDGE_LOOP('',(#1547,#1548,#1549,#1555));
#1547 = ORIENTED_EDGE('',*,*,#1468,.T.);
#1548 = ORIENTED_EDGE('',*,*,#1392,.F.);
#1549 = ORIENTED_EDGE('',*,*,#1550,.F.);
#1550 = EDGE_CURVE('',#1410,#1362,#1551,.T.);
#1551 = LINE('',#1552,#1553);
#1552 = CARTESIAN_POINT('',(41.91,-34.73,1.6));
#1553 = VECTOR('',#1554,1.);
#1554 = DIRECTION('',(0.,0.,1.));
#1555 = ORIENTED_EDGE('',*,*,#1435,.T.);
#1556 = CYLINDRICAL_SURFACE('',#1557,2.91);
#1557 = AXIS2_PLACEMENT_3D('',#1558,#1559,#1560);
#1558 = CARTESIAN_POINT('',(39.,-34.73,1.6));
#1559 = DIRECTION('',(0.,0.,1.));
#1560 = DIRECTION('',(1.110223024625E-16,1.,0.));
#1561 = ADVANCED_FACE('',(#1562),#1580,.F.);
#1562 = FACE_BOUND('',#1563,.F.);
#1563 = EDGE_LOOP('',(#1564,#1573,#1574));
#1564 = ORIENTED_EDGE('',*,*,#1565,.T.);
#1565 = EDGE_CURVE('',#1566,#1408,#1568,.T.);
#1566 = VERTEX_POINT('',#1567);
#1567 = CARTESIAN_POINT('',(41.91,-39.97708490497,1.6));
#1568 = CIRCLE('',#1569,6.);
#1569 = AXIS2_PLACEMENT_3D('',#1570,#1571,#1572);
#1570 = CARTESIAN_POINT('',(39.,-34.73,1.6));
#1571 = DIRECTION('',(0.,-0.,1.));
#1572 = DIRECTION('',(1.110223024625E-16,1.,0.));
#1573 = ORIENTED_EDGE('',*,*,#1407,.T.);
#1574 = ORIENTED_EDGE('',*,*,#1575,.F.);
#1575 = EDGE_CURVE('',#1566,#1410,#1576,.T.);
#1576 = LINE('',#1577,#1578);
#1577 = CARTESIAN_POINT('',(41.91,-63.89,1.6));
#1578 = VECTOR('',#1579,1.);
#1579 = DIRECTION('',(1.110223024625E-16,1.,0.));
#1580 = PLANE('',#1581);
#1581 = AXIS2_PLACEMENT_3D('',#1582,#1583,#1584);
#1582 = CARTESIAN_POINT('',(45.,-66.98,1.6));
#1583 = DIRECTION('',(0.,0.,1.));
#1584 = DIRECTION('',(1.110223024625E-16,1.,0.));
#1585 = ADVANCED_FACE('',(#1586),#1611,.F.);
#1586 = FACE_BOUND('',#1587,.F.);
#1587 = EDGE_LOOP('',(#1588,#1596,#1604,#1610));
#1588 = ORIENTED_EDGE('',*,*,#1589,.F.);
#1589 = EDGE_CURVE('',#1590,#1408,#1592,.T.);
#1590 = VERTEX_POINT('',#1591);
#1591 = CARTESIAN_POINT('',(45.,-47.855,1.6));
#1592 = LINE('',#1593,#1594);
#1593 = CARTESIAN_POINT('',(45.,-66.98,1.6));
#1594 = VECTOR('',#1595,1.);
#1595 = DIRECTION('',(1.110223024625E-16,1.,0.));
#1596 = ORIENTED_EDGE('',*,*,#1597,.T.);
#1597 = EDGE_CURVE('',#1590,#1598,#1600,.T.);
#1598 = VERTEX_POINT('',#1599);
#1599 = CARTESIAN_POINT('',(45.,-47.855,4.7));
#1600 = LINE('',#1601,#1602);
#1601 = CARTESIAN_POINT('',(45.,-47.855,1.6));
#1602 = VECTOR('',#1603,1.);
#1603 = DIRECTION('',(0.,0.,1.));
#1604 = ORIENTED_EDGE('',*,*,#1605,.T.);
#1605 = EDGE_CURVE('',#1598,#1360,#1606,.T.);
#1606 = LINE('',#1607,#1608);
#1607 = CARTESIAN_POINT('',(45.,-66.98,4.7));
#1608 = VECTOR('',#1609,1.);
#1609 = DIRECTION('',(1.110223024625E-16,1.,0.));
#1610 = ORIENTED_EDGE('',*,*,#1452,.F.);
#1611 = PLANE('',#1612);
#1612 = AXIS2_PLACEMENT_3D('',#1613,#1614,#1615);
#1613 = CARTESIAN_POINT('',(45.,-66.98,1.6));
#1614 = DIRECTION('',(-1.,1.110223024625E-16,0.));
#1615 = DIRECTION('',(0.,0.,1.));
#1616 = ADVANCED_FACE('',(#1617),#1635,.T.);
#1617 = FACE_BOUND('',#1618,.T.);
#1618 = EDGE_LOOP('',(#1619,#1627,#1628,#1629));
#1619 = ORIENTED_EDGE('',*,*,#1620,.F.);
#1620 = EDGE_CURVE('',#1598,#1621,#1623,.T.);
#1621 = VERTEX_POINT('',#1622);
#1622 = CARTESIAN_POINT('',(41.91,-47.855,4.7));
#1623 = LINE('',#1624,#1625);
#1624 = CARTESIAN_POINT('',(45.,-47.855,4.7));
#1625 = VECTOR('',#1626,1.);
#1626 = DIRECTION('',(-1.,1.110223024625E-16,0.));
#1627 = ORIENTED_EDGE('',*,*,#1605,.T.);
#1628 = ORIENTED_EDGE('',*,*,#1524,.F.);
#1629 = ORIENTED_EDGE('',*,*,#1630,.F.);
#1630 = EDGE_CURVE('',#1621,#1525,#1631,.T.);
#1631 = LINE('',#1632,#1633);
#1632 = CARTESIAN_POINT('',(41.91,-63.89,4.7));
#1633 = VECTOR('',#1634,1.);
#1634 = DIRECTION('',(1.110223024625E-16,1.,0.));
#1635 = PLANE('',#1636);
#1636 = AXIS2_PLACEMENT_3D('',#1637,#1638,#1639);
#1637 = CARTESIAN_POINT('',(45.,-66.98,4.7));
#1638 = DIRECTION('',(0.,0.,1.));
#1639 = DIRECTION('',(1.110223024625E-16,1.,0.));
#1640 = ADVANCED_FACE('',(#1641),#1661,.T.);
#1641 = FACE_BOUND('',#1642,.T.);
#1642 = EDGE_LOOP('',(#1643,#1651,#1657,#1658,#1659,#1660));
#1643 = ORIENTED_EDGE('',*,*,#1644,.F.);
#1644 = EDGE_CURVE('',#1645,#1566,#1647,.T.);
#1645 = VERTEX_POINT('',#1646);
#1646 = CARTESIAN_POINT('',(41.91,-47.855,1.6));
#1647 = LINE('',#1648,#1649);
#1648 = CARTESIAN_POINT('',(41.91,-63.89,1.6));
#1649 = VECTOR('',#1650,1.);
#1650 = DIRECTION('',(1.110223024625E-16,1.,0.));
#1651 = ORIENTED_EDGE('',*,*,#1652,.F.);
#1652 = EDGE_CURVE('',#1621,#1645,#1653,.T.);
#1653 = LINE('',#1654,#1655);
#1654 = CARTESIAN_POINT('',(41.91,-47.855,1.6));
#1655 = VECTOR('',#1656,1.);
#1656 = DIRECTION('',(-0.,0.,-1.));
#1657 = ORIENTED_EDGE('',*,*,#1630,.T.);
#1658 = ORIENTED_EDGE('',*,*,#1534,.T.);
#1659 = ORIENTED_EDGE('',*,*,#1550,.F.);
#1660 = ORIENTED_EDGE('',*,*,#1575,.F.);
#1661 = PLANE('',#1662);
#1662 = AXIS2_PLACEMENT_3D('',#1663,#1664,#1665);
#1663 = CARTESIAN_POINT('',(41.91,-63.89,1.6));
#1664 = DIRECTION('',(-1.,1.110223024625E-16,0.));
#1665 = DIRECTION('',(0.,0.,1.));
#1666 = ADVANCED_FACE('',(#1667),#1678,.F.);
#1667 = FACE_BOUND('',#1668,.F.);
#1668 = EDGE_LOOP('',(#1669,#1675,#1676,#1677));
#1669 = ORIENTED_EDGE('',*,*,#1670,.F.);
#1670 = EDGE_CURVE('',#1590,#1645,#1671,.T.);
#1671 = LINE('',#1672,#1673);
#1672 = CARTESIAN_POINT('',(45.,-47.855,1.6));
#1673 = VECTOR('',#1674,1.);
#1674 = DIRECTION('',(-1.,1.110223024625E-16,0.));
#1675 = ORIENTED_EDGE('',*,*,#1589,.T.);
#1676 = ORIENTED_EDGE('',*,*,#1565,.F.);
#1677 = ORIENTED_EDGE('',*,*,#1644,.F.);
#1678 = PLANE('',#1679);
#1679 = AXIS2_PLACEMENT_3D('',#1680,#1681,#1682);
#1680 = CARTESIAN_POINT('',(45.,-66.98,1.6));
#1681 = DIRECTION('',(0.,0.,1.));
#1682 = DIRECTION('',(1.110223024625E-16,1.,0.));
#1683 = ADVANCED_FACE('',(#1684),#1690,.F.);
#1684 = FACE_BOUND('',#1685,.F.);
#1685 = EDGE_LOOP('',(#1686,#1687,#1688,#1689));
#1686 = ORIENTED_EDGE('',*,*,#1597,.F.);
#1687 = ORIENTED_EDGE('',*,*,#1670,.T.);
#1688 = ORIENTED_EDGE('',*,*,#1652,.F.);
#1689 = ORIENTED_EDGE('',*,*,#1620,.F.);
#1690 = PLANE('',#1691);
#1691 = AXIS2_PLACEMENT_3D('',#1692,#1693,#1694);
#1692 = CARTESIAN_POINT('',(45.,-47.855,1.6));
#1693 = DIRECTION('',(1.110223024625E-16,1.,0.));
#1694 = DIRECTION('',(0.,0.,1.));
#1695 = ( GEOMETRIC_REPRESENTATION_CONTEXT(3) 
GLOBAL_UNCERTAINTY_ASSIGNED_CONTEXT((#1699)) 
GLOBAL_UNIT_ASSIGNED_CONTEXT((#1696,#1697,#1698)) REPRESENTATION_CONTEXT
('Context #1','3D Context with UNIT and UNCERTAINTY') );
#1696 = ( LENGTH_UNIT() NAMED_UNIT(*) SI_UNIT(.MILLI.,.METRE.) );
#1697 = ( NAMED_UNIT(*) PLANE_ANGLE_UNIT() SI_UNIT($,.RADIAN.) );
#1698 = ( NAMED_UNIT(*) SI_UNIT($,.STERADIAN.) SOLID_ANGLE_UNIT() );
#1699 = UNCERTAINTY_MEASURE_WITH_UNIT(LENGTH_MEASURE(1.E-07),#1696,
  'distance_accuracy_value','confusion accuracy');
#1700 = PRODUCT_RELATED_PRODUCT_CATEGORY('part',$,(#7));
ENDSEC;
END-ISO-10303-21;
